<svg width="40" height="40" viewBox="0 0 40 40" fill="none" xmlns="http://www.w3.org/2000/svg">
<circle cx="20" cy="20" r="20" fill="#0078D4" fill-opacity="0.1"/>
<path d="M20 29C17.4833 29 15.3542 28.6125 13.6125 27.8375C11.8708 27.0625 11 26.1167 11 25V15C11 13.9 11.8792 12.9583 13.6375 12.175C15.3958 11.3917 17.5167 11 20 11C22.4833 11 24.6042 11.3917 26.3625 12.175C28.1208 12.9583 29 13.9 29 15V25C29 26.1167 28.1292 27.0625 26.3875 27.8375C24.6458 28.6125 22.5167 29 20 29ZM20 17.025C21.4833 17.025 22.975 16.8125 24.475 16.3875C25.975 15.9625 26.8167 15.5083 27 15.025C26.8167 14.5417 25.9792 14.0833 24.4875 13.65C22.9958 13.2167 21.5 13 20 13C18.4833 13 16.9958 13.2125 15.5375 13.6375C14.0792 14.0625 13.2333 14.525 13 15.025C13.2333 15.525 14.0792 15.9833 15.5375 16.4C16.9958 16.8167 18.4833 17.025 20 17.025ZM20 22C20.7 22 21.375 21.9667 22.025 21.9C22.675 21.8333 23.2958 21.7375 23.8875 21.6125C24.4792 21.4875 25.0375 21.3333 25.5625 21.15C26.0875 20.9667 26.5667 20.7583 27 20.525V17.525C26.5667 17.7583 26.0875 17.9667 25.5625 18.15C25.0375 18.3333 24.4792 18.4875 23.8875 18.6125C23.2958 18.7375 22.675 18.8333 22.025 18.9C21.375 18.9667 20.7 19 20 19C19.3 19 18.6167 18.9667 17.95 18.9C17.2833 18.8333 16.6542 18.7375 16.0625 18.6125C15.4708 18.4875 14.9167 18.3333 14.4 18.15C13.8833 17.9667 13.4167 17.7583 13 17.525V20.525C13.4167 20.7583 13.8833 20.9667 14.4 21.15C14.9167 21.3333 15.4708 21.4875 16.0625 21.6125C16.6542 21.7375 17.2833 21.8333 17.95 21.9C18.6167 21.9667 19.3 22 20 22ZM20 27C20.7667 27 21.5458 26.9417 22.3375 26.825C23.1292 26.7083 23.8583 26.5542 24.525 26.3625C25.1917 26.1708 25.75 25.9542 26.2 25.7125C26.65 25.4708 26.9167 25.225 27 24.975V22.525C26.5667 22.7583 26.0875 22.9667 25.5625 23.15C25.0375 23.3333 24.4792 23.4875 23.8875 23.6125C23.2958 23.7375 22.675 23.8333 22.025 23.9C21.375 23.9667 20.7 24 20 24C19.3 24 18.6167 23.9667 17.95 23.9C17.2833 23.8333 16.6542 23.7375 16.0625 23.6125C15.4708 23.4875 14.9167 23.3333 14.4 23.15C13.8833 22.9667 13.4167 22.7583 13 22.525V25C13.0833 25.25 13.3458 25.4917 13.7875 25.725C14.2292 25.9583 14.7833 26.1708 15.45 26.3625C16.1167 26.5542 16.85 26.7083 17.65 26.825C18.45 26.9417 19.2333 27 20 27Z" fill="#0078D4"/>
</svg>
