<?xml version="1.0" encoding="utf-8"?>
<!-- Generator: Adobe Illustrator 21.0.0, SVG Export Plug-In . SVG Version: 6.00 Build 0)  -->
<svg version="1.1" id="Layer_6" xmlns="http://www.w3.org/2000/svg" xmlns:xlink="http://www.w3.org/1999/xlink" x="0px" y="0px"
	 viewBox="0 0 760 484" style="enable-background:new 0 0 760 484;" xml:space="preserve">
<style type="text/css">
	.st0{opacity:3.000000e-02;fill:#3A3A3A;enable-background:new    ;}
	.st1{opacity:0.18;fill:#676767;enable-background:new    ;}
	.st2{opacity:0.6;fill:url(#SVGID_1_);enable-background:new    ;}
	.st3{fill:#898989;}
	.st4{fill:#CCCCCC;}
	.st5{fill:#979797;}
	.st6{fill:#202020;}
	.st7{fill:#E4E4E4;}
	.st8{fill:#BDBDBD;}
	.st9{opacity:0.5;fill:#BDBDBD;enable-background:new    ;}
	.st10{fill:#FFFFFF;}
	.st11{fill:#EAEAEB;}
	.st12{fill:#EFEFEF;}
	.st13{fill:#D7D6D5;}
	.st14{fill:#2C2C2F;}
	.st15{fill:#212121;}
	.st16{fill:#E0AB70;}
	.st17{fill:#39332C;}
	.st18{fill:#49443D;}
	.st19{fill:#D78E4E;}
	.st20{fill:none;}
	.st21{fill:#DDDDDD;}
	.st22{opacity:0.6;}
	.st23{fill:url(#SVGID_2_);}
	.st24{fill:url(#SVGID_3_);}
	.st25{fill:url(#SVGID_4_);}
	.st26{fill:url(#SVGID_5_);}
	.st27{fill:url(#SVGID_6_);}
	.st28{fill:url(#SVGID_7_);}
	.st29{fill:url(#SVGID_8_);}
	.st30{fill:url(#SVGID_9_);}
	.st31{fill:url(#SVGID_10_);}
	.st32{fill:url(#SVGID_11_);}
	.st33{fill:url(#SVGID_12_);}
	.st34{fill:url(#SVGID_13_);}
	.st35{fill:url(#SVGID_14_);}
	.st36{fill:url(#SVGID_15_);}
	.st37{fill:url(#SVGID_16_);}
	.st38{fill:url(#SVGID_17_);}
	.st39{fill:url(#SVGID_18_);}
	.st40{fill:url(#SVGID_19_);}
	.st41{fill:url(#SVGID_20_);}
	.st42{fill:url(#SVGID_21_);}
	.st43{fill:url(#SVGID_22_);}
	.st44{fill:url(#SVGID_23_);}
	.st45{fill:url(#SVGID_24_);}
	.st46{fill:url(#SVGID_25_);}
	.st47{fill:url(#SVGID_26_);}
	.st48{fill:url(#SVGID_27_);}
	.st49{opacity:0.6;fill:url(#SVGID_28_);enable-background:new    ;}
	.st50{opacity:0.6;fill:url(#SVGID_29_);enable-background:new    ;}
</style>
<g>
	<circle class="st0" cx="303.7" cy="44.6" r="29.6"/>
	<path class="st0" d="M1.1,259.1L1,464.6c292.3,55,414.4-46.2,414.4-46.2l-0.7-0.4h1.1c24.3-20.5,39.6-50.1,42-86.5
		c3.9-57-48.5-110.8,32.4-147.3c152.4-68.7,1.2-246.5-107.9-155.4c-42.8,35.8-44.3,86.2-188.3,36.2C141,46.7,39.1,51.9,0.3,75.3
		v183.8H1.1L1.1,259.1z"/>
	<circle class="st0" cx="518.8" cy="258.5" r="61.3"/>
</g>
<ellipse class="st1" cx="390.3" cy="379.5" rx="363.2" ry="17.6"/>
<g>
	
		<linearGradient id="SVGID_1_" gradientUnits="userSpaceOnUse" x1="713.6" y1="1524.2889" x2="753.5" y2="1524.2889" gradientTransform="matrix(1 0 0 -1 0 1710)">
		<stop  offset="0" style="stop-color:#EC1849"/>
		<stop  offset="1" style="stop-color:#C6202C"/>
	</linearGradient>
	<path class="st2" d="M753.5,187v6.4h-39.9V187h5.8l0.2-0.3c0,0,4.7-8.4,13.9-8.6c9.2,0.2,13.9,8.6,13.9,8.6l0.2,0.3H753.5z"/>
	<g>
		<g>
			<path class="st3" d="M104.4,286.4c0,0-7.5-29.5-26.4-34.5c-18.9-4.8-33.1,38.6-24.9,63.7C61.3,340.5,104.4,286.4,104.4,286.4z"/>
			<path class="st4" d="M357.8,306.9c0,0-19.8-48.5-54.6-44.8c-34.8,3.7-32.9,95.3-20.9,117C294.5,400.7,357.8,306.9,357.8,306.9z"
				/>
			<path class="st5" d="M540,218.2l0.9-11.9c0.2-2.2,2.2-4,4.7-4h17.5c1.8,0,3.4,0.9,4.2,2.4l6.2,10.6c1.9,3.3-0.4,7.3-4.5,7.7
				l-21.7,2.1L540,218.2z"/>
			<g>
				<path d="M629.3,279.3h-39.6l-7.9,116.2l7.9,12.9c0,0,28.2,0,39.6,0c18.9,0,34-28.9,34.1-64.6
					C663.6,308.2,648.2,279.3,629.3,279.3z"/>
				<ellipse class="st6" cx="589.7" cy="344" rx="34" ry="64.6"/>
				<ellipse class="st7" cx="588.6" cy="344.5" rx="22.6" ry="49.6"/>
				<ellipse class="st5" cx="593.2" cy="344.5" rx="15.7" ry="45.1"/>
			</g>
			<g>
				<path d="M109.6,271.6H78.8L72.7,372l6.1,11.2c0,0,21.8,0,30.8,0c14.6,0,26.4-24.9,26.4-55.7S124.2,271.6,109.6,271.6z"/>
				<ellipse class="st6" cx="78.8" cy="327.4" rx="26.4" ry="55.8"/>
				<path class="st7" d="M95.5,327.9c0,23.7-7.9,42.8-17.5,42.8s-17.5-19.2-17.5-42.8s7.9-42.8,17.5-42.8S95.5,304.3,95.5,327.9z"/>
				<ellipse class="st5" cx="81.5" cy="327.9" rx="12.1" ry="39"/>
			</g>
			<g>
				<path d="M354.9,281h-39.4l-7.9,128.9l7.7,14.4c0,0,28,0,39.4,0c18.8,0,33.9-32,33.9-71.6C388.8,313,373.6,281,354.9,281z"/>
				<ellipse class="st6" cx="315.4" cy="352.6" rx="33.9" ry="71.6"/>
				<path class="st7" d="M336.8,353.2c0,30.3-10.1,55-22.5,55c-12.5,0-22.5-24.6-22.5-55c0-30.3,10.1-55,22.5-55
					S336.8,322.8,336.8,353.2z"/>
				<path class="st5" d="M334.5,353.2c0,27.6-7,50.1-15.6,50c-8.6,0-15.6-22.5-15.6-50.1s7-50.1,15.6-50S334.5,325.6,334.5,353.2z"
					/>
			</g>
			<path class="st4" d="M48.2,281.5c1.1,23.8,4.8,34.1,4.8,34.1s-3-44.6,16.4-54C80.7,256.1,91,276,98,297.4
				c1.2,3.9,2.5,7.9,3.5,11.7c3.1,11.2,5.3,21.8,6.2,28c0.2,1.2,0.3,2.4,0.6,3.5c2.8,16.8,6.5,19,33.7,19.5
				c5.1,0.1,12.6,0.8,21.6,1.7c1.1,0.1,2.4,0.2,3.6,0.3c43.3,4.9,115.3,16.8,115.3,16.8s-1-6.5-1.9-16.3c-1.9-20.7-3.4-55.9,6.6-74
				c14.8-26.5,50.8-18.3,63.7,33c4.8,19,8.1,32.9,11,42.8c5.1,17,9.2,22.6,18.4,23.4c12,1,17.3-5.2,36.4-6.4c4.4-0.3,9.4-0.3,15.5,0
				c32.4,1.8,73.8-5.3,73.8-5.3s123.3-4.7,141-4c17.7,0.6,28.9,4.7,34.2-1.8c2.2-2.8,5.3-12.8,6.7-25.4c0.4-4.2,0.8-8.5,0.9-13.1
				c0.2-13.5-1.7-28.2-7.6-39.9c0,0,0.2-9-3.8-19c-1.6-3.9-3.8-8-7.1-11.8c-0.7-0.8-1.3-1.6-2.1-2.2c0,0-99.7-30.8-111.5-36.6
				c-0.3-0.1-0.7-0.3-1-0.6c-14.4-8-84-57.9-84-57.9s-4.4-4.7-14.8-9.8c-7.3-3.5-17.4-7-31.2-9.2c-33.6-5.3-140.5-7.7-182.9-6.5
				c-7.6,0.2-16.1,0.8-24.8,1.8c-40.4,4.7-88.9,19-105,49.4c0,0-17.1,18.3-39,24.1C52.4,219.7,47.1,257.7,48.2,281.5z"/>
			<path class="st8" d="M388.6,360.2c-8.1,1.8-16.5,3.4-26.6,4.4c5.1,17,9.2,22.6,18.4,23.4c12,1,17.3-5.2,36.4-6.4
				c4.4-0.3,9.4-0.3,15.5,0c32.4,1.8,73.8-5.3,73.8-5.3s123.3-4.7,141-4c17.7,0.6,28.9,4.7,34.2-1.8c2.2-2.8,5.3-12.8,6.7-25.4
				c-9.2,4.5-26.5,10.3-57.5,12.7c-54.2,4.2-161,0-161,0S414.7,354.4,388.6,360.2z"/>
			<path class="st8" d="M108.3,340.7c2.8,16.8,6.5,19,33.7,19.5c5.1,0.1,12.6,0.8,21.6,1.7c1.1,0.1,2.4,0.2,3.6,0.3
				c43.3,4.9,115.3,16.8,115.3,16.8s-1-6.5-1.9-16.3c-7.3-0.7-15.2-1.6-23.6-2.6C200.6,353.3,136.6,344.6,108.3,340.7z"/>
			<g>
				<path class="st5" d="M163.6,240.7v121.2c1.1,0.1,2.4,0.2,3.6,0.3V241.5l12.7-27.4l-3.3-1.5L163.6,240.7z"/>
			</g>
			<g>
				<path class="st8" d="M98.1,231.5v66c1.2,3.9,2.5,7.9,3.5,11.7v-76.9l6.1-14.4l13.5-14.5l-2.6-2.4l-13.8,14.9L98.1,231.5z"/>
			</g>
			<path class="st9" d="M276.6,210c0,0,12.6,12.9,8.9,22.2s-96.3,19.9-93.9-16.8C194.2,178.6,276.6,210,276.6,210z"/>
			<path class="st8" d="M218.1,140.2c17.4,1.1,35.6,4.6,49.1,12.9c35.4,21.8,40.5,68.6,40.5,68.6l71,38.3c0,0,5.8,7.6,67.8,18.4
				c52.5,9.1,190.3-1.9,231-5.5c-1.6-3.9-3.8-8-7.1-11.8c-0.7-0.8-1.3-1.6-2.1-2.2c0,0-99.7-30.8-111.5-36.6c-0.3-0.1-0.7-0.3-1-0.6
				c-14.4-8-84-57.9-84-57.9s-4.4-4.7-14.8-9.8c-7.3-3.5-17.4-7-31.2-9.2c-33.6-5.3-140.5-7.7-182.9-6.5
				C235.4,138.5,227,139.2,218.1,140.2z"/>
			<path class="st10" d="M392.8,289.5c23.5,11.1,98.7,12.5,113.3,12.9s150.9-3,156.6-3.5s18.6-7,18.6-7s0.1-3.4-0.8-8.3
				c-1.1-6.2-3.7-14.9-10.1-22.5c-5.1,2-11.1,3.8-17.9,4.5c-19,1.8-156.6,2.6-188.5-0.1c-10.2-0.9-22.8-1.8-34.9-2.6
				c-25.8-1.7-50.4-3-50.4-3S369.4,278.3,392.8,289.5z"/>
			<path class="st11" d="M392.8,289.5c23.5,11.1,98.7,12.5,113.3,12.9s150.9-3,156.6-3.5s18.6-7,18.6-7s0.1-3.4-0.8-8.3
				c-10.2,5.3-26.5,9.8-26.5,9.8s-126.7,4.7-170.4-3.7c-28.3-5.4-45.6-18.3-54.5-26.7c-25.8-1.7-50.4-3-50.4-3
				S369.4,278.3,392.8,289.5z"/>
			<polygon points="486,273.1 652.9,273.2 654,278.4 490.4,278.4 			"/>
			<polygon points="493,281.5 654.6,281.6 655.7,286.9 497.4,286.9 			"/>
			<polygon points="500.3,290.4 656.4,290.5 657.4,295.7 504.7,295.6 			"/>
			<path class="st4" d="M283.7,141.4l23.4,0.3l69.8,1.1l-0.9-2l-11.6-25.3c-1.1-2.5-3.6-4-6.3-4.2l-54.5-1.8c-0.7,0-1.5,0.1-2.1,0.2
				c-1.9,0.6-3.6,1.9-4.6,3.8L285.1,138L283.7,141.4z"/>
			<path d="M267.2,153.1c20.3,14.8,40.5,68.6,40.5,68.6c33-3.5,157.3-4.4,199.3-3c18.2,0.6,35.4,1.8,48.8,3c-14.4-8-84-57.9-84-57.9
				s-4.4-4.7-14.8-9.8C391.6,149.8,267.2,153.1,267.2,153.1z"/>
			<path d="M285.5,222.5c0,0-12.9-45.2-37.4-64.1c-24.5-18.8-88.1-3-104.1,9.4c-15.9,12.4-37.7,49-37.7,49L285.5,222.5z"/>
			<rect x="171.1" y="241.2" width="21.2" height="7.1"/>
			<path d="M511.6,336.1l6,32.2l128.8-3.5c0,0,6.5-16.4,9.5-28.2C630.2,336.8,565.9,336.4,511.6,336.1z"/>
			<path d="M400.7,356.3c0.9,2.9,1.7,5.7,2.7,8.5c23.6,6.2,89.6,3.5,89.6,3.5l-5.4-32.2c-30.7-0.1-54.7,0-61.2,0.3
				C406.5,337.7,396.8,342.6,400.7,356.3z"/>
			<path d="M661.3,360.3c0,0,15.7,0,25.7-8.8c1-5.8,1.7-12.7,1.8-19.8c-4,2.1-11.3,4.2-24.3,4.6L661.3,360.3z"/>
			<path class="st5" d="M282.9,220.3l-10-3.1l-8.6-9.7c-2.5-2.8-6.1-4.4-9.8-4.4h-19.2c0,0-5.7,0.2-5.7,9v7.5c0,2.5,1.8,4.5,4.3,4.7
				c9.3,0.9,30.9,3.1,35.5,3.1h12.4c2,0,3.7-1.7,3.7-3.7l0,0C285.5,222.2,284.4,220.7,282.9,220.3z"/>
			<polygon points="361.3,117.7 309.2,116.4 310.7,134.6 368.7,135 			"/>
			<path class="st10" d="M322.8,120l0.4,2.8h-3.4l1.2,9.3h-3.6l-1.1-9.3H313l-0.3-2.8H322.8z"/>
			<path class="st10" d="M328.8,131.8l-3.7-0.1l3.8-11.9h3.5l6.2,12H335l-0.9-2l-4.7-0.1L328.8,131.8z M332.9,127.2l-1.8-3.9l-1,3.9
				H332.9z"/>
			<path class="st10" d="M352.2,119.8l-3.4,5.7l4.5,6.3l-4-0.1l-2.4-3.5l-2,3.5l-4.2-0.1l3.9-6.3l-3.8-5.6h3.9l2,3l1.7-3
				L352.2,119.8z"/>
			<path class="st10" d="M358.9,119.6l1.7,11.7l-3.4,0.3l-1.6-11.7L358.9,119.6z"/>
			<path class="st3" d="M283.7,141.4l23.4,0.3c-0.3-6-1.1-17.7-2.2-25.3c-0.4-3.3-1.7-5.3-3.3-6.5c-1.9,0.6-3.6,1.9-4.6,3.8
				L283.7,141.4z"/>
			<polygon points="283.7,141.4 307.1,141.7 376.9,142.8 375.9,140.8 306.8,138.4 285.3,138.1 			"/>
		</g>
		<g>
			<g>
				<g>
					<g>
						<g>
							<g>
								<path class="st12" d="M95.2,146.4c0,0-4.8,1.6-10.4,11.3c-4.8,8.4-11.6,27.4-10.1,46.4c1.5,18.9,12.7,38,15.6,41.2
									c3.7,4.3,6.3,5.7,6.3,5.7l2.2-17.1c0,0-6.3-6.2-9-21.8c-2.2-12.7-1.3-18.8,2.4-28.3c3.7-9.4,9.7-16.3,9.7-16.3
									s1.3-3.1-0.1-9.1C100.1,152.7,95.2,146.4,95.2,146.4z"/>
								<path class="st13" d="M94.8,235.2c-1,3.6-2.4,7.3-4.2,10.7c3.5,3.9,5.8,5.3,5.8,5.3l2.2-17.1c0,0-1.2-1.1-2.7-3.7
									C95.6,232,95.2,233.6,94.8,235.2z"/>
								<path class="st12" d="M154.6,146.5c0,0,5.1,1.6,10.4,10.7c4.9,8.3,11.7,28,10.2,46.8c-0.7,9.1-2.9,18.2-6.6,26.6
									c-1.9,4.3-4.2,8.3-7.1,11.9c-1.3,1.7-2.8,3.3-4.4,4.7c-0.3,0.3-3.8,3-3.7,3.5l-2.9-17.7c0,0,7.3-7.1,9.8-20.9
									c1.8-10.6,1.2-18.8-2.5-28.2s-9.7-16.3-9.7-16.3s-1.3-3.1,0.1-9.1C149.6,152.5,154.6,146.5,154.6,146.5z"/>
								<path class="st13" d="M155.7,238.1c-0.9-3.6-0.4-7.4-0.1-11.1c-0.1-0.3-0.1-0.7-0.2-1c-2.5,4.5-4.8,6.7-4.8,6.7l2.9,17.7
									c-0.1-0.4,3.4-3.1,3.7-3.5c0.6-0.6,1-1,1.6-1.6C157.4,243.2,156.4,240.7,155.7,238.1z"/>
								<path class="st14" d="M123.5,259.5c-0.1,1.3-0.1,2.8-0.2,4.4c-0.2,3.6-0.4,7.5-0.8,11.8c-1.1,13.2-10.3,126.2-10.3,126.2
									s-2,0.3-6.6,0.4c-1.5,0.1-3.3,0.1-5.4,0.1c-2.8,0-5.1-0.2-6.8-0.6c-3.8-0.7-5.7-1.7-5.7-1.7l5.4-150.3c0,0,0.1-0.4,0.4-1.2
									l0,0c0.6-1.7,1.7-4.7,2.8-7.9c0.7-1.8,1.1-3.7,1.6-5.5c0.1-0.2,0.1-0.6,0.2-0.8c0.2,0.3,0.3,0.8,0.6,1.2
									c0.7,1.5,1.5,3,2.2,4.6c0.1,0.2,0.2,0.3,0.3,0.6c1.8,3.1,3.8,6.4,6.2,9.3C112.5,256.6,117.3,259.4,123.5,259.5z"/>
								<path class="st14" d="M156.2,247.8c0,0,0,0.1,0,0.2c0,1.3-0.1,9.1-0.8,19.1c-0.8,11-9.1,133.7-9.1,133.7s-1.9,1.5-7.4,1.8
									c-1.3,0.1-2.8,0.1-4.6,0c-3.5-0.2-6.2-0.6-8.3-0.9c-3.4-0.6-4.9-1.1-4.9-1.1s5.4-89.4,4.5-106.7c-0.4-8.8-0.7-20.5-0.8-30.1
									c0-1.6,0-3,0-4.4c0.8,0,1.7-0.1,2.5-0.2c8.2-1.2,13.2-4.4,19.3-14.4c0.6-0.9,1-1.7,1.5-2.5c0.2-0.4,0.6-0.9,0.8-1.2
									c0.9-1.7,1.8-3.1,2.5-4.5c0.4-0.9,0.9-1.8,1.2-2.6v0.1c0.1,1,0.2,2,0.3,3C153.3,240.8,156.2,247.8,156.2,247.8z"/>
								<g>
									<path class="st15" d="M95,253c3.1-3.1,6.1-7.9,6.1-12.5c0-0.2-0.3-0.3-0.4-0.1c-1.5,4.6-2.7,8.5-6.2,12
										C94.2,252.7,94.7,253.3,95,253L95,253z"/>
								</g>
								<g>
									<path class="st16" d="M100.8,99.9c-0.2-0.9-0.7-1.8-1.1-2.5c-0.4-0.7-1-1.3-1.7-1.7c-0.7-0.3-1.6-0.4-2.2-0.1
										s-0.9,0.9-1.2,1.6c-1,2.4-0.8,5.2,0.6,7.3c0.4,0.8,1.1,1.5,1.9,1.7c1.6,0.6,3.4-0.6,4-2.1
										C101.7,102.5,100.8,99.9,100.8,99.9z"/>
								</g>
								<g>
									<path class="st16" d="M154,97.2c-0.2-0.6-0.7-1.2-1.2-1.6c-0.7-0.3-1.6-0.3-2.2,0.1c-0.7,0.3-1.6,1.1-1.9,1.8
										c-1.7,3-1.5,5.7-1.1,6.5c0.7,1.6,2.5,2.7,4,2.1c0.8-0.3,1.5-1,1.9-1.7C154.8,102.4,155,99.6,154,97.2z"/>
								</g>
								<g>
									<path class="st16" d="M133.6,136.4c-0.4-0.3-0.7-0.8-0.8-1.3c-0.1-1.3-1.2-16.2-0.6-16.2c-4.4,0.1-12.9,0.3-17.3,0.4
										l0.1-0.1c0,4.2-0.3,15.5-0.7,16.7c-0.9,2.9-6.5,4.5-6.6,4.7c-0.1,0.1,0,0.9,0,1c0.2,4.4,5.7,7.7,9.8,9.4
										c4,1.7,10,1.7,13.8-0.3c4.2-2.1,9.4-6.3,9.5-11C138,138.9,134.5,137.2,133.6,136.4z"/>
								</g>
								<path class="st16" d="M134,66.3c-8.3-4-19-3-25.6,3.7c-0.6,0.7-1.2,1.3-1.7,2c-10.8,13.9-11,39.2,6.5,50.2
									c17.5,11.1,35.6-5.8,36.5-22.3c0.6-10.7-2.1-23.1-10.8-30.4C137.4,68.3,135.8,67.2,134,66.3z"/>
								<g>
									<g>
										<path class="st17" d="M137,93.3c-0.8-1.2-2.5-1.6-3.5-0.3c-1,1.2-1.5,3.3-1,4.7c0.2,0.7,0.8,1.3,1.6,1.6
											c1,0.3,2.1-0.2,2.7-1c0.6-0.8,0.8-1.8,0.8-2.7C137.4,94.6,137.3,93.9,137,93.3z"/>
									</g>
									<g>
										<path class="st17" d="M114,92.7c0.8-1.2,2.5-1.6,3.5-0.3c1,1.2,1.5,3.3,1,4.7c-0.2,0.7-0.8,1.3-1.6,1.6
											c-1,0.3-2.1-0.2-2.7-1c-0.6-0.8-0.8-1.8-0.8-2.7C113.6,94.2,113.7,93.4,114,92.7z"/>
									</g>
								</g>
								<g>
									<path class="st18" d="M118.1,85.7c-1.3-0.8-2.7-1-4.2-0.6c-1.2,0.3-2.8,1.2-3.3,2.6c-0.1,0.3,0.1,0.7,0.4,0.7
										c0.9-0.1,1.8-0.7,2.7-1c1.1-0.3,2.4-0.7,3.5-0.2C118.1,87.2,119,86.2,118.1,85.7L118.1,85.7z"/>
								</g>
								<g>
									<path class="st18" d="M131.4,85.8c1.2-0.9,2.7-1.1,4.2-0.7c1.2,0.3,2.9,1.1,3.4,2.5c0.1,0.3-0.1,0.7-0.4,0.7
										c-0.9-0.1-1.8-0.7-2.7-0.9c-1.1-0.3-2.4-0.6-3.6-0.1C131.6,87.3,130.7,86.3,131.4,85.8L131.4,85.8z"/>
								</g>
								<path class="st18" d="M152.2,89.9c-0.2-1.8-1-3.4-1.7-4.9c-0.9-1.9-0.9-3.7-0.9-5.8c0-1.7,0.1-3.5-0.7-5.1s-2.2-2.8-3.1-4.3
									c-2.1-3-3.6-6.7-6.8-8.8c-3.8-2.4-7.3,0-11.2,0.2c-4,0.1-8.2-2.7-12.1-0.7c-1.9,1-2.8,3.1-4.7,4.3c-1.5,0.9-3.3,1.1-4.7,2.1
									c-3,2.2-2.7,6.6-4.5,9.7c-2,3.4-5.6,6.2-5.8,10.4c-0.2,4.6,3,9.2,4.5,13.4c-0.1,7.1,1.5,14.4,2.6,21.3
									c0.4,2.5,1,4.5,3.4,5.8c3,1.7,6.6,2.9,10,3.7c2.1,0.4,4.5,0.6,6.6,0.7c3.3,0.1,6.5,0.2,9.7-0.4c3.3-0.8,6.4-2,9.4-3.5
									c2.5-1.1,3.6-2.7,4-5.3c0.7-3.6,1.2-7.3,1.7-11c0.4-3.6,1.2-7,1.2-10.7C151.4,97.6,152.8,94,152.2,89.9z M102.7,94.9
									c1.1-4.4,1-9,2-13.6c0.7-2.9,1.8-2.9,4.4-3.7c2.1-0.7,3.9-3.6,6-3.8c1.5-0.1,2.9,1.3,4.2,1.9c1.6,0.8,2.7,1.1,4.4,1.2
									c2.7,0.3,5.4-0.2,7.9-1.2c2-0.8,5.7-4.4,7.2-1.5c0.6,1.1,0.4,2.4,1.2,3.5c0.8,1.2,2,2,2.9,3c2.1,2.2,2.4,4.9,3.1,7.9
									c0.6,2.4,0.9,4.6,1.3,7c-0.1,3.7-0.2,8.9-2.9,11.5c-4.3,3.9-10.9-1.9-15-3.6c-4.4-1.8-8.8-0.7-13,1.1
									c-2.7,1.2-10.4,6.2-12,1.7C103.2,103.3,102.8,98.3,102.7,94.9z"/>
								<path class="st16" d="M125.2,87.7c0,0,0,3.8,0,5.7s0.8,3.9-0.2,5.4s-3.7,1.2-4.4,2.6c-0.7,1.3-0.4,2.1,0.3,2.7
									c0.9,0.6,2.7,1.1,4.6,1.1c2.7,0,2.9-0.8,3.3-1.7c0.2-0.7-0.7-1.8-0.8-3.4c-0.1-1.6,0.6-7.4,0.7-8.1c0.1-0.7,0-3.1,0-3.1
									S127.6,86.2,125.2,87.7z"/>
								<g>
									<path class="st19" d="M125.2,88.6c-0.1,1.6-0.1,3.1,0,4.7c0,1.5,0.4,3.3,0.1,4.7c-0.7,2.6-3.1,1.7-4.5,3.4
										c-2.9,3.7,5.5,4.5,7.2,3.5c0.3-0.2,0.2-0.6-0.2-0.6c-1.5,0-4.9,0.8-6.3-0.3c-2-1.7,1.1-2.8,2.2-3.4c1.7-0.9,1.8-2,1.9-3.8
										c0.2-2.8,0.2-5.5,0.1-8.2C125.8,88.1,125.3,88.1,125.2,88.6L125.2,88.6z"/>
								</g>
								<path class="st12" d="M109.4,139.1c0,0-11.1,5.4-13.8,6.8c-2.7,1.6-2.9,2-2.9,2s4.8,39,4.9,45.4c0.1,6.3,0,13.8-1,20
									s-0.9,11.6-0.6,15c0.3,3.5,4.9,18.5,11.1,26.2c6.2,7.6,11.8,10.3,20,9c8.2-1.2,13.4-8.8,19.4-18.8c6.1-10,7.9-14.6,8.4-18.3
									c0.6-3.7-2.1-17.6-2.2-23.5c-0.1-6,1-21.2,1.7-28.5s2.4-26.7,2.4-26.7s-7.9-4.9-14.3-7.5c-5.8-2.4-15.5,1.6-15.5,1.6
									s-1.5,4.6-2.6,8.9c-0.6-2.1-1.1-7.7-3.4-9.4c-2.3-1.7-10.1-3.6-10.1-3.6L109.4,139.1z"/>
								<g>
									<path class="st20" d="M153.5,187.6c-0.4,6.1-0.7,12.1-0.7,15.4c0.1,6,2.8,19.9,2.2,23.5c0,0.1,0,0.1,0,0.2
										c2-3.5,4.2-8.3,5.3-14.7c1.8-10.6,1.2-18.8-2.5-28.2c-0.9-2.4-2-4.6-3.1-6.6c-0.1-0.2-0.2-0.3-0.3-0.6
										C154,179.8,153.7,183.7,153.5,187.6z"/>
									<path class="st20" d="M95.9,176.2c-1.3,2.2-2.6,4.8-3.8,7.7c-3.7,9.4-4.6,15.6-2.4,28.3c1.8,10.2,5.1,16.4,7.2,19.4
										c-0.4-1.3-0.8-2.5-0.8-3.3c-0.3-3.5-0.4-8.9,0.6-15c1-6.2,1.1-13.7,1-20c0-1.2-0.2-3.7-0.6-6.8c-0.3-3-0.7-6.6-1.1-10.6
										C96,176,95.9,176,95.9,176.2z"/>
								</g>
								<path class="st21" d="M122.8,141.1c0,0-0.7,3.8-1.8,7.2s-1.6,5.5-1.6,5.5s-4.4-2.9-7.7-7.6c-3.4-4.6-3.9-6.6-3.9-6.6
									s0.7-1.9,2.5-3.9c2-2.2,4.2-3.1,4.2-3.1s0.3,3.7,2.8,5.6C120.1,140.6,122.8,141.1,122.8,141.1z"/>
								<path class="st21" d="M125.6,141.1c0,0,0.9,2.7,1.8,6.2c1.2,4.9,1.2,7.2,1.2,6.5c0,0,4.4-2.9,7.7-7.6
									c3.4-4.7,3.9-6.6,3.9-6.6s-0.6-1.6-2.5-3.9c-1.7-2.1-4.2-3-4.2-3s-0.2,3.6-2.8,5.6C127.9,140.6,125.6,141.1,125.6,141.1z"/>
								<g>
									<path class="st15" d="M154.2,251.4c-3-3.1-4.8-6.6-5.6-10.6c-0.2,0.4-0.4,0.9-0.8,1.3c0.8,4,2.6,8.3,6.1,9.7
										C154.2,251.8,154.4,251.5,154.2,251.4z"/>
								</g>
								<g>
									<path class="st13" d="M155.7,147c0.3,0.2,0.7,0.4,0.8,0.6C156.3,147.3,156,147.2,155.7,147z"/>
								</g>
								<g>
									<path class="st8" d="M123.7,156.1c1.2,17,1.3,33.9,1.1,50.9c-0.2,16.7-1.6,33.5-1.2,50.2c0,0.3,0.6,0.3,0.6,0
										c1.2-16.6,1.1-33.5,1.5-50.2c0.3-17,0.3-33.9-1.3-50.9C124.2,155.7,123.6,155.7,123.7,156.1L123.7,156.1z"/>
								</g>
							</g>
							<g>
								<g>
									<path class="st12" d="M94.4,163.4c0.4,3.9,1.1,7.7,1.6,11.7c0.3,3.6,0.3,7.3,1,10.8c0,0.2-0.2-8.2-0.7-12.1
										c-0.3-3.5-0.7-7-1.3-10.4C94.8,163,94.3,163,94.4,163.4L94.4,163.4z"/>
								</g>
								<g>
									<path class="st12" d="M153.7,183.3c0.3-2.7,2.6-15,2.9-18.6c0-0.2-0.4-0.3-0.4-0.1c-0.8,4.5-1.3,8.9-2,13.4
										c-0.3,2.5-0.8,5.8-0.7,8.3C153.6,185.6,153.6,184,153.7,183.3z"/>
								</g>
							</g>
						</g>
					</g>
				</g>
				<path class="st10" d="M115.5,113.4l18.4,0.3c0,0-2.9,4.8-9.7,4.2C117.6,117.2,115.5,113.4,115.5,113.4z"/>
			</g>
			<path class="st15" d="M158.1,420.5c-0.2,5.8-12.6,1.9-18.4-0.6c-5.7-2.6-13.1-7.9-14-10c-0.6-1.3-0.1-5.1,0.4-8.2
				c2,0.3,4.8,0.7,8.3,0.9c1.8,0.1,3.3,0.1,4.6,0C144.9,406.6,158.3,416,158.1,420.5z"/>
			<path class="st15" d="M105.7,409.6c-0.9,2.2-8.3,7.4-14,10s-18.1,6.3-18.4,0.6c-0.2-4.7,14.5-14.8,20-18.3
				c1.8,0.3,4.2,0.6,6.8,0.6c2,0,3.8,0,5.4-0.1C106,405.2,106.3,408.4,105.7,409.6z"/>
			<g>
				<path class="st10" d="M88.7,405.2c1.8,0.1,3.9,0.3,5.4,1.6s1.7,2.9,2.7,4.4c0.1,0.2,0.4,0.1,0.4-0.1c0.2-1.8-1.2-3.9-2.6-4.9
					c-1.7-1.2-3.9-1.3-6-1.5C88.3,404.7,88.3,405.2,88.7,405.2L88.7,405.2z"/>
			</g>
			<g>
				<path class="st10" d="M92.2,402.1c2,0,4.2,0.2,5.7,1.6c1.6,1.1,1.8,2.7,2.6,4.3c0.1,0.2,0.3,0.1,0.3,0c0.7-1.9-0.9-4-2.4-5.1
					c-1.9-1.5-4.2-1.8-6.4-1.2C91.8,401.6,91.8,402.1,92.2,402.1L92.2,402.1z"/>
			</g>
			<g>
				<path class="st10" d="M147.1,407.7c-3.7-0.8-8.9,0-10.4,4c-0.1,0.1,0.2,0.3,0.3,0.1c2.8-3.1,6-3.6,10-3.5
					C147.3,408.4,147.4,407.8,147.1,407.7L147.1,407.7z"/>
			</g>
			<g>
				<path class="st10" d="M141.9,404c-2-0.6-4-1-6-0.1c-1.5,0.7-2.8,2-3.3,3.6c-0.1,0.2,0.2,0.4,0.4,0.2c1.1-0.9,1.9-2.1,3.4-2.7
					c1.7-0.8,3.6-0.4,5.4-0.2C142.2,404.8,142.2,404.1,141.9,404L141.9,404z"/>
			</g>
			<path class="st14" d="M144.7,141.1c0.2,1.6,1.6,3,3,3.7c3,1.3,6,3.1,8.8,4.9c1.7,1.2,6.6-0.8,4.3-2.6c-2.8-2.1-7.3-4.7-9.3-5.6
				C149.4,140.7,144.4,139.6,144.7,141.1z"/>
			<path class="st14" d="M105.4,141.1c-0.2,1.6-1.6,3-3,3.7c-3,1.3-6,3.1-8.8,4.9c-1.7,1.2-6.6-0.8-4.3-2.6c2.8-2.1,7.3-4.7,9.3-5.6
				C100.7,140.7,105.6,139.6,105.4,141.1z"/>
		</g>
	</g>
	<g class="st22">
		<g>
			<g>
				
					<linearGradient id="SVGID_2_" gradientUnits="userSpaceOnUse" x1="23.8" y1="1556.8889" x2="61.5023" y2="1556.8889" gradientTransform="matrix(1 0 0 -1 0 1710)">
					<stop  offset="0" style="stop-color:#EC1849"/>
					<stop  offset="1" style="stop-color:#C6202C"/>
				</linearGradient>
				<path class="st23" d="M47,166.9c-2.8-1.9-5.4-3.9-8.1-5.7c0.2-0.5,0.6-0.8,0.7-1.3c-1.1-0.8-2.3-1.7-3.4-2.5
					c-0.2-0.1-0.5-0.2-0.6-0.2c-1.4,0-2.6-0.5-3.6-1.4c-1.9-2-3.9-4-5.7-6.2c-0.8-0.9-1.6-1.9-2.5-3c1.5-0.9,2.9-2,4.8-2.4
					c0.5-0.1,0.9,0.1,1.4,0.3c0.9,0.6,1.9,1.2,2.7,1.9c1.6,1.5,3.5,2.1,5.6,2.4c2,0.2,4.1,0.5,6.2,0.7c0.6,0.1,1.1,0.5,1.7,0.6
					c0.2,0.1,0.6,0.2,0.6,0.1c0.2-0.1,0.2-0.6,0.1-0.6c-0.2-0.6-0.5-1.2-0.6-1.9c2.8-2.8,5.6-5.5,8.4-8.3c2.3,2.9,4.6,6,6.9,8.8
					c-2,2.8-4,5.6-6,8.5c-0.6-0.2-1.2-0.6-1.8-0.7c-0.6-0.2-1.1,0.2-1.1,0.7c0,0.1,0,0.2,0,0.2c0.6,1.6,0,2.8-1.1,4
					c-1.5,1.7-2.8,3.5-4.3,5.3C47.2,166.6,47.2,166.8,47,166.9z"/>
			</g>
			
				<linearGradient id="SVGID_3_" gradientUnits="userSpaceOnUse" x1="22.7339" y1="1546.689" x2="27.6557" y2="1546.689" gradientTransform="matrix(1 0 0 -1 0 1710)">
				<stop  offset="0" style="stop-color:#EC1849"/>
				<stop  offset="1" style="stop-color:#C6202C"/>
			</linearGradient>
			<path class="st24" d="M25.7,160.4c0.6,0.5,1.4,0.8,1.9,1.3c-0.6,1-0.7,1.2-2.9,4.6c-0.6-0.5-1.3-0.8-1.9-1.3
				C23.7,163.4,24.7,161.8,25.7,160.4z"/>
			
				<linearGradient id="SVGID_4_" gradientUnits="userSpaceOnUse" x1="22.4179" y1="1550.839" x2="33.34" y2="1550.839" gradientTransform="matrix(1 0 0 -1 0 1710)">
				<stop  offset="0" style="stop-color:#EC1849"/>
				<stop  offset="1" style="stop-color:#C6202C"/>
			</linearGradient>
			<path class="st25" d="M32.6,160.6c0.6,0.6,0.9,1.5,0.5,2.2l0,0c-0.6,0.6-1.5,0.9-2.2,0.5l-7.8-5.5c-0.6-0.6-0.9-1.5-0.5-2.2l0,0
				c0.6-0.6,1.5-0.9,2.2-0.5L32.6,160.6z"/>
		</g>
		
			<linearGradient id="SVGID_5_" gradientUnits="userSpaceOnUse" x1="22.6" y1="1553.489" x2="35.5728" y2="1553.489" gradientTransform="matrix(1 0 0 -1 0 1710)">
			<stop  offset="0" style="stop-color:#EC1849"/>
			<stop  offset="1" style="stop-color:#C6202C"/>
		</linearGradient>
		<polygon class="st26" points="22.6,153.1 23,152.4 35.6,160 35.2,160.7 		"/>
		
			<linearGradient id="SVGID_6_" gradientUnits="userSpaceOnUse" x1="23.929" y1="1553.939" x2="35.4751" y2="1553.939" gradientTransform="matrix(1 0 0 -1 0 1710)">
			<stop  offset="0" style="stop-color:#EC1849"/>
			<stop  offset="1" style="stop-color:#C6202C"/>
		</linearGradient>
		<polygon class="st27" points="24,152.2 24.4,151.6 35.5,160 35,160.6 		"/>
		
			<linearGradient id="SVGID_7_" gradientUnits="userSpaceOnUse" x1="26.0704" y1="1554.1389" x2="35.2891" y2="1554.1389" gradientTransform="matrix(1 0 0 -1 0 1710)">
			<stop  offset="0" style="stop-color:#EC1849"/>
			<stop  offset="1" style="stop-color:#C6202C"/>
		</linearGradient>
		<polygon class="st28" points="26.1,152 26.6,151.4 35.3,159.8 34.7,160.4 		"/>
	</g>
	<g class="st22">
		<g>
			
				<linearGradient id="SVGID_8_" gradientUnits="userSpaceOnUse" x1="371.9438" y1="1625.7311" x2="407.2601" y2="1625.7311" gradientTransform="matrix(1 0 0 -1 0 1710)">
				<stop  offset="0" style="stop-color:#EC1849"/>
				<stop  offset="1" style="stop-color:#C6202C"/>
			</linearGradient>
			<path class="st29" d="M392.1,92c-0.1,0.1-0.2,0.1-0.2,0.2c-0.2,0.6-0.7,0.6-1.2,0.8c-1.1,0.5-2.4,0.8-3.2,1.6
				c-1.5,1.4-3.1,2.5-5,3.4c-3.1,1.4-6,0.2-7.5-2.8c-0.6-1.2-1.3-2.3-2-3.2c-1.6-2.3-1.5-5.2,0.3-7c1-1,2.3-1.7,3.6-2.4
				c1.5-0.9,3.4-1.2,4.7-2.4c0.8-0.7,1.5-1.4,2.8-1.7c0.9-0.2,1.7-0.9,2.5-1.5c1.4-0.8,2.7-1.6,4-2.4c-0.3-0.3-0.6-0.7-1-1.1
				c0.5-0.1,0.8-0.2,1.1,0c0.5,0.2,0.8,0.1,1.2-0.2c1.4-0.9,2.8-1.7,4.2-2.5c1.8-1.1,3.8-1,5.4,0.2c2.8,2.2,4.5,5,5.4,8.4
				c0.5,2.1-0.6,4.4-2.4,5.4c-1.3,0.8-2.5,1.5-3.9,2.3c-0.5,0.2-0.9,0.6-0.8,1.2c0,0.2-0.2,0.6-0.5,1c-0.2-0.6-0.3-1.1-0.6-1.5
				C396.7,89.1,394.4,90.5,392.1,92z M396.1,87.5c1.2-0.5,2.3-0.9,3.4-1.4c0.1,0,0.2-0.1,0.2-0.1c1.5-0.2,1.8-1.4,2-2.8
				c0.2-2.8-0.9-4.9-2.4-6.9c-1.2-1.5-2.8-2.4-4.6-2.8c-0.3-0.1-0.8,0.1-1,0.2c-1.3,1-2.5,2.1-3.8,3.1
				C392.9,80,394.9,83.4,396.1,87.5z M379.5,84c-1.5,0.9-3,1.8-4.4,2.7c-0.2,0.1-0.2,0.5-0.2,0.6c0.2,0.9,0.2,1.9,0.6,2.8
				c0.6,1.7,1.6,3.1,2.8,4.5c0.2,0.2,0.5,0.5,0.7,0.6c0.9,0.7,1.7,1,2.8,0.2c1.1-0.7,2.3-1.4,3.5-2.1
				C382.5,90.7,380.6,87.6,379.5,84z M384.2,95.5c5.4-2.1,10.2-5.5,15.1-8.6C393.9,89,388.7,91.8,384.2,95.5z M391.7,74.4
				c-5,2.9-10.2,5.5-14.7,9.4C382.6,81.4,387.4,78.2,391.7,74.4z M405.8,82.5c0.1,0.1,0.5,0.1,0.6,0c0.5-0.3,0.5-1.4,0.2-2
				C405.8,80.9,405.5,82.1,405.8,82.5z M398.9,70.2c-0.1,0.1-0.2,0.3-0.2,0.5c0.2,0.6,1.5,0.8,2.1,0.3
				C400.3,70.4,399.4,70,398.9,70.2z M379.5,98c-0.2-0.9-1.1-1.4-1.9-1C378,97.9,378.8,98.2,379.5,98z M372.7,86.8
				c-0.6,0.6-0.6,1.5,0,2.2C373.4,88.4,373.3,87.5,372.7,86.8z M375.4,91.4C375.4,91.4,375.3,91.4,375.4,91.4
				c0.4,0.8,0.7,1.5,1.2,2.2l0.1-0.1C376.2,92.8,375.7,92.1,375.4,91.4z"/>
		</g>
		<g>
			<g>
				
					<linearGradient id="SVGID_9_" gradientUnits="userSpaceOnUse" x1="401.0083" y1="1610.989" x2="403.2785" y2="1610.989" gradientTransform="matrix(1 0 0 -1 0 1710)">
					<stop  offset="0" style="stop-color:#EC1849"/>
					<stop  offset="1" style="stop-color:#C6202C"/>
				</linearGradient>
				<path class="st30" d="M403.3,98.8l-0.9-0.8c0,0-0.1,0.1-0.2,0.2c-0.1,0.1-0.2,0.2-0.5,0.3c-0.3,0.2-0.7,0.6-0.7,0.6l0.7,1
					c0,0,0.3-0.2,0.8-0.6c0.2-0.2,0.3-0.3,0.5-0.5C403.1,98.8,403.3,98.8,403.3,98.8z"/>
			</g>
			<g>
				
					<linearGradient id="SVGID_10_" gradientUnits="userSpaceOnUse" x1="391.6841" y1="1609.489" x2="393.8732" y2="1609.489" gradientTransform="matrix(1 0 0 -1 0 1710)">
					<stop  offset="0" style="stop-color:#EC1849"/>
					<stop  offset="1" style="stop-color:#C6202C"/>
				</linearGradient>
				<path class="st31" d="M393.6,101.4l0.2-1.2c0,0-0.5-0.1-0.8-0.2c-0.5-0.1-0.8-0.3-0.8-0.3l-0.6,1.1c0,0,0.5,0.2,0.9,0.3
					C393,101.4,393.6,101.4,393.6,101.4z"/>
				
					<linearGradient id="SVGID_11_" gradientUnits="userSpaceOnUse" x1="395.2516" y1="1608.8889" x2="397.0353" y2="1608.8889" gradientTransform="matrix(1 0 0 -1 0 1710)">
					<stop  offset="0" style="stop-color:#EC1849"/>
					<stop  offset="1" style="stop-color:#C6202C"/>
				</linearGradient>
				<path class="st32" d="M397,101.7l-0.1-1.2c0,0-0.5,0-0.8,0c-0.5,0-0.8,0-0.8,0l-0.1,1.2c0,0,0.5,0,1,0.1
					C396.6,101.8,397,101.7,397,101.7z"/>
				
					<linearGradient id="SVGID_12_" gradientUnits="userSpaceOnUse" x1="398.2516" y1="1609.439" x2="400.4407" y2="1609.439" gradientTransform="matrix(1 0 0 -1 0 1710)">
					<stop  offset="0" style="stop-color:#EC1849"/>
					<stop  offset="1" style="stop-color:#C6202C"/>
				</linearGradient>
				<path class="st33" d="M400.4,100.8l-0.6-1.1c0,0-0.3,0.2-0.8,0.3c-0.2,0.1-0.3,0.2-0.6,0.2s-0.2,0.1-0.2,0.1l0.2,1.2
					c0,0,0.1,0,0.2-0.1c0.2,0,0.5-0.1,0.6-0.2C399.9,101,400.4,100.8,400.4,100.8z"/>
			</g>
			<g>
				
					<linearGradient id="SVGID_13_" gradientUnits="userSpaceOnUse" x1="387.0626" y1="1613.689" x2="388.8463" y2="1613.689" gradientTransform="matrix(1 0 0 -1 0 1710)">
					<stop  offset="0" style="stop-color:#EC1849"/>
					<stop  offset="1" style="stop-color:#C6202C"/>
				</linearGradient>
				<path class="st34" d="M387.9,97.5l1-0.7c0,0-0.1-0.1-0.2-0.2c-0.1-0.2-0.2-0.3-0.2-0.6c-0.1-0.2-0.2-0.3-0.2-0.6
					c-0.1-0.2-0.1-0.2-0.1-0.2l-1.1,0.6c0,0,0.1,0.1,0.1,0.2c0.1,0.2,0.2,0.3,0.2,0.6c0.1,0.2,0.2,0.5,0.3,0.6
					C387.8,97.4,387.9,97.5,387.9,97.5z"/>
				
					<linearGradient id="SVGID_14_" gradientUnits="userSpaceOnUse" x1="388.7651" y1="1611.089" x2="391.0354" y2="1611.089" gradientTransform="matrix(1 0 0 -1 0 1710)">
					<stop  offset="0" style="stop-color:#EC1849"/>
					<stop  offset="1" style="stop-color:#C6202C"/>
				</linearGradient>
				<path class="st35" d="M390.3,100l0.7-1c0,0-0.3-0.2-0.7-0.6c-0.2-0.2-0.2-0.2-0.5-0.3c-0.1-0.1-0.2-0.2-0.2-0.2l-0.9,0.8
					c0,0,0.1,0.1,0.2,0.2c0.1,0.1,0.2,0.2,0.5,0.5C390,99.7,390.3,100,390.3,100z"/>
			</g>
		</g>
		<g>
			<g>
				
					<linearGradient id="SVGID_15_" gradientUnits="userSpaceOnUse" x1="394.1976" y1="1606.239" x2="396.1435" y2="1606.239" gradientTransform="matrix(1 0 0 -1 0 1710)">
					<stop  offset="0" style="stop-color:#EC1849"/>
					<stop  offset="1" style="stop-color:#C6202C"/>
				</linearGradient>
				<path class="st36" d="M396.1,104.4v-1.2c0,0-0.1,0-0.2,0c-0.2,0-0.5,0-0.6,0c-0.2,0-0.5,0-0.6-0.1c-0.2,0-0.2,0-0.2,0l-0.2,1.2
					c0,0,0.1,0,0.3,0.1c0.2,0,0.5,0.1,0.7,0.1s0.6,0,0.7,0C396,104.4,396.1,104.4,396.1,104.4z"/>
				
					<linearGradient id="SVGID_16_" gradientUnits="userSpaceOnUse" x1="397.7651" y1="1606.689" x2="399.8732" y2="1606.689" gradientTransform="matrix(1 0 0 -1 0 1710)">
					<stop  offset="0" style="stop-color:#EC1849"/>
					<stop  offset="1" style="stop-color:#C6202C"/>
				</linearGradient>
				<path class="st37" d="M399.8,103.7l-0.3-1.2c0,0-0.1,0-0.2,0.1c-0.2,0-0.3,0.1-0.6,0.2c-0.2,0.1-0.5,0.1-0.6,0.1
					s-0.2,0.1-0.2,0.1l0.2,1.2c0,0,0.1,0,0.3-0.1c0.2,0,0.5-0.1,0.7-0.1C399.3,103.9,399.7,103.9,399.8,103.7
					C399.8,103.8,399.8,103.7,399.8,103.7z"/>
				
					<linearGradient id="SVGID_17_" gradientUnits="userSpaceOnUse" x1="400.9272" y1="1607.989" x2="403.2785" y2="1607.989" gradientTransform="matrix(1 0 0 -1 0 1710)">
					<stop  offset="0" style="stop-color:#EC1849"/>
					<stop  offset="1" style="stop-color:#C6202C"/>
				</linearGradient>
				<path class="st38" d="M403.3,102.1l-0.7-1c0,0-0.1,0.1-0.2,0.2c-0.2,0.1-0.3,0.2-0.6,0.3c-0.2,0.1-0.5,0.2-0.6,0.2
					c-0.2,0.1-0.2,0.1-0.2,0.1l0.6,1.1c0,0,0.1-0.1,0.2-0.2c0.2-0.1,0.5-0.2,0.6-0.3c0.2-0.1,0.5-0.2,0.6-0.3
					C403.1,102.2,403.3,102.1,403.3,102.1z"/>
			</g>
			<g>
				
					<linearGradient id="SVGID_18_" gradientUnits="userSpaceOnUse" x1="385.0355" y1="1611.439" x2="387.1436" y2="1611.439" gradientTransform="matrix(1 0 0 -1 0 1710)">
					<stop  offset="0" style="stop-color:#EC1849"/>
					<stop  offset="1" style="stop-color:#C6202C"/>
				</linearGradient>
				<path class="st39" d="M386.2,99.7l0.9-0.7c0,0-0.2-0.3-0.6-0.7c-0.2-0.3-0.5-0.8-0.5-0.8l-1.1,0.6c0,0,0.2,0.5,0.6,0.9
					C385.9,99.2,386.2,99.7,386.2,99.7z"/>
				
					<linearGradient id="SVGID_19_" gradientUnits="userSpaceOnUse" x1="387.3868" y1="1608.939" x2="389.6571" y2="1608.939" gradientTransform="matrix(1 0 0 -1 0 1710)">
					<stop  offset="0" style="stop-color:#EC1849"/>
					<stop  offset="1" style="stop-color:#C6202C"/>
				</linearGradient>
				<path class="st40" d="M389,102.2l0.6-1c0,0-0.1-0.1-0.2-0.2c-0.2-0.1-0.3-0.2-0.6-0.3c-0.2-0.1-0.3-0.2-0.5-0.5
					c-0.1-0.1-0.2-0.2-0.2-0.2l-0.8,0.9c0,0,0.1,0.1,0.2,0.2c0.2,0.1,0.3,0.3,0.6,0.5c0.2,0.2,0.5,0.2,0.6,0.5
					C388.9,102.2,389,102.2,389,102.2z"/>
				
					<linearGradient id="SVGID_20_" gradientUnits="userSpaceOnUse" x1="390.3868" y1="1607.1389" x2="392.7382" y2="1607.1389" gradientTransform="matrix(1 0 0 -1 0 1710)">
					<stop  offset="0" style="stop-color:#EC1849"/>
					<stop  offset="1" style="stop-color:#C6202C"/>
				</linearGradient>
				<path class="st41" d="M392.4,103.8l0.3-1.2c0,0-0.1,0-0.2-0.1s-0.3-0.2-0.6-0.2c-0.2-0.1-0.5-0.2-0.6-0.2
					c-0.2-0.1-0.2-0.1-0.2-0.1l-0.6,1.1c0,0,0.1,0.1,0.2,0.2c0.2,0.1,0.5,0.2,0.6,0.2c0.2,0.1,0.5,0.2,0.6,0.2
					C392.3,103.8,392.4,103.8,392.4,103.8z"/>
			</g>
		</g>
	</g>
	<g class="st22">
		<g>
			<g>
				
					<linearGradient id="SVGID_21_" gradientUnits="userSpaceOnUse" x1="577.1545" y1="1536.839" x2="616.8545" y2="1536.839" gradientTransform="matrix(1 0 0 -1 0 1710)">
					<stop  offset="0" style="stop-color:#EC1849"/>
					<stop  offset="1" style="stop-color:#C6202C"/>
				</linearGradient>
				<path class="st42" d="M601.4,187.6c-2.8-2-5.7-4-8.4-6c0.2-0.5,0.6-0.9,0.8-1.4c-1.2-0.9-2.4-1.7-3.6-2.5
					c-0.2-0.1-0.5-0.2-0.7-0.2c-1.5,0-2.8-0.5-3.7-1.5c-2-2.1-4-4.3-5.9-6.4c-0.9-1-1.7-2.1-2.7-3.2c1.6-1,3.1-2.2,5-2.4
					c0.5-0.1,1,0.1,1.4,0.3c1,0.6,1.9,1.2,2.8,2c1.7,1.5,3.6,2.3,5.9,2.5c2.2,0.2,4.3,0.5,6.5,0.8c0.6,0.1,1.2,0.5,1.8,0.6
					c0.2,0.1,0.6,0.2,0.7,0.1c0.2-0.1,0.2-0.6,0.1-0.7c-0.2-0.6-0.5-1.3-0.7-2c3-2.9,6.1-5.9,9-8.8c2.4,3.1,4.9,6.2,7.2,9.3
					c-2.1,3-4.2,5.9-6.2,8.9c-0.6-0.2-1.3-0.6-1.8-0.8c-0.6-0.2-1.2,0.2-1.2,0.7c0,0.1,0,0.2,0,0.2c0.6,1.6,0,2.9-1.2,4.2
					c-1.6,1.7-3.1,3.6-4.5,5.5C601.6,187.3,601.6,187.4,601.4,187.6z"/>
			</g>
			
				<linearGradient id="SVGID_22_" gradientUnits="userSpaceOnUse" x1="575.9552" y1="1526.2889" x2="581.2255" y2="1526.2889" gradientTransform="matrix(1 0 0 -1 0 1710)">
				<stop  offset="0" style="stop-color:#EC1849"/>
				<stop  offset="1" style="stop-color:#C6202C"/>
			</linearGradient>
			<path class="st43" d="M579.1,180.6c0.7,0.5,1.4,0.9,2.1,1.4c-0.7,1.1-0.8,1.3-3.2,4.9c-0.7-0.5-1.4-0.9-2.1-1.4
				C577,183.9,578,182.3,579.1,180.6z"/>
			
				<linearGradient id="SVGID_23_" gradientUnits="userSpaceOnUse" x1="575.533" y1="1530.589" x2="587.0803" y2="1530.589" gradientTransform="matrix(1 0 0 -1 0 1710)">
				<stop  offset="0" style="stop-color:#EC1849"/>
				<stop  offset="1" style="stop-color:#C6202C"/>
			</linearGradient>
			<path class="st44" d="M586.4,181c0.7,0.6,0.9,1.5,0.3,2.4l0,0c-0.6,0.7-1.5,0.9-2.4,0.3l-8.2-5.8c-0.7-0.6-0.9-1.5-0.3-2.4l0,0
				c0.6-0.7,1.5-0.9,2.4-0.3L586.4,181z"/>
		</g>
		
			<linearGradient id="SVGID_24_" gradientUnits="userSpaceOnUse" x1="575.8573" y1="1533.339" x2="589.4788" y2="1533.339" gradientTransform="matrix(1 0 0 -1 0 1710)">
			<stop  offset="0" style="stop-color:#EC1849"/>
			<stop  offset="1" style="stop-color:#C6202C"/>
		</linearGradient>
		<polygon class="st45" points="575.9,173 576.3,172.4 589.5,180.4 589.2,181 		"/>
		
			<linearGradient id="SVGID_25_" gradientUnits="userSpaceOnUse" x1="577.2" y1="1533.839" x2="589.2561" y2="1533.839" gradientTransform="matrix(1 0 0 -1 0 1710)">
			<stop  offset="0" style="stop-color:#EC1849"/>
			<stop  offset="1" style="stop-color:#C6202C"/>
		</linearGradient>
		<polygon class="st46" points="577.2,172 577.6,171.5 589.2,180.3 588.8,180.9 		"/>
		
			<linearGradient id="SVGID_26_" gradientUnits="userSpaceOnUse" x1="579.4675" y1="1534.1389" x2="589.1071" y2="1534.1389" gradientTransform="matrix(1 0 0 -1 0 1710)">
			<stop  offset="0" style="stop-color:#EC1849"/>
			<stop  offset="1" style="stop-color:#C6202C"/>
		</linearGradient>
		<polygon class="st47" points="579.5,171.8 580,171.3 589.1,180.1 588.6,180.5 		"/>
	</g>
	<g id="_01-steer" class="st22">
		
			<linearGradient id="SVGID_27_" gradientUnits="userSpaceOnUse" x1="660.2529" y1="1595.0389" x2="689.9282" y2="1595.0389" gradientTransform="matrix(1 0 0 -1 0 1710)">
			<stop  offset="0" style="stop-color:#EC1849"/>
			<stop  offset="1" style="stop-color:#C6202C"/>
		</linearGradient>
		<path class="st48" d="M675,100.2c-8.2,0-14.8,6.6-14.8,14.8s6.6,14.8,14.8,14.8s14.8-6.6,14.8-14.8S683.3,100.2,675,100.2z
			 M664.7,118.6c2.2-0.5,4.5-0.8,6.7-0.9c0,0,0.7,2.8,1.1,8.1C668.8,124.7,665.9,122.1,664.7,118.6L664.7,118.6z M675,117.4
			c-0.7,0-1.3-0.6-1.3-1.3s0.6-1.3,1.3-1.3s1.3,0.6,1.3,1.3C676.4,117,675.7,117.4,675,117.4z M677.7,125.6c0.3-5.3,1.1-8.1,1.1-8.1
			c2.3,0.2,4.5,0.5,6.7,0.9C684.4,122.1,681.4,124.7,677.7,125.6L677.7,125.6z M675,112.6c-3.7,0-7.5,0.6-11,2
			c0.2-6.1,5.4-10.7,11.4-10.5c5.8,0.2,10.3,4.9,10.5,10.5C682.6,113.3,678.9,112.6,675,112.6z"/>
	</g>
	<g>
		
			<linearGradient id="SVGID_28_" gradientUnits="userSpaceOnUse" x1="221.4" y1="1135.089" x2="252.7031" y2="1135.089" gradientTransform="matrix(1 0 0 -1 0 1236)">
			<stop  offset="0" style="stop-color:#EC1849"/>
			<stop  offset="1" style="stop-color:#C6202C"/>
		</linearGradient>
		<path class="st49" d="M252.7,103.9L252.7,103.9L252.7,103.9v0.8c0,0.2,0,0.4,0,0.6s0,0.4,0,0.6c0,0.4-0.1,0.8-0.1,1.1
			c0,0.1,0,0.1,0,0.2c0,0.3-0.1,0.5-0.2,0.8c-0.1,0.4-0.2,0.7-0.3,1.1c0,0.2-0.1,0.3-0.1,0.4s-0.1,0.2-0.1,0.3
			c0,0.2-0.1,0.3-0.1,0.4c-0.1,0.1-0.1,0.3-0.2,0.4c-0.1,0.2-0.2,0.5-0.3,0.7c-0.4,0.8-0.7,1.4-1,1.9H224c-0.3-0.4-0.6-1-1-1.8
			c-0.1-0.2-0.2-0.5-0.3-0.7c-0.1-0.1-0.1-0.3-0.2-0.4c0-0.1-0.1-0.3-0.2-0.4c0-0.1-0.1-0.2-0.1-0.3c0-0.1,0-0.1-0.1-0.2
			c-0.1-0.4-0.3-0.8-0.4-1.3c0-0.2-0.1-0.4-0.1-0.6s0-0.3-0.1-0.5c-0.2-1-0.3-2.2-0.2-3.4c0-0.2,0-0.4,0-0.6s0-0.4,0.1-0.6
			c0-0.1,0-0.1,0-0.2s0-0.3,0.1-0.4c0-0.1,0-0.2,0-0.2c0-0.1,0-0.3,0.1-0.4c0.1-0.4,0.2-0.9,0.4-1.4c0-0.1,0-0.1,0.1-0.2
			c0.1-0.4,0.2-0.7,0.4-1.1c0.1-0.3,0.2-0.5,0.4-0.8c0.1-0.2,0.2-0.4,0.3-0.5c0.3-0.5,0.6-1,0.9-1.5l0.1-0.1
			c0.3-0.5,0.7-0.9,1.1-1.4c0.1-0.1,0.2-0.3,0.4-0.4c0-0.1,0.1-0.1,0.1-0.2c0.3-0.3,0.6-0.6,1-0.9l0.1-0.1c0.4-0.3,0.8-0.7,1.3-1
			c0,0,0.1-0.1,0.2-0.1c0.1-0.1,0.3-0.2,0.5-0.3c0.5-0.3,0.9-0.6,1.4-0.8c0,0,0.1,0,0.1-0.1c0.2-0.1,0.4-0.2,0.6-0.3
			c0.3-0.1,0.6-0.3,1-0.4c0.2-0.1,0.3-0.1,0.5-0.2c0.5-0.2,1-0.3,1.5-0.4c0,0,0.1,0,0.2,0c1-0.2,2.1-0.3,3.1-0.3
			c0.9,0,1.8,0.1,2.7,0.2h0.1c0.1,0,0.3,0,0.4,0.1c0.5,0.1,1,0.2,1.5,0.4h0.1c0.4,0.1,0.9,0.3,1.3,0.5l0.4,0.1l0,0
			c0.1,0.1,0.2,0.1,0.4,0.2l0.1,0.1l0.2,0.1l0.3,0.2c0.1,0.1,0.2,0.1,0.3,0.2s0.2,0.1,0.3,0.2c0.1,0,0.1,0.1,0.1,0.1s0.1,0,0.1,0.1
			c0,0,0,0,0.1,0c0.1,0.1,0.2,0.1,0.3,0.2c0.3,0.2,0.7,0.5,1,0.7c0.1,0.1,0.3,0.2,0.4,0.4c0.3,0.3,0.6,0.6,0.9,0.9
			c0.1,0,0.1,0.1,0.1,0.2l0.1,0.1c0.4,0.5,0.8,0.9,1.1,1.4c0.1,0.2,0.2,0.3,0.3,0.5c0.3,0.5,0.6,1,0.9,1.5c0,0,0.1,0.1,0.1,0.2
			c0.2,0.4,0.4,0.7,0.5,1.1c0.1,0.2,0.2,0.4,0.2,0.6c0.1,0.2,0.1,0.4,0.2,0.6c0.2,0.5,0.3,0.9,0.4,1.4c0,0.1,0,0.2,0.1,0.3
			c0,0.1,0,0.1,0,0.2c0.1,0.7,0.2,1.4,0.2,2c0,0.1,0,0.2,0,0.2L252.7,103.9L252.7,103.9z"/>
		<g>
			<g>
				<path class="st10" d="M223.6,102.4c-0.7-0.1-1.3-0.2-2-0.3c0-0.2,0.1-0.5,0.1-0.7c0.7,0.1,1.3,0.3,2,0.4
					C223.6,102,223.6,102.2,223.6,102.4z"/>
				<path class="st10" d="M224.8,97.9c-0.1,0.2-0.2,0.3-0.2,0.5c-0.6-0.3-1.1-0.5-1.7-0.8c0.1-0.2,0.2-0.4,0.3-0.5
					C223.7,97.3,224.3,97.6,224.8,97.9z"/>
				<path class="st10" d="M223,99.9c-0.3-0.1-0.6-0.2-1-0.3c0-0.1,0-0.1,0-0.2c0.3,0.1,0.6,0.2,1,0.3C223,99.8,223,99.8,223,99.9z"
					/>
				<path class="st10" d="M223,104.4c-0.5,0-1.1,0-1.6,0c0-0.1,0-0.1,0-0.2c0.5,0,1.1,0,1.6,0C223,104.3,223,104.4,223,104.4z"/>
				<path class="st10" d="M226.9,94.9c-0.1,0.1-0.2,0.2-0.3,0.4c-0.5-0.4-0.9-0.8-1.4-1.2c0.1-0.1,0.2-0.3,0.4-0.4
					C226,94,226.5,94.4,226.9,94.9z"/>
				<path class="st10" d="M229.7,92.6c-0.1,0.1-0.3,0.2-0.4,0.3c-0.4-0.5-0.7-1-1.1-1.6c0.1-0.1,0.3-0.2,0.5-0.3L229.7,92.6z"/>
				<path class="st10" d="M227.3,93.1l-0.1,0.1c-0.2-0.2-0.4-0.4-0.5-0.6l0.1-0.1C227,92.6,227.2,92.8,227.3,93.1z"/>
				<path class="st10" d="M224.8,95.9c0,0,0,0.1-0.1,0.1c-0.2-0.2-0.4-0.3-0.7-0.5l0.1-0.1C224.4,95.6,224.6,95.7,224.8,95.9z"/>
				<path class="st10" d="M232.5,91.4c-0.2-0.6-0.5-1.3-0.7-1.9c0.2-0.1,0.4-0.1,0.5-0.2c0.2,0.6,0.4,1.3,0.6,1.9
					C232.8,91.3,232.6,91.3,232.5,91.4z"/>
				<path class="st10" d="M235.9,90.7c-0.1-0.7-0.1-1.3-0.2-2c0.2,0,0.4,0,0.6,0c0,0.7,0.1,1.4,0.1,2
					C236.2,90.7,236.1,90.7,235.9,90.7z"/>
				<path class="st10" d="M234,89.9c-0.1-0.3-0.1-0.7-0.2-1c0,0,0.1,0,0.2,0c0.1,0.3,0.1,0.7,0.2,1C234.1,89.9,234.1,89.9,234,89.9z
					"/>
				<path class="st10" d="M230.5,91.1c-0.2-0.3-0.3-0.6-0.5-0.9c0,0,0.1,0,0.1-0.1C230.3,90.4,230.4,90.7,230.5,91.1
					C230.6,91,230.5,91,230.5,91.1z"/>
				<path class="st10" d="M239.5,90.8c0.1-0.7,0.2-1.3,0.3-2c0.2,0,0.4,0.1,0.6,0.1c-0.1,0.7-0.3,1.3-0.4,2
					C239.8,90.9,239.6,90.9,239.5,90.8z"/>
				<path class="st10" d="M244.1,90.3c-0.3,0.6-0.6,1.1-0.8,1.7c-0.1-0.1-0.3-0.1-0.4-0.2c0.3-0.6,0.5-1.2,0.8-1.8l0,0
					C243.8,90.1,243.9,90.1,244.1,90.3L244.1,90.3z"/>
				<path class="st10" d="M241.5,90.2c0.1-0.3,0.2-0.7,0.3-1h0.1c-0.1,0.3-0.2,0.6-0.3,1C241.6,90.3,241.6,90.3,241.5,90.2z"/>
				<path class="st10" d="M237.9,89.6c0-0.3,0-0.7,0.1-1h0.1c0,0.3,0,0.7-0.1,1C238,89.7,237.9,89.7,237.9,89.6z"/>
				<path class="st10" d="M247.4,92.5c-0.4,0.4-0.8,0.9-1.2,1.3c-0.1-0.1-0.2-0.2-0.4-0.3c0.4-0.5,0.7-0.9,1.1-1.4
					C247.1,92.3,247.3,92.4,247.4,92.5z"/>
				<path class="st10" d="M250.1,95.6c-0.5,0.3-1,0.6-1.4,1c-0.1-0.1-0.2-0.3-0.3-0.4c0.5-0.3,0.9-0.7,1.4-1
					C249.9,95.3,250,95.4,250.1,95.6z"/>
				<path class="st10" d="M248.6,93.7l-0.5,0.5l-0.1-0.1c0.2-0.2,0.3-0.3,0.5-0.5L248.6,93.7z"/>
				<path class="st10" d="M245.7,91.2c-0.2,0.2-0.3,0.4-0.4,0.7c0,0-0.1,0-0.1-0.1c0.1-0.2,0.3-0.5,0.4-0.7
					C245.6,91.1,245.6,91.1,245.7,91.2z"/>
				<path class="st10" d="M252,99.5c-0.6,0.2-1.1,0.4-1.7,0.6c-0.1-0.2-0.1-0.4-0.2-0.5c0.6-0.2,1.1-0.4,1.7-0.6
					C251.8,99.1,251.9,99.3,252,99.5z"/>
				<path class="st10" d="M252.7,103.9L252.7,103.9L252.7,103.9v0.6h-1.9c0-0.2,0-0.4,0-0.6C251.4,103.9,252.1,103.8,252.7,103.9
					L252.7,103.9L252.7,103.9z"/>
				<path class="st10" d="M252.4,101.5c-0.3,0.1-0.5,0.1-0.8,0.2c0-0.1,0-0.1,0-0.2c0.3-0.1,0.5-0.1,0.8-0.2
					C252.4,101.3,252.4,101.4,252.4,101.5z"/>
				<path class="st10" d="M251,97.2c-0.2,0.1-0.4,0.2-0.6,0.3c0-0.1,0-0.1-0.1-0.1c0.2-0.1,0.4-0.2,0.6-0.3
					C251,97.1,251,97.2,251,97.2z"/>
			</g>
			<path class="st10" d="M223.5,107l-1.9,0.4c0-0.2,0-0.3-0.1-0.5l1.8-0.4L223.5,107z"/>
			<path class="st10" d="M223.5,109.1l-1.3,0.3c0-0.1,0-0.1-0.1-0.2l1.3-0.3L223.5,109.1z"/>
			<path class="st10" d="M252,109c0,0.2-0.1,0.3-0.1,0.4l-1.7-0.4l0.1-0.5L252,109z"/>
			
				<rect x="251.6" y="106" transform="matrix(0.2481 -0.9687 0.9687 0.2481 85.7296 324.1213)" class="st10" width="0.2" height="1.6"/>
		</g>
		<path class="st10" d="M249.6,106.2l-10.8-1.4c-0.5,0.8-1.5,1.2-2.4,1c-0.7-0.2-1.2-0.8-1.4-1.5l-1.6-0.2l0.3-1.7l1.5,0.3
			c0.5-0.8,1.5-1.3,2.4-1s1.5,1.1,1.5,1.9L249.6,106.2z"/>
	</g>
	<g>
		
			<linearGradient id="SVGID_29_" gradientUnits="userSpaceOnUse" x1="485.4" y1="1133.089" x2="516.7031" y2="1133.089" gradientTransform="matrix(1 0 0 -1 0 1236)">
			<stop  offset="0" style="stop-color:#EC1849"/>
			<stop  offset="1" style="stop-color:#C6202C"/>
		</linearGradient>
		<path class="st50" d="M516.7,105.9L516.7,105.9L516.7,105.9v0.8c0,0.2,0,0.4,0,0.6s0,0.4,0,0.6c0,0.4-0.1,0.8-0.1,1.1
			c0,0.1,0,0.1,0,0.2c0,0.3-0.1,0.5-0.2,0.8c-0.1,0.4-0.2,0.7-0.3,1.1c0,0.2-0.1,0.3-0.1,0.4s-0.1,0.2-0.1,0.3
			c0,0.2-0.1,0.3-0.1,0.4c-0.1,0.1-0.1,0.3-0.2,0.4c-0.1,0.2-0.2,0.5-0.3,0.7c-0.4,0.8-0.7,1.4-1,1.9H488c-0.3-0.4-0.6-1-1-1.8
			c-0.1-0.2-0.2-0.5-0.3-0.7c-0.1-0.1-0.1-0.3-0.2-0.4c0-0.1-0.1-0.3-0.2-0.4c0-0.1-0.1-0.2-0.1-0.3c0-0.1,0-0.1-0.1-0.2
			c-0.1-0.4-0.3-0.8-0.4-1.3c0-0.2-0.1-0.4-0.1-0.6s0-0.3-0.1-0.5c-0.2-1-0.3-2.2-0.2-3.4c0-0.2,0-0.4,0-0.6s0-0.4,0.1-0.6
			c0-0.1,0-0.1,0-0.2s0-0.3,0.1-0.4c0-0.1,0-0.2,0-0.2c0-0.1,0-0.3,0.1-0.4c0.1-0.4,0.2-0.9,0.4-1.4c0-0.1,0-0.1,0.1-0.2
			c0.1-0.4,0.2-0.7,0.4-1.1c0.1-0.3,0.2-0.5,0.4-0.8c0.1-0.2,0.2-0.4,0.3-0.5c0.3-0.5,0.6-1,0.9-1.5l0.1-0.1
			c0.3-0.5,0.7-0.9,1.1-1.4c0.1-0.1,0.2-0.3,0.4-0.4c0-0.1,0.1-0.1,0.1-0.2c0.3-0.3,0.6-0.6,1-0.9l0.1-0.1c0.4-0.3,0.8-0.7,1.3-1
			c0,0,0.1-0.1,0.2-0.1c0.1-0.1,0.3-0.2,0.5-0.3c0.5-0.3,0.9-0.6,1.4-0.8c0,0,0.1,0,0.1-0.1c0.2-0.1,0.4-0.2,0.6-0.3
			c0.3-0.1,0.6-0.3,1-0.4c0.2-0.1,0.3-0.1,0.5-0.2c0.5-0.2,1-0.3,1.5-0.4c0,0,0.1,0,0.2,0c1-0.2,2.1-0.3,3.1-0.3
			c0.9,0,1.8,0.1,2.7,0.2h0.1c0.1,0,0.3,0,0.4,0.1c0.5,0.1,1,0.2,1.5,0.4h0.1c0.4,0.1,0.9,0.3,1.3,0.5l0.4,0.1l0,0
			c0.1,0.1,0.2,0.1,0.4,0.2l0.1,0.1l0.2,0.1l0.3,0.2c0.1,0.1,0.2,0.1,0.3,0.2c0.1,0.1,0.2,0.1,0.3,0.2c0.1,0,0.1,0.1,0.1,0.1
			s0.1,0,0.1,0.1c0,0,0,0,0.1,0c0.1,0.1,0.2,0.1,0.3,0.2c0.3,0.2,0.7,0.5,1,0.7c0.1,0.1,0.3,0.2,0.4,0.4c0.3,0.3,0.6,0.6,0.9,0.9
			c0.1,0,0.1,0.1,0.1,0.2l0.1,0.1c0.4,0.5,0.8,0.9,1.1,1.4c0.1,0.2,0.2,0.3,0.3,0.5c0.3,0.5,0.6,1,0.9,1.5c0,0,0.1,0.1,0.1,0.2
			c0.2,0.4,0.4,0.7,0.5,1.1c0.1,0.2,0.2,0.4,0.2,0.6c0.1,0.2,0.1,0.4,0.2,0.6c0.2,0.5,0.3,0.9,0.4,1.4c0,0.1,0,0.2,0.1,0.3
			c0,0.1,0,0.1,0,0.2c0.1,0.7,0.2,1.4,0.2,2c0,0.1,0,0.2,0,0.2L516.7,105.9L516.7,105.9z"/>
		<g>
			<g>
				<path class="st10" d="M487.6,104.4c-0.7-0.1-1.3-0.2-2-0.3c0-0.2,0.1-0.5,0.1-0.7c0.7,0.1,1.3,0.3,2,0.4
					C487.6,104,487.6,104.2,487.6,104.4z"/>
				<path class="st10" d="M488.8,99.9c-0.1,0.2-0.2,0.3-0.2,0.5c-0.6-0.3-1.1-0.5-1.7-0.8c0.1-0.2,0.2-0.4,0.3-0.5
					C487.7,99.3,488.3,99.6,488.8,99.9z"/>
				<path class="st10" d="M487,101.9c-0.3-0.1-0.6-0.2-1-0.3c0-0.1,0-0.1,0-0.2c0.3,0.1,0.6,0.2,1,0.3
					C487,101.8,487,101.8,487,101.9z"/>
				<path class="st10" d="M487,106.4c-0.5,0-1.1,0-1.6,0c0-0.1,0-0.1,0-0.2c0.5,0,1.1,0,1.6,0C487,106.3,487,106.4,487,106.4z"/>
				<path class="st10" d="M490.9,96.9c-0.1,0.1-0.2,0.2-0.3,0.4c-0.5-0.4-0.9-0.8-1.4-1.2c0.1-0.1,0.2-0.3,0.4-0.4
					C490,96,490.5,96.4,490.9,96.9z"/>
				<path class="st10" d="M493.7,94.6c-0.1,0.1-0.3,0.2-0.4,0.3c-0.4-0.5-0.7-1-1.1-1.6c0.1-0.1,0.3-0.2,0.5-0.3L493.7,94.6z"/>
				<path class="st10" d="M491.3,95.1l-0.1,0.1c-0.2-0.2-0.4-0.4-0.5-0.6l0.1-0.1C491,94.6,491.2,94.8,491.3,95.1z"/>
				<path class="st10" d="M488.8,97.9c0,0,0,0.1-0.1,0.1c-0.2-0.2-0.4-0.3-0.7-0.5l0.1-0.1C488.4,97.6,488.6,97.7,488.8,97.9z"/>
				<path class="st10" d="M496.5,93.4c-0.2-0.6-0.5-1.3-0.7-1.9c0.2-0.1,0.4-0.1,0.5-0.2c0.2,0.6,0.4,1.3,0.6,1.9
					C496.8,93.3,496.6,93.3,496.5,93.4z"/>
				<path class="st10" d="M499.9,92.7c-0.1-0.7-0.1-1.3-0.2-2c0.2,0,0.4,0,0.6,0c0,0.7,0.1,1.4,0.1,2
					C500.2,92.7,500.1,92.7,499.9,92.7z"/>
				<path class="st10" d="M498,91.9c-0.1-0.3-0.1-0.7-0.2-1c0,0,0.1,0,0.2,0c0.1,0.3,0.1,0.7,0.2,1C498.1,91.9,498.1,91.9,498,91.9z
					"/>
				<path class="st10" d="M494.5,93.1c-0.2-0.3-0.3-0.6-0.5-0.9c0,0,0.1,0,0.1-0.1C494.3,92.4,494.4,92.7,494.5,93.1
					C494.6,93,494.5,93,494.5,93.1z"/>
				<path class="st10" d="M503.5,92.8c0.1-0.7,0.2-1.3,0.3-2c0.2,0,0.4,0.1,0.6,0.1c-0.1,0.7-0.3,1.3-0.4,2
					C503.8,92.9,503.6,92.9,503.5,92.8z"/>
				<path class="st10" d="M508.1,92.3c-0.3,0.6-0.6,1.1-0.8,1.7c-0.1-0.1-0.3-0.1-0.4-0.2c0.3-0.6,0.5-1.2,0.8-1.8l0,0
					C507.8,92.1,507.9,92.1,508.1,92.3L508.1,92.3z"/>
				<path class="st10" d="M505.5,92.2c0.1-0.3,0.2-0.7,0.3-1h0.1C505.8,91.5,505.7,91.8,505.5,92.2
					C505.6,92.3,505.6,92.3,505.5,92.2z"/>
				<path class="st10" d="M501.9,91.6c0-0.3,0-0.7,0.1-1h0.1C502.1,90.9,502.1,91.3,501.9,91.6C502,91.7,501.9,91.7,501.9,91.6z"/>
				<path class="st10" d="M511.4,94.5c-0.4,0.4-0.8,0.9-1.2,1.3c-0.1-0.1-0.2-0.2-0.4-0.3c0.4-0.5,0.7-0.9,1.1-1.4
					C511.1,94.3,511.3,94.4,511.4,94.5z"/>
				<path class="st10" d="M514.1,97.6c-0.5,0.3-1,0.6-1.4,1c-0.1-0.1-0.2-0.3-0.3-0.4c0.5-0.3,0.9-0.7,1.4-1
					C513.9,97.3,514,97.4,514.1,97.6z"/>
				<path class="st10" d="M512.6,95.7l-0.5,0.5l-0.1-0.1C512.2,95.9,512.3,95.8,512.6,95.7L512.6,95.7z"/>
				<path class="st10" d="M509.7,93.2c-0.2,0.2-0.3,0.4-0.4,0.7c0,0-0.1,0-0.1-0.1C509.3,93.6,509.5,93.3,509.7,93.2
					C509.6,93.1,509.6,93.1,509.7,93.2z"/>
				<path class="st10" d="M516,101.5c-0.6,0.2-1.1,0.4-1.7,0.6c-0.1-0.2-0.1-0.4-0.2-0.5c0.6-0.2,1.1-0.4,1.7-0.6
					C515.8,101.1,515.9,101.3,516,101.5z"/>
				<path class="st10" d="M516.7,105.9L516.7,105.9L516.7,105.9v0.6h-1.9c0-0.2,0-0.4,0-0.6C515.4,105.9,516.1,105.8,516.7,105.9
					L516.7,105.9L516.7,105.9z"/>
				<path class="st10" d="M516.4,103.5c-0.3,0.1-0.5,0.1-0.8,0.2c0-0.1,0-0.1,0-0.2c0.3-0.1,0.5-0.1,0.8-0.2
					C516.4,103.3,516.4,103.4,516.4,103.5z"/>
				<path class="st10" d="M515,99.2c-0.2,0.1-0.4,0.2-0.6,0.3c0-0.1,0-0.1-0.1-0.1C514.5,99.3,514.7,99.2,515,99.2
					C515,99.1,515,99.2,515,99.2z"/>
			</g>
			<path class="st10" d="M487.5,109l-1.9,0.4c0-0.2,0-0.3-0.1-0.5l1.8-0.4L487.5,109z"/>
			<path class="st10" d="M487.5,111.1l-1.3,0.3c0-0.1,0-0.1-0.1-0.2l1.3-0.3L487.5,111.1z"/>
			<path class="st10" d="M516,111c0,0.2-0.1,0.3-0.1,0.4l-1.7-0.4l0.1-0.5L516,111z"/>
			
				<rect x="515.5" y="108.1" transform="matrix(0.2481 -0.9687 0.9687 0.2481 282.1952 581.3873)" class="st10" width="0.2" height="1.6"/>
		</g>
		<path class="st10" d="M513.6,108.2l-10.8-1.4c-0.5,0.8-1.5,1.2-2.4,1c-0.7-0.2-1.2-0.8-1.4-1.5l-1.6-0.2l0.3-1.7l1.5,0.3
			c0.5-0.8,1.5-1.3,2.4-1s1.5,1.1,1.5,1.9L513.6,108.2z"/>
	</g>
</g>
</svg>
