<svg width="1366" height="664" viewBox="0 0 1366 664" fill="none" xmlns="http://www.w3.org/2000/svg">
<path opacity="0.6" d="M431.403 582.045C430.225 575.698 424.011 571.496 417.581 572.669C411.995 573.684 407.91 578.565 407.902 584.704C407.924 586.696 408.64 588.95 410.082 590.969C413.004 595.061 415.939 599.151 418.871 603.242C419.381 603.954 420.128 603.954 420.638 603.247C423.569 599.154 426.512 595.072 429.424 590.971C431.337 588.275 432.004 585.281 431.403 582.045ZM419.761 591.11C415.852 591.11 412.685 587.975 412.685 584.104C412.685 580.236 415.852 577.098 419.761 577.098C423.668 577.098 426.837 580.236 426.837 584.104C426.837 587.975 423.669 591.11 419.761 591.11Z" fill="#72C2FF"/>
<g opacity="0.3">
<path fill-rule="evenodd" clip-rule="evenodd" d="M429.036 650.78C425.718 650.78 423.018 653.48 423.018 656.797C423.018 660.117 425.718 662.816 429.036 662.816C432.356 662.816 435.056 660.116 435.056 656.797C435.056 653.48 432.356 650.78 429.036 650.78ZM429.036 663.356C425.42 663.356 422.478 660.414 422.478 656.797C422.478 653.182 425.42 650.24 429.036 650.24C432.653 650.24 435.595 653.181 435.595 656.797C435.595 660.414 432.653 663.356 429.036 663.356ZM371.833 650.78C368.514 650.78 365.816 653.48 365.816 656.797C365.816 660.117 368.514 662.816 371.833 662.816C375.151 662.816 377.852 660.116 377.852 656.797C377.852 653.48 375.151 650.78 371.833 650.78ZM371.833 663.356C368.218 663.356 365.276 660.414 365.276 656.797C365.276 653.182 368.217 650.24 371.833 650.24C375.45 650.24 378.391 653.181 378.391 656.797C378.391 660.414 375.45 663.356 371.833 663.356Z" fill="black"/>
<path fill-rule="evenodd" clip-rule="evenodd" d="M380.663 653.18H404.371C404.889 653.18 405.313 652.757 405.313 652.238V610.761C405.313 610.241 404.889 609.818 404.371 609.818H349.214C348.694 609.818 348.271 610.241 348.271 610.761V652.238C348.271 652.757 348.694 653.18 349.214 653.18H362.996C364.138 649.275 367.74 646.564 371.828 646.564C375.917 646.564 379.52 649.275 380.663 653.18ZM404.372 653.721H380.458C380.336 653.721 380.229 653.638 380.197 653.52C379.184 649.742 375.742 647.105 371.828 647.105C367.914 647.105 364.473 649.742 363.46 653.519C363.429 653.638 363.321 653.72 363.199 653.72H349.213C348.394 653.72 347.73 653.056 347.73 652.238V610.761C347.73 609.943 348.394 609.278 349.213 609.278H404.371C405.188 609.278 405.853 609.943 405.853 610.761V652.238C405.853 653.055 405.188 653.72 404.371 653.72" fill="black"/>
<path fill-rule="evenodd" clip-rule="evenodd" d="M438.132 653.623H441.179C441.744 653.623 442.226 653.411 442.538 653.028C442.851 652.644 442.961 652.127 442.846 651.574L442.843 651.553L442.253 646.857C441.988 645.63 439.519 641.594 438.517 640.755C438.492 640.733 438.47 640.705 438.453 640.676L427.05 619.559C426.557 618.864 425.193 617.263 423.014 617.047H410.699C410.686 617.047 410.671 617.045 410.658 617.043C410.097 616.956 409.572 617.091 409.181 617.426C408.79 617.761 408.573 618.259 408.573 618.827V651.468C408.573 652.656 409.54 653.622 410.727 653.622H419.951C420.41 651.996 421.616 650.478 423.366 649.33C425.082 648.203 427.151 647.557 429.041 647.557C430.933 647.557 433.002 648.203 434.717 649.33C436.467 650.478 437.673 651.996 438.132 653.623ZM441.179 654.163H437.923C437.8 654.163 437.691 654.078 437.662 653.956C436.976 651.127 433.347 648.098 429.041 648.098C424.735 648.098 421.107 651.127 420.422 653.956C420.393 654.078 420.284 654.162 420.159 654.162H410.727C409.241 654.162 408.033 652.954 408.033 651.468V618.827C408.033 618.098 408.315 617.455 408.83 617.016C409.338 616.581 410.008 616.4 410.72 616.506H423.026C423.035 616.506 423.044 616.506 423.052 616.508C425.476 616.741 426.97 618.51 427.499 619.261C427.506 619.269 427.511 619.278 427.516 619.288L438.904 640.375C440.035 641.37 442.506 645.426 442.783 646.756L442.787 646.778L443.377 651.476C443.521 652.187 443.371 652.858 442.957 653.369C442.539 653.882 441.908 654.162 441.178 654.162" fill="black"/>
<path fill-rule="evenodd" clip-rule="evenodd" d="M436.579 638.25H415.373C415.225 638.25 415.104 638.13 415.104 637.98V619.783C415.104 619.635 415.225 619.514 415.373 619.514H427.603C427.752 619.514 427.874 619.635 427.874 619.783C427.874 619.933 427.752 620.054 427.603 620.054H415.643V637.71H436.579C436.728 637.71 436.849 637.831 436.849 637.98C436.849 638.13 436.728 638.25 436.579 638.25ZM424.237 642.843H416.746C416.597 642.843 416.475 642.722 416.475 642.574C416.475 642.423 416.597 642.303 416.746 642.303H424.237C424.386 642.303 424.507 642.423 424.507 642.574C424.507 642.722 424.386 642.843 424.237 642.843ZM357.34 653.45C357.326 653.45 357.312 653.449 357.299 653.447C357.151 653.424 357.049 653.286 357.071 653.14L363.676 609.738C363.699 609.591 363.837 609.487 363.985 609.512C364.132 609.534 364.232 609.671 364.211 609.819L357.606 653.219C357.586 653.354 357.471 653.45 357.34 653.45ZM388.18 653.45C388.167 653.45 388.153 653.449 388.139 653.447C387.992 653.424 387.891 653.286 387.914 653.14L394.52 609.738C394.542 609.591 394.679 609.487 394.827 609.512C394.975 609.534 395.076 609.671 395.054 609.819L388.448 653.219C388.427 653.354 388.312 653.45 388.18 653.45ZM373.234 647.22C373.22 647.22 373.206 647.219 373.193 647.216C373.045 647.194 372.943 647.057 372.966 646.909L378.623 609.738C378.645 609.591 378.782 609.488 378.93 609.511C379.078 609.534 379.179 609.672 379.157 609.819L373.5 646.99C373.48 647.124 373.365 647.22 373.234 647.22ZM421.129 646.334H416.746C416.597 646.334 416.475 646.213 416.475 646.064C416.475 645.915 416.597 645.793 416.746 645.793H421.128C421.278 645.793 421.399 645.915 421.399 646.064C421.399 646.213 421.278 646.334 421.129 646.334ZM442.514 649.077C440.178 649.077 438.698 648.498 438.11 647.357C437.093 645.384 439.176 642.532 439.265 642.413C439.354 642.292 439.523 642.267 439.643 642.356C439.762 642.444 439.787 642.613 439.699 642.733C439.68 642.76 437.727 645.437 438.591 647.11C439.098 648.094 440.504 648.573 442.76 648.533C442.91 648.526 443.033 648.65 443.035 648.799C443.037 648.948 442.919 649.071 442.77 649.074L442.514 649.077Z" fill="black"/>
<path fill-rule="evenodd" clip-rule="evenodd" d="M348.273 653.72H337.971C337.822 653.72 337.7 653.599 337.7 653.449V627.366C337.7 627.317 337.713 627.269 337.74 627.226L348.141 610.226C348.219 610.099 348.385 610.059 348.512 610.136C348.64 610.214 348.679 610.381 348.603 610.508L338.241 627.442V653.18H348.273C348.423 653.18 348.544 653.3 348.544 653.449C348.544 653.599 348.423 653.72 348.273 653.72Z" fill="black"/>
<path fill-rule="evenodd" clip-rule="evenodd" d="M371.833 655.088C370.889 655.088 370.122 655.855 370.122 656.797C370.122 657.741 370.889 658.509 371.833 658.509C372.776 658.509 373.543 657.741 373.543 656.797C373.543 655.855 372.776 655.088 371.833 655.088ZM371.833 659.049C370.592 659.049 369.582 658.039 369.582 656.797C369.582 655.557 370.592 654.549 371.833 654.549C373.073 654.549 374.084 655.557 374.084 656.797C374.084 658.04 373.073 659.049 371.833 659.049ZM429.036 655.088C428.094 655.088 427.327 655.855 427.327 656.797C427.327 657.741 428.094 658.509 429.036 658.509C429.98 658.509 430.747 657.741 430.747 656.797C430.747 655.855 429.979 655.088 429.036 655.088ZM429.036 659.049C427.796 659.049 426.788 658.039 426.788 656.797C426.788 655.557 427.796 654.549 429.036 654.549C430.277 654.549 431.287 655.557 431.287 656.797C431.287 658.04 430.277 659.049 429.036 659.049Z" fill="black"/>
</g>
<path opacity="0.6" d="M931.752 582.045C932.93 575.698 939.143 571.496 945.573 572.669C951.159 573.684 955.244 578.565 955.252 584.704C955.231 586.696 954.514 588.95 953.073 590.969C950.15 595.061 947.215 599.151 944.284 603.242C943.773 603.954 943.027 603.954 942.516 603.247C939.585 599.154 936.643 595.072 933.73 590.971C931.817 588.275 931.15 585.281 931.752 582.045ZM943.393 591.11C947.302 591.11 950.47 587.975 950.47 584.104C950.47 580.236 947.302 577.098 943.393 577.098C939.487 577.098 936.317 580.236 936.317 584.104C936.317 587.975 939.486 591.11 943.393 591.11Z" fill="#72C2FF"/>
<g opacity="0.3">
<path fill-rule="evenodd" clip-rule="evenodd" d="M934.117 650.78C937.435 650.78 940.135 653.48 940.135 656.797C940.135 660.117 937.435 662.816 934.117 662.816C930.797 662.816 928.097 660.116 928.097 656.797C928.097 653.48 930.797 650.78 934.117 650.78ZM934.117 663.356C937.733 663.356 940.675 660.414 940.675 656.797C940.675 653.182 937.733 650.24 934.117 650.24C930.5 650.24 927.557 653.181 927.557 656.797C927.557 660.414 930.5 663.356 934.117 663.356ZM991.32 650.78C994.638 650.78 997.337 653.48 997.337 656.797C997.337 660.117 994.638 662.816 991.32 662.816C988.002 662.816 985.301 660.116 985.301 656.797C985.301 653.48 988.002 650.78 991.32 650.78ZM991.32 663.356C994.935 663.356 997.877 660.414 997.877 656.797C997.877 653.182 994.936 650.24 991.32 650.24C987.703 650.24 984.761 653.181 984.761 656.797C984.761 660.414 987.703 663.356 991.32 663.356Z" fill="black"/>
<path fill-rule="evenodd" clip-rule="evenodd" d="M982.486 653.18H958.778C958.259 653.18 957.836 652.757 957.836 652.238V610.761C957.836 610.241 958.259 609.818 958.778 609.818H1013.94C1014.46 609.818 1014.88 610.241 1014.88 610.761V652.238C1014.88 652.757 1014.46 653.18 1013.94 653.18H1000.15C999.011 649.275 995.409 646.564 991.321 646.564C987.232 646.564 983.629 649.275 982.486 653.18ZM958.777 653.721H982.691C982.813 653.721 982.92 653.638 982.952 653.52C983.965 649.742 987.407 647.105 991.321 647.105C995.235 647.105 998.676 649.742 999.689 653.519C999.72 653.638 999.828 653.72 999.95 653.72H1013.94C1014.75 653.72 1015.42 653.056 1015.42 652.238V610.761C1015.42 609.943 1014.75 609.278 1013.94 609.278H958.778C957.961 609.278 957.296 609.943 957.296 610.761V652.238C957.296 653.055 957.961 653.72 958.778 653.72" fill="black"/>
<path fill-rule="evenodd" clip-rule="evenodd" d="M925.028 653.623H921.981C921.417 653.623 920.934 653.411 920.622 653.028C920.309 652.644 920.2 652.127 920.314 651.574L920.317 651.553L920.907 646.857C921.172 645.63 923.641 641.594 924.643 640.755C924.668 640.733 924.69 640.705 924.707 640.676L936.11 619.559C936.603 618.864 937.967 617.263 940.146 617.047H952.461C952.474 617.047 952.489 617.045 952.503 617.043C953.063 616.956 953.588 617.091 953.98 617.426C954.37 617.761 954.587 618.259 954.587 618.827V651.468C954.587 652.656 953.62 653.622 952.433 653.622H943.209C942.75 651.996 941.544 650.478 939.794 649.33C938.078 648.203 936.009 647.557 934.119 647.557C932.227 647.557 930.158 648.203 928.443 649.33C926.693 650.478 925.487 651.996 925.028 653.623ZM921.981 654.163H925.237C925.36 654.163 925.469 654.078 925.499 653.956C926.184 651.127 929.813 648.098 934.119 648.098C938.425 648.098 942.053 651.127 942.739 653.956C942.767 654.078 942.876 654.162 943.001 654.162H952.433C953.919 654.162 955.127 652.954 955.127 651.468V618.827C955.127 618.098 954.845 617.455 954.331 617.016C953.822 616.581 953.152 616.4 952.44 616.506H940.135C940.125 616.506 940.117 616.506 940.108 616.508C937.684 616.741 936.19 618.51 935.661 619.261C935.654 619.269 935.649 619.278 935.644 619.288L924.256 640.375C923.125 641.37 920.654 645.426 920.377 646.756L920.373 646.778L919.783 651.476C919.639 652.187 919.789 652.858 920.203 653.369C920.621 653.882 921.253 654.162 921.982 654.162" fill="black"/>
<path fill-rule="evenodd" clip-rule="evenodd" d="M926.574 638.25H947.78C947.928 638.25 948.049 638.13 948.049 637.98V619.783C948.049 619.635 947.928 619.514 947.78 619.514H935.549C935.401 619.514 935.279 619.635 935.279 619.783C935.279 619.933 935.401 620.054 935.549 620.054H947.51V637.71H926.574C926.425 637.71 926.304 637.831 926.304 637.98C926.304 638.13 926.425 638.25 926.574 638.25ZM938.916 642.843H946.407C946.556 642.843 946.678 642.722 946.678 642.574C946.678 642.423 946.556 642.303 946.407 642.303H938.916C938.767 642.303 938.646 642.423 938.646 642.574C938.646 642.722 938.767 642.843 938.916 642.843ZM1005.81 653.45C1005.83 653.45 1005.84 653.449 1005.85 653.447C1006 653.424 1006.1 653.286 1006.08 653.14L999.476 609.738C999.454 609.591 999.316 609.487 999.168 609.512C999.021 609.534 998.92 609.671 998.942 609.819L1005.55 653.219C1005.57 653.354 1005.68 653.45 1005.81 653.45ZM974.973 653.45C974.986 653.45 975 653.449 975.014 653.447C975.161 653.424 975.262 653.286 975.239 653.14L968.633 609.738C968.61 609.591 968.474 609.487 968.326 609.512C968.178 609.534 968.076 609.671 968.099 609.819L974.705 653.219C974.726 653.354 974.841 653.45 974.973 653.45ZM989.919 647.22C989.933 647.22 989.947 647.219 989.96 647.216C990.108 647.194 990.209 647.057 990.187 646.909L984.53 609.738C984.508 609.591 984.371 609.488 984.223 609.511C984.075 609.534 983.974 609.672 983.996 609.819L989.653 646.99C989.672 647.124 989.788 647.22 989.919 647.22ZM942.024 646.334H946.407C946.556 646.334 946.678 646.213 946.678 646.064C946.678 645.915 946.556 645.793 946.407 645.793H942.025C941.875 645.793 941.753 645.915 941.753 646.064C941.753 646.213 941.875 646.334 942.024 646.334ZM920.639 649.077C922.975 649.077 924.454 648.498 925.043 647.357C926.06 645.384 923.976 642.532 923.888 642.413C923.799 642.292 923.63 642.267 923.51 642.356C923.391 642.444 923.365 642.613 923.454 642.733C923.473 642.76 925.426 645.437 924.562 647.11C924.055 648.094 922.649 648.573 920.393 648.533C920.243 648.526 920.12 648.65 920.117 648.799C920.116 648.948 920.234 649.071 920.383 649.074L920.639 649.077Z" fill="black"/>
<mask id="mask0_261_4019" style="mask-type:luminance" maskUnits="userSpaceOnUse" x="1014" y="610" width="12" height="44">
<g opacity="0.3">
<path d="M1025.45 610.097H1014.51V653.72H1025.45V610.097Z" fill="white"/>
</g>
</mask>
<g mask="url(#mask0_261_4019)">
<path fill-rule="evenodd" clip-rule="evenodd" d="M1014.88 653.72H1025.18C1025.33 653.72 1025.45 653.599 1025.45 653.449V627.366C1025.45 627.317 1025.43 627.269 1025.41 627.226L1015.01 610.226C1014.93 610.099 1014.76 610.059 1014.64 610.136C1014.51 610.214 1014.47 610.381 1014.55 610.508L1024.91 627.442V653.18H1014.88C1014.73 653.18 1014.6 653.3 1014.6 653.449C1014.6 653.599 1014.73 653.72 1014.88 653.72Z" fill="black"/>
</g>
<path fill-rule="evenodd" clip-rule="evenodd" d="M991.32 655.088C992.264 655.088 993.031 655.855 993.031 656.797C993.031 657.741 992.264 658.509 991.32 658.509C990.377 658.509 989.61 657.741 989.61 656.797C989.61 655.855 990.377 655.088 991.32 655.088ZM991.32 659.049C992.561 659.049 993.571 658.039 993.571 656.797C993.571 655.557 992.561 654.549 991.32 654.549C990.079 654.549 989.069 655.557 989.069 656.797C989.069 658.04 990.079 659.049 991.32 659.049ZM934.117 655.088C935.059 655.088 935.826 655.855 935.826 656.797C935.826 657.741 935.059 658.509 934.117 658.509C933.173 658.509 932.406 657.741 932.406 656.797C932.406 655.855 933.174 655.088 934.117 655.088ZM934.117 659.049C935.357 659.049 936.365 658.039 936.365 656.797C936.365 655.557 935.357 654.549 934.117 654.549C932.876 654.549 931.866 655.557 931.866 656.797C931.866 658.04 932.876 659.049 934.117 659.049Z" fill="black"/>
</g>
<g opacity="0.2">
<path fill-rule="evenodd" clip-rule="evenodd" d="M115.042 661.528H171.39V555.773H115.042V661.53V661.528ZM171.75 662.249H114.683C114.484 662.249 114.322 662.088 114.322 661.889V555.411C114.322 555.212 114.484 555.05 114.683 555.05H171.751C171.95 555.05 172.112 555.212 172.112 555.411V661.889C172.112 662.088 171.949 662.249 171.75 662.249ZM181.307 661.519H226.116V521.077H181.307V661.519ZM226.487 662.26H180.935C180.731 662.26 180.565 662.094 180.565 661.889V520.707C180.565 520.501 180.731 520.335 180.935 520.335H226.487C226.692 520.335 226.857 520.501 226.857 520.706V661.888C226.857 662.094 226.692 662.26 226.487 662.26Z" fill="black"/>
<path fill-rule="evenodd" clip-rule="evenodd" d="M128.597 579.413C128.405 579.413 128.248 579.257 128.248 579.065V565.307C128.248 565.114 128.405 564.958 128.597 564.958C128.789 564.958 128.946 565.114 128.946 565.307V579.065C128.946 579.257 128.789 579.413 128.597 579.413ZM128.597 604.672C128.405 604.672 128.248 604.517 128.248 604.324V590.563C128.248 590.37 128.405 590.215 128.597 590.215C128.789 590.215 128.946 590.37 128.946 590.563V604.323C128.946 604.516 128.789 604.672 128.597 604.672ZM128.597 629.93C128.405 629.93 128.248 629.774 128.248 629.581V615.822C128.248 615.63 128.405 615.474 128.597 615.474C128.789 615.474 128.946 615.63 128.946 615.822V629.581C128.946 629.774 128.789 629.93 128.597 629.93ZM128.597 655.188C128.405 655.188 128.248 655.032 128.248 654.84V641.082C128.248 640.889 128.405 640.734 128.597 640.734C128.789 640.734 128.946 640.889 128.946 641.082V654.84C128.946 655.032 128.789 655.188 128.597 655.188ZM143.217 579.413C143.025 579.413 142.868 579.257 142.868 579.065V565.307C142.868 565.114 143.025 564.958 143.217 564.958C143.409 564.958 143.565 565.114 143.565 565.307V579.065C143.565 579.257 143.409 579.413 143.217 579.413ZM190.525 521.473C190.333 521.473 190.176 521.317 190.176 521.125V507.367C190.176 507.174 190.333 507.019 190.525 507.019C190.717 507.019 190.873 507.174 190.873 507.367V521.125C190.873 521.317 190.717 521.473 190.525 521.473ZM205.146 521.473C204.953 521.473 204.798 521.317 204.798 521.125V507.367C204.798 507.174 204.953 507.019 205.146 507.019C205.337 507.019 205.495 507.174 205.495 507.367V521.125C205.495 521.317 205.337 521.473 205.146 521.473ZM254.259 547.34C254.039 547.34 253.861 547.163 253.861 546.942V528.995C253.861 528.775 254.039 528.597 254.259 528.597C254.479 528.597 254.658 528.775 254.658 528.995V546.943C254.658 547.163 254.479 547.34 254.259 547.34ZM143.217 604.672C143.025 604.672 142.868 604.517 142.868 604.324V590.563C142.868 590.37 143.025 590.215 143.217 590.215C143.409 590.215 143.565 590.37 143.565 590.563V604.323C143.565 604.516 143.409 604.672 143.217 604.672ZM143.217 629.93C143.025 629.93 142.868 629.774 142.868 629.581V615.822C142.868 615.63 143.025 615.474 143.217 615.474C143.409 615.474 143.565 615.63 143.565 615.822V629.581C143.565 629.774 143.409 629.93 143.217 629.93ZM143.217 655.188C143.025 655.188 142.868 655.032 142.868 654.84V641.082C142.868 640.889 143.025 640.734 143.217 640.734C143.409 640.734 143.565 640.889 143.565 641.082V654.84C143.565 655.032 143.409 655.188 143.217 655.188ZM157.835 579.413C157.643 579.413 157.487 579.257 157.487 579.065V565.307C157.487 565.114 157.643 564.958 157.835 564.958C158.027 564.958 158.184 565.114 158.184 565.307V579.065C158.184 579.257 158.027 579.413 157.835 579.413ZM157.835 604.672C157.643 604.672 157.487 604.517 157.487 604.324V590.563C157.487 590.37 157.643 590.215 157.835 590.215C158.027 590.215 158.184 590.37 158.184 590.563V604.323C158.184 604.516 158.027 604.672 157.835 604.672ZM157.835 629.93C157.643 629.93 157.487 629.774 157.487 629.581V615.822C157.487 615.63 157.643 615.474 157.835 615.474C158.027 615.474 158.184 615.63 158.184 615.822V629.581C158.184 629.774 158.027 629.93 157.835 629.93ZM157.835 655.188C157.643 655.188 157.487 655.032 157.487 654.84V641.082C157.487 640.889 157.643 640.734 157.835 640.734C158.027 640.734 158.184 640.889 158.184 641.082V654.84C158.184 655.032 158.027 655.188 157.835 655.188ZM163.173 555.772C163.063 555.772 162.953 555.72 162.882 555.625L143.72 529.593L123.546 555.632C123.424 555.79 123.198 555.818 123.041 555.697C122.883 555.573 122.855 555.348 122.976 555.19L143.443 528.775C143.512 528.686 143.617 528.633 143.728 528.633C143.73 528.633 143.732 528.633 143.734 528.635C143.846 528.635 143.952 528.69 144.018 528.782L163.463 555.199C163.582 555.36 163.547 555.585 163.387 555.703C163.323 555.751 163.248 555.773 163.174 555.773" fill="black"/>
<path fill-rule="evenodd" clip-rule="evenodd" d="M143.221 542.854C140.916 542.854 139.04 544.726 139.04 547.029C139.04 549.334 140.916 551.208 143.221 551.208C145.523 551.208 147.395 549.334 147.395 547.029C147.395 544.726 145.523 542.854 143.221 542.854ZM143.221 551.929C140.518 551.929 138.32 549.73 138.32 547.029C138.32 544.33 140.519 542.134 143.221 542.134C145.92 542.134 148.116 544.33 148.116 547.029C148.116 549.73 145.92 551.929 143.221 551.929ZM74.7126 661.528H114.323V575.723L74.7126 593.153V661.528ZM114.684 662.249H74.3522C74.153 662.249 73.9917 662.088 73.9917 661.888V592.919C73.9917 592.776 74.0771 592.646 74.207 592.588L114.539 574.842C114.65 574.795 114.778 574.804 114.881 574.87C114.983 574.937 115.044 575.051 115.044 575.173V661.89C115.044 662.09 114.883 662.251 114.684 662.251V662.249ZM235.276 661.536H273.287V556.38L235.276 538.959V661.536ZM273.639 662.243H234.924C234.728 662.243 234.571 662.084 234.571 661.888V538.409C234.571 538.289 234.631 538.176 234.732 538.112C234.834 538.046 234.962 538.038 235.072 538.088L273.786 555.833C273.911 555.891 273.993 556.016 273.993 556.155V661.888C273.993 662.084 273.834 662.243 273.639 662.243Z" fill="black"/>
<path fill-rule="evenodd" clip-rule="evenodd" d="M107.424 601.346H80.6031C80.4039 601.346 80.2427 601.184 80.2427 600.984C80.2427 600.785 80.4039 600.624 80.6031 600.624H107.424C107.623 600.624 107.785 600.785 107.785 600.984C107.785 601.184 107.623 601.346 107.424 601.346ZM217.345 582.604H190.525C190.326 582.604 190.165 582.441 190.165 582.242C190.165 582.044 190.326 581.882 190.525 581.882H217.346C217.546 581.882 217.707 582.043 217.707 582.243C217.707 582.442 217.546 582.603 217.346 582.603M217.345 593.392H190.525C190.326 593.392 190.165 593.23 190.165 593.031C190.165 592.833 190.326 592.671 190.525 592.671H217.346C217.546 592.671 217.707 592.833 217.707 593.031C217.707 593.23 217.546 593.392 217.346 593.392M217.345 604.181H190.525C190.326 604.181 190.165 604.019 190.165 603.82C190.165 603.621 190.326 603.459 190.525 603.459H217.346C217.546 603.459 217.707 603.621 217.707 603.82C217.707 604.019 217.546 604.18 217.346 604.18M107.424 613.443H80.6031C80.4039 613.443 80.2427 613.28 80.2427 613.081C80.2427 612.883 80.4039 612.722 80.6031 612.722H107.424C107.623 612.722 107.785 612.883 107.785 613.082C107.785 613.281 107.623 613.443 107.424 613.443ZM107.424 625.543H80.6031C80.4039 625.543 80.2427 625.382 80.2427 625.182C80.2427 624.983 80.4039 624.822 80.6031 624.822H107.424C107.623 624.822 107.785 624.983 107.785 625.182C107.785 625.382 107.623 625.543 107.424 625.543ZM107.424 637.642H80.6031C80.4039 637.642 80.2427 637.481 80.2427 637.282C80.2427 637.083 80.4039 636.922 80.6031 636.922H107.424C107.623 636.922 107.785 637.083 107.785 637.282C107.785 637.481 107.623 637.642 107.424 637.642ZM80.9636 563.03V590.007L97.7872 582.444V563.03H80.9636ZM80.6031 590.924C80.5348 590.924 80.4665 590.905 80.4068 590.867C80.3043 590.801 80.2427 590.687 80.2427 590.564V562.67C80.2427 562.472 80.4039 562.309 80.6031 562.309H98.1477C98.3469 562.309 98.5082 562.472 98.5082 562.67V582.676C98.5082 582.818 98.4247 582.948 98.2957 583.005L80.7502 590.893C80.7028 590.915 80.6534 590.924 80.6031 590.924ZM190.874 546.682H200.767V533.443H190.874V546.682ZM201.116 547.38H190.525C190.333 547.38 190.176 547.225 190.176 547.032V533.094C190.176 532.902 190.333 532.746 190.525 532.746H201.116C201.308 532.746 201.464 532.902 201.464 533.094V547.032C201.464 547.225 201.308 547.38 201.116 547.38ZM207.457 546.682H217.347V533.443H207.457V546.682ZM217.695 547.38H207.108C206.915 547.38 206.759 547.225 206.759 547.032V533.094C206.759 532.902 206.915 532.746 207.108 532.746H217.695C217.889 532.746 218.045 532.902 218.045 533.094V547.032C218.045 547.225 217.889 547.38 217.695 547.38ZM190.874 568.999H200.767V555.761H190.874V568.999ZM201.116 569.696H190.525C190.333 569.696 190.176 569.54 190.176 569.347V555.412C190.176 555.219 190.333 555.061 190.525 555.061H201.116C201.308 555.061 201.464 555.219 201.464 555.412V569.347C201.464 569.54 201.308 569.696 201.116 569.696ZM207.457 568.999H217.347V555.761H207.457V568.999ZM217.695 569.696H207.108C206.915 569.696 206.759 569.54 206.759 569.347V555.412C206.759 555.219 206.915 555.061 207.108 555.061H217.695C217.889 555.061 218.045 555.219 218.045 555.412V569.347C218.045 569.54 217.889 569.696 217.695 569.696ZM190.874 632.547H200.767V619.306H190.874V632.546V632.547ZM201.116 633.245H190.525C190.333 633.245 190.176 633.088 190.176 632.896V618.959C190.176 618.765 190.333 618.609 190.525 618.609H201.116C201.308 618.609 201.464 618.765 201.464 618.959V632.896C201.464 633.088 201.308 633.245 201.116 633.245ZM207.457 632.547H217.347V619.306H207.457V632.546V632.547ZM217.695 633.245H207.108C206.915 633.245 206.759 633.088 206.759 632.896V618.959C206.759 618.765 206.915 618.609 207.108 618.609H217.695C217.889 618.609 218.045 618.765 218.045 618.959V632.896C218.045 633.088 217.889 633.245 217.695 633.245ZM266.047 569.709C266.004 569.709 265.962 569.7 265.917 569.685L242.341 560.603C242.156 560.531 242.063 560.323 242.136 560.136C242.207 559.951 242.415 559.857 242.6 559.931L266.178 569.011C266.363 569.083 266.455 569.291 266.384 569.476C266.329 569.619 266.191 569.709 266.047 569.709ZM266.047 583.967C266.004 583.967 265.962 583.958 265.917 583.943L242.341 574.861C242.156 574.788 242.063 574.581 242.136 574.394C242.207 574.209 242.415 574.116 242.6 574.189L266.178 583.27C266.363 583.341 266.455 583.55 266.384 583.735C266.329 583.878 266.191 583.967 266.047 583.967ZM266.047 598.224C266.004 598.224 265.962 598.214 265.917 598.199L242.341 589.118C242.156 589.046 242.063 588.838 242.136 588.651C242.207 588.466 242.415 588.374 242.6 588.447L266.178 597.527C266.363 597.598 266.455 597.806 266.384 597.991C266.329 598.135 266.191 598.224 266.047 598.224ZM266.047 612.482C266.004 612.482 265.962 612.475 265.917 612.458L242.341 603.377C242.156 603.305 242.063 603.096 242.136 602.91C242.207 602.725 242.415 602.631 242.6 602.703L266.178 611.785C266.363 611.856 266.455 612.065 266.384 612.251C266.329 612.394 266.191 612.482 266.047 612.482ZM266.047 626.739C266.004 626.739 265.962 626.732 265.917 626.715L242.341 617.633C242.155 617.561 242.063 617.352 242.136 617.167C242.207 616.982 242.415 616.888 242.6 616.96L266.178 626.043C266.363 626.114 266.455 626.323 266.384 626.509C266.329 626.652 266.191 626.739 266.047 626.739ZM266.047 640.998C266.004 640.998 265.962 640.99 265.917 640.974L242.341 631.891C242.155 631.82 242.063 631.61 242.136 631.425C242.207 631.239 242.415 631.146 242.6 631.218L266.178 640.301C266.363 640.372 266.455 640.581 266.384 640.766C266.329 640.909 266.191 640.998 266.047 640.998ZM250.462 528.598H257.532V521.523H250.462V528.598ZM257.931 529.393H250.064C249.845 529.393 249.667 529.215 249.667 528.994V521.125C249.667 520.904 249.845 520.728 250.065 520.728H257.931C258.151 520.728 258.329 520.904 258.329 521.125V528.994C258.329 529.215 258.151 529.393 257.931 529.393ZM143.479 529.356C143.28 529.356 143.119 529.194 143.119 528.995V514.245C143.119 514.046 143.28 513.885 143.479 513.885C143.678 513.885 143.839 514.046 143.839 514.245V528.993C143.839 529.193 143.678 529.355 143.479 529.355" fill="black"/>
</g>
<g opacity="0.2">
<path fill-rule="evenodd" clip-rule="evenodd" d="M1233.94 661.687H1279.27L1270.65 523.881H1242.56L1233.94 661.687ZM1279.64 662.394H1233.56C1233.46 662.394 1233.37 662.354 1233.3 662.282C1233.24 662.211 1233.2 662.116 1233.21 662.017L1241.87 523.505C1241.88 523.319 1242.04 523.173 1242.22 523.173H1270.98C1271.17 523.173 1271.32 523.319 1271.33 523.505L1279.99 662.017C1280 662.116 1279.97 662.211 1279.9 662.282C1279.83 662.354 1279.74 662.394 1279.64 662.394Z" fill="black"/>
<path fill-rule="evenodd" clip-rule="evenodd" d="M1198.7 661.687H1233.23L1238.33 571.401L1198.71 587.984L1198.7 661.687ZM1233.56 662.394H1198.35C1198.16 662.394 1198 662.234 1198 662.04V587.75C1198 587.607 1198.08 587.479 1198.22 587.423L1238.58 570.531C1238.69 570.484 1238.82 570.499 1238.92 570.569C1239.02 570.639 1239.08 570.756 1239.07 570.878L1233.92 662.06C1233.9 662.247 1233.75 662.394 1233.56 662.394Z" fill="black"/>
<path fill-rule="evenodd" clip-rule="evenodd" d="M1206.97 604.307H1230.23V593.662H1206.97V604.307ZM1230.52 604.883H1206.68C1206.52 604.883 1206.39 604.753 1206.39 604.596V593.376C1206.39 593.216 1206.52 593.087 1206.68 593.087H1230.52C1230.68 593.087 1230.8 593.216 1230.8 593.376V604.596C1230.8 604.753 1230.68 604.883 1230.52 604.883ZM1158.34 661.687H1198V571.389L1158.34 587.983V661.686L1158.34 661.687ZM1198.35 662.394H1157.99C1157.79 662.394 1157.63 662.234 1157.63 662.04V587.749C1157.63 587.607 1157.72 587.479 1157.85 587.423L1198.21 570.531C1198.32 570.488 1198.45 570.498 1198.55 570.563C1198.65 570.63 1198.7 570.739 1198.7 570.858V662.04C1198.7 662.234 1198.55 662.394 1198.35 662.394Z" fill="black"/>
<path fill-rule="evenodd" clip-rule="evenodd" d="M1166.6 604.307H1189.87V593.662H1166.6V604.307ZM1190.15 604.883H1166.32C1166.16 604.883 1166.03 604.753 1166.03 604.596V593.376C1166.03 593.216 1166.16 593.087 1166.32 593.087H1190.16C1190.31 593.087 1190.44 593.216 1190.44 593.376V604.596C1190.44 604.753 1190.31 604.883 1190.15 604.883ZM1117.98 661.687H1157.63V571.389L1117.98 587.983V661.687ZM1157.99 662.394H1117.62C1117.43 662.394 1117.27 662.234 1117.27 662.04V587.749C1117.27 587.607 1117.36 587.479 1117.49 587.423L1157.85 570.531C1157.96 570.488 1158.09 570.498 1158.18 570.563C1158.28 570.63 1158.34 570.739 1158.34 570.858V662.04C1158.34 662.234 1158.18 662.394 1157.99 662.394Z" fill="black"/>
<path fill-rule="evenodd" clip-rule="evenodd" d="M1090.53 661.751H1116.91V613.479L1103.71 607.097L1090.53 612.612V661.751ZM1117.2 662.327H1090.24C1090.09 662.327 1089.96 662.198 1089.96 662.04V612.421C1089.96 612.305 1090.03 612.201 1090.13 612.155L1103.61 606.516C1103.69 606.484 1103.77 606.486 1103.85 606.522L1117.33 613.039C1117.43 613.089 1117.49 613.188 1117.49 613.299V662.039C1117.49 662.198 1117.36 662.327 1117.2 662.327ZM1126.24 604.307H1149.5V593.662H1126.24V604.307ZM1149.79 604.883H1125.95C1125.79 604.883 1125.66 604.753 1125.66 604.596V593.376C1125.66 593.216 1125.79 593.087 1125.95 593.087H1149.79C1149.95 593.087 1150.07 593.216 1150.07 593.376V604.596C1150.07 604.753 1149.95 604.883 1149.79 604.883ZM1252.63 514.197C1254.14 514.313 1257.21 514.403 1260.62 513.637C1267 512.205 1271.45 508.615 1273.85 502.973C1276.45 496.882 1280.03 493.923 1282.58 492.515C1284.04 491.707 1285.33 491.301 1286.24 491.097C1283.79 490.249 1278.11 488.723 1273.16 490.64C1270.03 491.852 1267.66 494.25 1266.13 497.764C1265.54 499.14 1265.05 500.306 1264.62 501.338C1261.97 507.734 1261.74 508.292 1252.63 514.197ZM1254.69 514.986C1252.84 514.986 1251.64 514.807 1251.55 514.793C1251.4 514.771 1251.29 514.662 1251.26 514.518C1251.22 514.374 1251.29 514.227 1251.41 514.147C1261.15 507.846 1261.26 507.592 1263.97 501.068C1264.4 500.034 1264.89 498.863 1265.49 497.482C1267.09 493.787 1269.59 491.262 1272.91 489.98C1279.68 487.361 1287.43 490.779 1287.76 490.926C1287.91 490.992 1287.99 491.155 1287.96 491.317C1287.93 491.478 1287.79 491.595 1287.62 491.6C1287.6 491.601 1285.52 491.685 1282.88 493.155C1280.44 494.511 1277.01 497.365 1274.5 503.249C1271.39 510.563 1265.3 513.313 1260.75 514.332C1258.45 514.847 1256.32 514.986 1254.69 514.986Z" fill="black"/>
<path fill-rule="evenodd" clip-rule="evenodd" d="M1095.79 628.909H1101.23V620.898H1095.79V628.909ZM1101.51 629.484H1095.5C1095.34 629.484 1095.21 629.355 1095.21 629.196V620.611C1095.21 620.452 1095.34 620.323 1095.5 620.323H1101.51C1101.67 620.323 1101.8 620.452 1101.8 620.611V629.196C1101.8 629.355 1101.67 629.484 1101.51 629.484ZM1105.57 628.909H1111V620.898H1105.57V628.909ZM1111.29 629.484H1105.28C1105.12 629.484 1104.99 629.355 1104.99 629.196V620.611C1104.99 620.452 1105.12 620.323 1105.28 620.323H1111.29C1111.45 620.323 1111.58 620.452 1111.58 620.611V629.196C1111.58 629.355 1111.45 629.484 1111.29 629.484ZM1095.79 640.918H1101.23V632.908H1095.79V640.918ZM1101.51 641.494H1095.5C1095.34 641.494 1095.21 641.365 1095.21 641.206V632.619C1095.21 632.461 1095.34 632.332 1095.5 632.332H1101.51C1101.67 632.332 1101.8 632.461 1101.8 632.619V641.206C1101.8 641.365 1101.67 641.494 1101.51 641.494ZM1105.57 640.918H1111V632.908H1105.57V640.918ZM1111.29 641.494H1105.28C1105.12 641.494 1104.99 641.365 1104.99 641.206V632.619C1104.99 632.461 1105.12 632.332 1105.28 632.332H1111.29C1111.45 632.332 1111.58 632.461 1111.58 632.619V641.206C1111.58 641.365 1111.45 641.494 1111.29 641.494ZM1272.58 547.955H1240.72C1240.52 547.955 1240.37 547.796 1240.37 547.602C1240.37 547.406 1240.52 547.249 1240.72 547.249H1272.58C1272.78 547.249 1272.94 547.406 1272.94 547.602C1272.94 547.796 1272.78 547.955 1272.58 547.955ZM1272.58 568.013H1240.72C1240.52 568.013 1240.37 567.855 1240.37 567.66C1240.37 567.465 1240.52 567.306 1240.72 567.306H1272.58C1272.78 567.306 1272.94 567.465 1272.94 567.66C1272.94 567.855 1272.78 568.013 1272.58 568.013ZM1272.58 588.071H1240.72C1240.52 588.071 1240.37 587.913 1240.37 587.717C1240.37 587.522 1240.52 587.364 1240.72 587.364H1272.58C1272.78 587.364 1272.94 587.522 1272.94 587.717C1272.94 587.913 1272.78 588.071 1272.58 588.071ZM1276.25 608.129H1236.63C1236.43 608.129 1236.28 607.97 1236.28 607.775C1236.28 607.58 1236.43 607.421 1236.63 607.421H1276.25C1276.44 607.421 1276.6 607.58 1276.6 607.775C1276.6 607.97 1276.44 608.129 1276.25 608.129Z" fill="black"/>
</g>
<g opacity="0.7">
<path fill-rule="evenodd" clip-rule="evenodd" d="M1284.23 624.842C1286.26 627.006 1287.5 629.914 1287.5 633.112C1287.5 639.8 1282.07 645.223 1275.39 645.223C1273.63 645.223 1271.97 644.847 1270.46 644.176C1268.95 644.847 1267.29 645.223 1265.53 645.223C1258.85 645.222 1253.42 639.799 1253.42 633.112C1253.42 630.167 1254.47 627.468 1256.22 625.369C1255.65 624.204 1255.33 622.895 1255.33 621.511C1255.33 616.792 1259.06 612.942 1263.73 612.744C1265.95 610.207 1269.21 608.603 1272.84 608.603C1279.53 608.603 1284.95 614.027 1284.95 620.713C1284.95 622.162 1284.7 623.553 1284.23 624.842Z" fill="#72C2FF"/>
<path fill-rule="evenodd" clip-rule="evenodd" d="M1269.89 662.904H1270.08V621.319H1269.89V662.904Z" fill="#485944"/>
<path fill-rule="evenodd" clip-rule="evenodd" d="M1270.12 638.24L1263.27 632.518L1263.39 632.376L1270.24 638.098L1270.12 638.24ZM1270.38 633.482L1270.29 633.32L1276.13 629.982L1276.22 630.144L1270.38 633.482ZM1270.38 626.17L1270.29 626.008L1273.07 624.419L1273.16 624.58L1270.38 626.17ZM1269.78 629.498L1266.99 627.908L1267.09 627.746L1269.87 629.336L1269.78 629.498ZM1262.49 624.346C1262.69 625.635 1263.2 626.585 1264.02 627.17C1265.12 627.962 1266.46 627.843 1266.8 627.799C1266.59 624.433 1264.79 624.395 1262.89 624.355C1262.76 624.353 1262.63 624.351 1262.49 624.346ZM1266.24 628.023C1265.63 628.023 1264.72 627.905 1263.91 627.322C1263.03 626.69 1262.48 625.66 1262.29 624.262L1262.28 624.152L1262.39 624.157C1262.56 624.162 1262.73 624.167 1262.89 624.169C1264.81 624.209 1266.8 624.251 1266.99 627.873L1267 627.954L1266.92 627.97C1266.89 627.974 1266.63 628.023 1266.24 628.023Z" fill="#485944"/>
<path fill-rule="evenodd" clip-rule="evenodd" d="M1276.71 620.34L1276.33 620.429C1274.47 620.848 1272.72 621.245 1273.18 624.584C1273.53 624.56 1274.86 624.408 1275.79 623.412C1276.47 622.674 1276.78 621.642 1276.71 620.341V620.34ZM1273.02 624.776L1273.01 624.694C1272.48 621.108 1274.41 620.671 1276.28 620.248C1276.45 620.21 1276.61 620.173 1276.78 620.134L1276.88 620.108L1276.89 620.218C1276.99 621.625 1276.66 622.743 1275.92 623.54C1274.81 624.742 1273.17 624.773 1273.1 624.775L1273.02 624.776ZM1269.76 616.025C1269.68 616.134 1269.61 616.242 1269.53 616.349C1268.43 617.899 1267.39 619.363 1269.96 621.539C1270.2 621.294 1271.1 620.287 1271.12 618.93C1271.13 617.928 1270.68 616.951 1269.76 616.025ZM1269.97 621.788L1269.91 621.736C1267.12 619.42 1268.27 617.804 1269.38 616.242C1269.47 616.104 1269.57 615.967 1269.67 615.827L1269.73 615.736L1269.81 615.813C1270.82 616.8 1271.32 617.851 1271.3 618.936C1271.28 620.574 1270.08 621.687 1270.03 621.734L1269.97 621.788Z" fill="#485944"/>
<path fill-rule="evenodd" clip-rule="evenodd" d="M1295.67 635.089C1294.19 636.67 1293.29 638.795 1293.29 641.131C1293.29 646.02 1297.25 649.982 1302.14 649.982C1303.42 649.982 1304.64 649.71 1305.74 649.217C1306.84 649.71 1308.06 649.982 1309.34 649.982C1314.23 649.982 1318.19 646.02 1318.19 641.131C1318.19 638.98 1317.42 637.008 1316.14 635.474C1316.56 634.623 1316.8 633.666 1316.8 632.655C1316.8 629.206 1314.07 626.393 1310.66 626.248C1309.04 624.393 1306.65 623.223 1304 623.223C1299.11 623.223 1295.15 627.184 1295.15 632.073C1295.15 633.131 1295.33 634.147 1295.67 635.089Z" fill="#72C2FF"/>
<path fill-rule="evenodd" clip-rule="evenodd" d="M1305.99 662.904H1306.18V632.516H1305.99V662.904Z" fill="#485944"/>
<path fill-rule="evenodd" clip-rule="evenodd" d="M1306 644.899L1305.88 644.756L1310.88 640.574L1311 640.717L1306 644.899ZM1305.78 641.424L1301.51 638.984L1301.61 638.823L1305.87 641.262L1305.78 641.424ZM1305.78 636.081L1303.75 634.919L1303.84 634.757L1305.87 635.919L1305.78 636.081ZM1306.25 638.513L1306.16 638.351L1308.19 637.189L1308.28 637.351L1306.25 638.513Z" fill="#485944"/>
<path fill-rule="evenodd" clip-rule="evenodd" d="M1308.44 637.228C1308.72 637.262 1309.66 637.327 1310.43 636.77C1311.02 636.35 1311.38 635.671 1311.53 634.752L1311.27 634.759C1309.9 634.787 1308.6 634.816 1308.44 637.228ZM1308.82 637.439C1308.53 637.439 1308.34 637.404 1308.32 637.399L1308.24 637.384L1308.25 637.302C1308.39 634.633 1309.85 634.601 1311.26 634.572C1311.39 634.569 1311.51 634.567 1311.63 634.562L1311.74 634.559L1311.73 634.669C1311.59 635.697 1311.19 636.456 1310.54 636.923C1309.94 637.352 1309.27 637.439 1308.82 637.439ZM1301.19 631.83C1301.15 632.76 1301.37 633.499 1301.86 634.026C1302.51 634.727 1303.44 634.851 1303.72 634.874C1304.05 632.477 1302.78 632.191 1301.44 631.888L1301.19 631.831L1301.19 631.83ZM1303.88 635.065H1303.8C1303.75 635.063 1302.55 635.041 1301.72 634.155C1301.18 633.566 1300.94 632.744 1301.01 631.708L1301.02 631.597L1301.12 631.624C1301.24 631.652 1301.36 631.68 1301.48 631.706C1302.86 632.017 1304.29 632.34 1303.89 634.986L1303.88 635.065ZM1306.24 628.684C1305.59 629.35 1305.27 630.051 1305.28 630.769C1305.3 631.725 1305.91 632.438 1306.1 632.641C1307.94 631.072 1307.19 630.014 1306.39 628.895L1306.24 628.684ZM1306.09 632.891L1306.03 632.836C1306 632.802 1305.11 631.982 1305.09 630.773C1305.08 629.972 1305.45 629.198 1306.19 628.472L1306.27 628.396L1306.33 628.487L1306.55 628.788C1307.37 629.939 1308.21 631.13 1306.16 632.839L1306.09 632.891Z" fill="#485944"/>
<path fill-rule="evenodd" clip-rule="evenodd" d="M1341.9 647.063C1350.42 647.063 1357.36 640.119 1357.36 631.602C1357.36 623.086 1350.42 616.142 1341.9 616.142C1333.39 616.142 1326.44 623.086 1326.44 631.602C1326.44 640.118 1333.39 647.063 1341.9 647.063Z" fill="#72C2FF"/>
<path fill-rule="evenodd" clip-rule="evenodd" d="M1341.81 662.525H1341.99V629.61H1341.81V662.525Z" fill="#485944"/>
<path fill-rule="evenodd" clip-rule="evenodd" d="M1336.15 652.399C1336.34 655.021 1337 656.675 1338.11 657.317C1339.01 657.84 1340.23 657.718 1341.85 656.946C1341.59 655.224 1340.9 653.962 1339.82 653.193C1338.34 652.146 1336.55 652.34 1336.15 652.399ZM1339.36 657.822C1338.86 657.822 1338.41 657.707 1338.02 657.479C1336.84 656.796 1336.14 655.063 1335.96 652.328L1335.95 652.246L1336.03 652.23C1336.05 652.226 1338.19 651.816 1339.92 653.04C1341.07 653.851 1341.78 655.178 1342.04 656.987L1342.05 657.055L1341.99 657.084C1340.98 657.577 1340.11 657.822 1339.36 657.822M1345.22 649.578C1344.74 649.578 1344.02 649.667 1343.39 650.112C1342.72 650.588 1342.3 651.363 1342.13 652.417L1342.44 652.412C1344 652.389 1345.48 652.368 1345.68 649.607C1345.59 649.594 1345.43 649.578 1345.22 649.578ZM1341.91 652.609L1341.92 652.499C1342.09 651.336 1342.55 650.481 1343.29 649.959C1344.4 649.169 1345.74 649.426 1345.8 649.437L1345.88 649.452L1345.87 649.534C1345.69 652.55 1344.04 652.575 1342.44 652.598C1342.3 652.6 1342.16 652.602 1342.02 652.606L1341.91 652.609ZM1342 642.075L1334.75 636.007L1334.86 635.864L1342.12 641.932L1342 642.075ZM1342.24 638.128L1342.14 637.965L1348.61 634.273L1348.7 634.436L1342.24 638.128Z" fill="#485944"/>
</g>
<g opacity="0.7">
<path fill-rule="evenodd" clip-rule="evenodd" d="M1071.6 653.383C1076.64 653.383 1080.75 649.271 1080.75 644.231C1080.75 639.192 1076.64 635.081 1071.6 635.081C1066.55 635.081 1062.44 639.192 1062.44 644.231C1062.44 649.271 1066.55 653.383 1071.6 653.383Z" fill="#72C2FF"/>
<path fill-rule="evenodd" clip-rule="evenodd" d="M1071.5 662.531H1071.69V643.051H1071.5V662.531Z" fill="#485944"/>
<path fill-rule="evenodd" clip-rule="evenodd" d="M1068.23 656.574C1068.35 658.091 1068.73 659.048 1069.37 659.419C1069.89 659.718 1070.59 659.65 1071.52 659.209C1071.37 658.216 1070.97 657.487 1070.34 657.042C1069.52 656.457 1068.52 656.536 1068.23 656.574ZM1070.09 659.787C1069.79 659.787 1069.52 659.718 1069.28 659.58C1068.56 659.163 1068.15 658.157 1068.04 656.501L1068.03 656.419L1068.11 656.403C1068.17 656.393 1069.41 656.154 1070.45 656.888C1071.13 657.374 1071.56 658.169 1071.71 659.251L1071.72 659.317L1071.66 659.347C1071.06 659.641 1070.54 659.787 1070.09 659.787ZM1073.56 654.908C1073.28 654.908 1072.86 654.96 1072.5 655.218C1072.12 655.486 1071.88 655.921 1071.77 656.511L1071.91 656.509C1072.85 656.496 1073.67 656.485 1073.79 654.92C1073.74 654.914 1073.66 654.908 1073.56 654.908ZM1071.55 656.703L1071.57 656.593C1071.67 655.894 1071.95 655.379 1072.39 655.064C1073.07 654.588 1073.87 654.743 1073.91 654.749L1073.99 654.765L1073.98 654.846C1073.87 656.667 1072.83 656.683 1071.91 656.696C1071.83 656.696 1071.75 656.698 1071.67 656.7L1071.55 656.703ZM1071.63 650.458L1067.34 646.868L1067.45 646.726L1071.75 650.315L1071.63 650.458ZM1071.81 648.127L1071.72 647.965L1075.54 645.779L1075.64 645.941L1071.81 648.127Z" fill="#485944"/>
</g>
<g opacity="0.7">
<path fill-rule="evenodd" clip-rule="evenodd" d="M81.7736 623.894C79.7492 626.057 78.5104 628.966 78.5104 632.164C78.5104 638.851 83.9317 644.274 90.6184 644.274C92.3734 644.274 94.041 643.899 95.5465 643.228C97.0519 643.899 98.7186 644.274 100.474 644.274C107.16 644.274 112.584 638.85 112.584 632.164C112.584 629.219 111.532 626.519 109.784 624.421C110.356 623.256 110.676 621.947 110.676 620.563C110.676 615.844 106.95 611.994 102.279 611.796C100.06 609.258 96.7986 607.654 93.1636 607.654C86.4758 607.654 81.0526 613.078 81.0526 619.764C81.0526 621.214 81.3078 622.604 81.7736 623.894Z" fill="#72C2FF"/>
<path fill-rule="evenodd" clip-rule="evenodd" d="M96.1084 661.955H95.9225V620.371H96.1084V661.955Z" fill="#485944"/>
<path fill-rule="evenodd" clip-rule="evenodd" d="M95.8887 637.292L102.732 631.57L102.611 631.428L95.7692 637.15L95.8887 637.292ZM95.625 632.534L95.717 632.371L89.8764 629.033L89.7844 629.196L95.625 632.534ZM95.625 625.222L95.717 625.06L92.9347 623.471L92.8417 623.632L95.625 625.222ZM96.2302 628.55L99.0115 626.96L98.9195 626.797L96.1372 628.387L96.2302 628.55ZM103.512 623.398C103.316 624.687 102.805 625.636 101.99 626.222C100.888 627.014 99.5446 626.895 99.205 626.851C99.4175 623.485 101.215 623.447 103.115 623.407C103.248 623.405 103.381 623.402 103.512 623.398ZM99.7647 627.074C100.371 627.074 101.285 626.957 102.098 626.373C102.98 625.742 103.521 624.711 103.712 623.314L103.727 623.204L103.617 623.209C103.448 623.214 103.28 623.218 103.112 623.221C101.194 623.261 99.2107 623.303 99.0144 626.925L99.0096 627.006L99.0893 627.021C99.1159 627.026 99.3777 627.074 99.7647 627.074Z" fill="#485944"/>
<path fill-rule="evenodd" clip-rule="evenodd" d="M89.2902 619.392L89.6772 619.481C91.5308 619.9 93.2829 620.297 92.8181 623.636C92.4766 623.612 91.1381 623.459 90.2161 622.463C89.5349 621.726 89.2238 620.694 89.2902 619.393V619.392ZM92.9794 623.827L92.9907 623.746C93.522 620.16 91.5887 619.723 89.718 619.3C89.5539 619.262 89.3889 619.225 89.2248 619.186L89.1176 619.159L89.11 619.269C89.017 620.677 89.3433 621.795 90.0804 622.591C91.195 623.794 92.8285 623.825 92.8978 623.826L92.9794 623.827ZM96.2445 615.076C96.3204 615.186 96.3963 615.294 96.474 615.401C97.5744 616.951 98.6151 618.415 96.0405 620.591C95.8015 620.346 94.9069 619.339 94.8851 617.982C94.8699 616.979 95.3262 616.002 96.2445 615.076ZM96.032 620.84L96.0946 620.788C98.8845 618.472 97.7357 616.856 96.6258 615.294C96.5281 615.156 96.4304 615.019 96.3346 614.879L96.272 614.788L96.1932 614.865C95.1839 615.851 94.6812 616.903 94.6992 617.988C94.7257 619.626 95.921 620.739 95.9722 620.786L96.032 620.84Z" fill="#485944"/>
<path fill-rule="evenodd" clip-rule="evenodd" d="M70.3276 634.141C71.8075 635.722 72.7144 637.847 72.7144 640.183C72.7144 645.071 68.7511 649.034 63.8638 649.034C62.5813 649.034 61.3642 648.762 60.2619 648.269C59.1625 648.762 57.9445 649.034 56.662 649.034C51.7747 649.034 47.8124 645.071 47.8124 640.183C47.8124 638.032 48.5807 636.06 49.8585 634.526C49.4411 633.675 49.2059 632.718 49.2059 631.706C49.2059 628.258 51.9303 625.445 55.3434 625.3C56.9655 623.445 59.3494 622.274 62.0055 622.274C66.8927 622.274 70.856 626.236 70.856 631.125C70.856 632.183 70.6682 633.199 70.3276 634.141Z" fill="#72C2FF"/>
<path fill-rule="evenodd" clip-rule="evenodd" d="M60.0156 661.956H59.8287V631.567H60.0156V661.956Z" fill="#485944"/>
<path fill-rule="evenodd" clip-rule="evenodd" d="M59.9976 643.951L60.1171 643.808L55.117 639.625L54.9974 639.769L59.9976 643.951ZM60.2195 640.475L64.4883 638.036L64.3953 637.874L60.1275 640.314L60.2195 640.475ZM60.2195 635.133L62.2534 633.971L62.1613 633.809L60.1275 634.971L60.2195 635.133ZM59.7519 637.565L59.8448 637.403L57.812 636.241L57.7199 636.403L59.7519 637.565Z" fill="#485944"/>
<path fill-rule="evenodd" clip-rule="evenodd" d="M57.5635 636.28C57.2846 636.314 56.3445 636.378 55.5695 635.822C54.9861 635.401 54.6171 634.723 54.4729 633.804L54.7319 633.811C56.1036 633.839 57.4013 633.867 57.5635 636.28ZM57.1821 636.49C57.4667 636.49 57.6593 636.455 57.6792 636.451L57.7589 636.435L57.7542 636.354C57.6081 633.684 56.1482 633.653 54.7366 633.624C54.6133 633.621 54.49 633.619 54.3667 633.614L54.2566 633.61L54.2718 633.72C54.4113 634.749 54.8125 635.508 55.4623 635.974C56.0609 636.404 56.7354 636.49 57.1821 636.49ZM64.8128 630.882C64.8545 631.812 64.6278 632.551 64.1412 633.077C63.4933 633.779 62.557 633.903 62.279 633.925C61.9537 631.529 63.2201 631.243 64.5595 630.94L64.8118 630.883L64.8128 630.882ZM62.1187 634.117H62.2003C62.2506 634.115 63.4553 634.092 64.2768 633.206C64.8204 632.618 65.0604 631.796 64.9921 630.76L64.9845 630.649L64.8773 630.675C64.7587 630.704 64.6382 630.731 64.5178 630.758C63.1394 631.069 61.7146 631.392 62.1073 634.037L62.1187 634.117ZM59.7567 627.736C60.4084 628.402 60.7337 629.103 60.7214 629.821C60.7053 630.777 60.0934 631.49 59.9009 631.693C58.0587 630.124 58.8109 629.066 59.6068 627.947L59.7567 627.736ZM59.9085 631.943L59.9692 631.888C60.0062 631.854 60.8874 631.034 60.9083 629.824C60.9216 629.024 60.5516 628.25 59.8079 627.524L59.7292 627.447L59.6675 627.538L59.455 627.84C58.6364 628.991 57.7893 630.182 59.8458 631.891L59.9085 631.943Z" fill="#485944"/>
<path fill-rule="evenodd" clip-rule="evenodd" d="M24.1001 646.115C15.5845 646.115 8.63967 639.171 8.63967 630.655C8.63967 622.139 15.5845 615.194 24.1011 615.194C32.6158 615.194 39.5625 622.139 39.5625 630.655C39.5625 639.17 32.6158 646.115 24.1001 646.115Z" fill="#72C2FF"/>
<path fill-rule="evenodd" clip-rule="evenodd" d="M24.1958 661.578H24.0099V628.663H24.1958V661.578Z" fill="#485944"/>
<path fill-rule="evenodd" clip-rule="evenodd" d="M29.8553 651.452C29.6637 654.074 29.0044 655.728 27.8945 656.37C26.9933 656.893 25.7696 656.771 24.157 655.999C24.416 654.277 25.099 653.015 26.187 652.245C27.665 651.199 29.4578 651.392 29.8553 651.452ZM26.6395 656.874C27.1461 656.874 27.5938 656.76 27.9875 656.532C29.1666 655.849 29.8591 654.116 30.0469 651.381L30.0536 651.299L29.9729 651.282C29.9511 651.279 27.8101 650.869 26.0789 652.093C24.933 652.904 24.2215 654.231 23.9635 656.04L23.954 656.108L24.0147 656.136C25.0269 656.63 25.8958 656.874 26.6386 656.874M20.7837 648.631C21.2628 648.631 21.9818 648.72 22.6089 649.165C23.2805 649.64 23.7074 650.415 23.8781 651.469L23.5651 651.465C21.9999 651.442 20.521 651.421 20.3227 648.66C20.4138 648.647 20.5769 648.631 20.7837 648.631ZM24.0944 651.662L24.0792 651.552C23.9123 650.389 23.4531 649.534 22.7151 649.011C21.5995 648.222 20.262 648.478 20.206 648.49L20.1254 648.505L20.1311 648.586C20.3161 651.603 21.9667 651.628 23.5632 651.65C23.7036 651.652 23.844 651.654 23.9844 651.659L24.0944 651.662ZM24.0052 641.128L31.2583 635.06L31.1397 634.917L23.8857 640.984L24.0052 641.128ZM23.7671 637.18L23.8591 637.018L17.3981 633.326L17.3061 633.488L23.7671 637.18Z" fill="#485944"/>
</g>
<g opacity="0.7">
<path fill-rule="evenodd" clip-rule="evenodd" d="M285.869 653.383C280.829 653.383 276.719 649.271 276.719 644.231C276.719 639.192 280.829 635.081 285.869 635.081C290.91 635.081 295.021 639.192 295.021 644.231C295.021 649.271 290.91 653.383 285.869 653.383Z" fill="#72C2FF"/>
<path fill-rule="evenodd" clip-rule="evenodd" d="M285.96 662.531H285.775V643.051H285.96V662.531Z" fill="#485944"/>
<path fill-rule="evenodd" clip-rule="evenodd" d="M289.234 656.574C289.118 658.091 288.734 659.048 288.095 659.419C287.577 659.718 286.873 659.65 285.945 659.209C286.099 658.216 286.495 657.487 287.124 657.042C287.949 656.457 288.947 656.536 289.234 656.574ZM287.371 659.787C287.678 659.787 287.949 659.718 288.187 659.58C288.907 659.163 289.311 658.157 289.426 656.501L289.432 656.419L289.352 656.403C289.299 656.393 288.055 656.154 287.017 656.888C286.331 657.374 285.904 658.169 285.75 659.251L285.741 659.317L285.8 659.347C286.405 659.641 286.925 659.787 287.371 659.787ZM283.907 654.908C284.185 654.908 284.602 654.96 284.965 655.218C285.344 655.486 285.588 655.921 285.692 656.511L285.555 656.509C284.613 656.496 283.797 656.485 283.674 654.92C283.729 654.914 283.808 654.908 283.907 654.908ZM285.909 656.703L285.893 656.593C285.795 655.894 285.518 655.379 285.071 655.064C284.397 654.588 283.59 654.743 283.556 654.749L283.475 654.765L283.481 654.846C283.591 656.667 284.633 656.683 285.552 656.696C285.634 656.696 285.717 656.698 285.798 656.7L285.909 656.703ZM285.836 650.458L290.129 646.868L290.01 646.726L285.717 650.315L285.836 650.458ZM285.653 648.127L285.745 647.965L281.92 645.779L281.828 645.941L285.653 648.127Z" fill="#485944"/>
</g>
<g opacity="0.7">
<path fill-rule="evenodd" clip-rule="evenodd" d="M704.435 635.123C705.853 636.638 706.72 638.674 706.72 640.912C706.72 645.593 702.925 649.389 698.244 649.389C697.015 649.389 695.848 649.127 694.794 648.657C693.741 649.127 692.574 649.389 691.345 649.389C686.665 649.389 682.868 645.593 682.868 640.912C682.868 638.851 683.604 636.961 684.828 635.493C684.428 634.677 684.203 633.761 684.203 632.791C684.203 629.488 686.812 626.794 690.081 626.655C691.635 624.879 693.918 623.756 696.463 623.756C701.145 623.756 704.941 627.552 704.941 632.233C704.941 633.248 704.761 634.221 704.435 635.123Z" fill="#72C2FF"/>
<path fill-rule="evenodd" clip-rule="evenodd" d="M694.401 661.766H694.531V632.657H694.401V661.766Z" fill="#485944"/>
<path fill-rule="evenodd" clip-rule="evenodd" d="M694.556 644.502L689.765 640.497L689.849 640.396L694.639 644.402L694.556 644.502ZM694.74 641.171L694.675 641.058L698.764 638.721L698.828 638.834L694.74 641.171ZM694.74 636.053L694.675 635.939L696.624 634.827L696.688 634.94L694.74 636.053ZM694.317 638.383L692.369 637.27L692.434 637.156L694.381 638.269L694.317 638.383Z" fill="#485944"/>
<path fill-rule="evenodd" clip-rule="evenodd" d="M689.218 634.776C689.356 635.678 689.713 636.343 690.284 636.752C691.056 637.307 691.996 637.225 692.233 637.193C692.085 634.837 690.826 634.81 689.496 634.783C689.403 634.781 689.31 634.779 689.218 634.776ZM691.841 637.35C691.417 637.35 690.778 637.268 690.21 636.859C689.591 636.416 689.212 635.696 689.078 634.717L689.068 634.641L689.144 634.643C689.263 634.647 689.381 634.649 689.498 634.652C690.841 634.681 692.23 634.709 692.367 637.245L692.37 637.302L692.314 637.312C692.296 637.316 692.112 637.35 691.841 637.35ZM699.173 631.971C699.083 631.993 698.993 632.013 698.902 632.034C697.604 632.328 696.378 632.605 696.704 634.943C696.942 634.926 697.88 634.819 698.525 634.121C699.001 633.606 699.219 632.883 699.173 631.971ZM696.591 635.076L696.582 635.019C696.211 632.508 697.564 632.203 698.873 631.907C698.989 631.88 699.104 631.855 699.218 631.827L699.294 631.808L699.299 631.886C699.365 632.872 699.136 633.653 698.62 634.21C697.84 635.053 696.696 635.075 696.647 635.075L696.59 635.076H696.591ZM694.306 628.951L694.144 629.179C693.374 630.263 692.646 631.288 694.448 632.811C694.615 632.64 695.242 631.934 695.256 630.985C695.268 630.283 694.949 629.599 694.306 628.951ZM694.454 632.986L694.41 632.949C692.457 631.327 693.261 630.197 694.038 629.103C694.106 629.006 694.176 628.909 694.242 628.813L694.286 628.749L694.341 628.803C695.047 629.494 695.399 630.229 695.387 630.989C695.368 632.136 694.531 632.914 694.495 632.948L694.454 632.986Z" fill="#485944"/>
<path fill-rule="evenodd" clip-rule="evenodd" d="M656.211 642.296C655.176 643.403 654.54 644.892 654.54 646.527C654.54 649.948 657.314 652.722 660.734 652.722C661.633 652.722 662.485 652.532 663.257 652.186C664.026 652.531 664.879 652.722 665.776 652.722C669.197 652.722 671.971 649.948 671.971 646.527C671.971 645.02 671.434 643.64 670.539 642.566C670.831 641.97 670.996 641.3 670.996 640.593C670.996 638.178 669.089 636.21 666.699 636.108C665.565 634.809 663.896 633.99 662.036 633.99C658.615 633.99 655.842 636.763 655.842 640.185C655.842 640.926 655.971 641.637 656.211 642.296Z" fill="#72C2FF"/>
<path fill-rule="evenodd" clip-rule="evenodd" d="M663.43 661.768H663.56V640.495H663.43V661.768Z" fill="#485944"/>
<path fill-rule="evenodd" clip-rule="evenodd" d="M663.442 649.164L663.359 649.063L666.859 646.136L666.942 646.236L663.442 649.164ZM663.286 646.731L660.298 645.023L660.364 644.909L663.351 646.618L663.286 646.731ZM663.286 642.99L661.864 642.177L661.928 642.063L663.351 642.877L663.286 642.99ZM663.614 644.693L663.549 644.579L664.972 643.766L665.037 643.88L663.614 644.693Z" fill="#485944"/>
<path fill-rule="evenodd" clip-rule="evenodd" d="M665.145 643.794C665.341 643.818 665.999 643.864 666.542 643.474C666.95 643.18 667.208 642.705 667.31 642.06L667.128 642.066C666.167 642.085 665.259 642.105 665.145 643.794ZM665.413 643.941C665.214 643.941 665.079 643.917 665.065 643.914L665.009 643.903L665.013 643.847C665.115 641.978 666.137 641.956 667.125 641.935L667.383 641.928L667.46 641.926L667.451 642.002C667.352 642.722 667.071 643.254 666.617 643.58C666.197 643.881 665.725 643.941 665.413 643.941ZM660.071 640.016C660.043 640.667 660.2 641.183 660.542 641.553C660.995 642.043 661.65 642.131 661.845 642.146C662.073 640.469 661.187 640.267 660.249 640.057L660.071 640.016ZM661.958 642.281H661.901C661.866 642.28 661.023 642.264 660.448 641.643C660.068 641.232 659.899 640.656 659.947 639.932L659.952 639.854L660.028 639.873L660.279 639.93C661.244 640.148 662.242 640.374 661.967 642.225L661.958 642.281ZM663.611 637.813C663.154 638.279 662.928 638.771 662.935 639.273C662.947 639.942 663.375 640.442 663.51 640.583C664.799 639.486 664.273 638.745 663.716 637.961L663.611 637.813ZM663.504 640.758L663.462 640.72C663.436 640.695 662.818 640.122 662.805 639.275C662.796 638.716 663.055 638.174 663.574 637.665L663.631 637.611L663.673 637.675L663.822 637.886C664.395 638.693 664.987 639.526 663.548 640.722L663.504 640.758Z" fill="#485944"/>
</g>
<g opacity="0.3">
<path fill-rule="evenodd" clip-rule="evenodd" d="M1091.87 428.467C1091.85 428.467 1091.83 428.464 1091.82 428.457C1091.74 428.43 1091.69 428.344 1091.72 428.264C1093.23 423.957 1097.33 418.673 1102.78 417.252C1106.61 416.253 1110.52 417.393 1114.09 420.547C1114.16 420.604 1114.16 420.699 1114.11 420.763C1114.05 420.827 1113.96 420.832 1113.89 420.776C1110.35 417.648 1106.64 416.562 1102.86 417.548C1097.52 418.942 1093.49 424.132 1092.01 428.364C1091.99 428.428 1091.93 428.467 1091.87 428.467ZM1118.49 440.777C1118.12 440.777 1117.76 440.767 1117.41 440.747C1114.93 440.604 1113.04 439.985 1112.08 438.998C1112.02 438.938 1112.02 438.841 1112.08 438.782C1112.14 438.722 1112.24 438.723 1112.3 438.784C1114.13 440.658 1119.67 441.03 1124.66 439.611C1130.03 438.082 1133.03 434.245 1132.68 429.347C1132.51 426.864 1131.47 424.424 1129.75 422.476C1127.92 420.395 1125.54 419.101 1122.87 418.734C1119.93 418.328 1116.67 419.446 1113.94 421.797C1111.29 424.078 1109.55 427.166 1109.52 429.667C1109.52 429.751 1109.44 429.819 1109.36 429.819C1109.28 429.817 1109.21 429.747 1109.21 429.662C1109.25 427.079 1111.02 423.9 1113.74 421.566C1116.54 419.156 1119.88 418.014 1122.91 418.431C1125.62 418.803 1128.13 420.167 1129.98 422.273C1131.74 424.271 1132.81 426.775 1132.99 429.325C1133.15 431.641 1132.57 433.812 1131.3 435.605C1129.86 437.629 1127.66 439.075 1124.74 439.905C1122.76 440.47 1120.53 440.777 1118.49 440.777Z" fill="black"/>
<path fill-rule="evenodd" clip-rule="evenodd" d="M1107.05 440.756C1105.97 440.756 1104.91 440.562 1103.92 440.18C1102.22 439.531 1100.76 438.34 1099.68 436.733C1099.63 436.663 1099.65 436.568 1099.72 436.52C1099.79 436.473 1099.89 436.492 1099.93 436.563C1100.99 438.139 1102.37 439.26 1104.03 439.895C1105.49 440.457 1107.1 440.596 1108.68 440.295C1111.47 439.761 1113.59 437.963 1114.08 435.715C1114.1 435.631 1114.18 435.579 1114.26 435.597C1114.35 435.614 1114.4 435.696 1114.38 435.778C1113.87 438.148 1111.65 440.039 1108.74 440.596C1108.18 440.703 1107.61 440.757 1107.05 440.757" fill="black"/>
<path fill-rule="evenodd" clip-rule="evenodd" d="M1092.81 440.148C1086.46 440.148 1084.02 436.813 1083.13 434.766C1081.56 431.165 1082.46 426.54 1085.27 423.766C1086.46 422.597 1087.93 421.84 1089.51 421.578C1091.3 421.282 1093.22 421.592 1095.21 422.495C1095.29 422.53 1095.32 422.621 1095.29 422.698C1095.25 422.775 1095.16 422.809 1095.08 422.774C1090.09 420.515 1086.93 422.562 1085.49 423.984C1082.76 426.672 1081.89 431.156 1083.41 434.644C1084.31 436.707 1086.84 440.121 1093.64 439.823C1096.74 439.349 1100.59 437.221 1101.25 432.782C1101.26 432.699 1101.34 432.641 1101.42 432.653C1101.51 432.666 1101.57 432.744 1101.55 432.827C1101.12 435.707 1098.8 439.348 1093.68 440.127L1093.66 440.129C1093.37 440.141 1093.09 440.148 1092.81 440.148Z" fill="black"/>
</g>
<g opacity="0.3">
<path fill-rule="evenodd" clip-rule="evenodd" d="M91.1172 293.594L91.0888 293.592C91.0053 293.575 90.9512 293.496 90.9664 293.413C91.861 288.71 94.8775 284.989 99.4603 282.934C105.55 280.205 113.469 280.83 119.637 284.528C119.71 284.57 119.734 284.665 119.69 284.737C119.647 284.809 119.553 284.833 119.481 284.789C113.395 281.142 105.586 280.523 99.5855 283.213C95.0967 285.226 92.1427 288.868 91.2671 293.47C91.2538 293.543 91.1893 293.594 91.1172 293.594Z" fill="black"/>
<path fill-rule="evenodd" clip-rule="evenodd" d="M132.439 307.769C130.006 307.769 127.538 306.967 125.492 305.417C125.424 305.367 125.411 305.271 125.461 305.204C125.513 305.137 125.609 305.123 125.677 305.174C128.947 307.651 133.326 308.165 136.83 306.485C140.226 304.856 142.243 301.443 142.364 297.123C142.464 293.539 141.444 290.305 139.417 287.771C137.595 285.495 135.059 283.853 132.086 283.022C129.297 282.244 126.338 282.272 123.753 283.103C120.975 283.996 118.786 285.737 117.421 288.14C116.377 289.962 116.316 291.681 116.316 291.698C116.313 291.783 116.244 291.847 116.158 291.846C116.074 291.845 116.007 291.773 116.009 291.69C116.012 291.616 116.072 289.879 117.154 287.988C118.558 285.518 120.806 283.728 123.659 282.812C126.301 281.963 129.322 281.933 132.168 282.727C135.204 283.576 137.793 285.254 139.655 287.58C141.729 290.17 142.772 293.473 142.67 297.132C142.546 301.571 140.465 305.08 136.962 306.761C135.551 307.437 134.003 307.769 132.439 307.769Z" fill="black"/>
<path fill-rule="evenodd" clip-rule="evenodd" d="M115.85 309.508C114.856 309.508 113.864 309.4 112.89 309.186C110.089 308.569 107.519 307.048 105.459 304.788C105.402 304.726 105.407 304.629 105.468 304.572C105.531 304.515 105.629 304.52 105.686 304.581C107.732 306.826 110.178 308.275 112.957 308.888C115.419 309.431 118.001 309.268 120.424 308.418C124.731 306.906 127.667 303.547 127.905 299.857C127.91 299.772 127.983 299.709 128.067 299.714C128.152 299.72 128.215 299.792 128.209 299.877C127.964 303.69 124.948 307.155 120.526 308.706C119.006 309.239 117.426 309.508 115.849 309.508" fill="black"/>
<path fill-rule="evenodd" clip-rule="evenodd" d="M90.7724 308.468C88.5479 308.468 86.554 308.143 84.8104 307.493C82.1524 306.504 80.1224 304.748 78.9395 302.415C77.8732 300.31 77.5317 297.789 77.9785 295.314C78.4149 292.888 79.5627 290.715 81.2095 289.196C84.3352 286.313 88.6836 286.223 93.1392 288.953C93.2113 288.996 93.2341 289.09 93.1895 289.163C93.1449 289.234 93.051 289.258 92.9789 289.213C88.6485 286.561 84.4348 286.637 81.4172 289.422C79.8198 290.894 78.7051 293.007 78.2792 295.368C77.8438 297.778 78.1758 300.23 79.2127 302.276C80.3595 304.538 82.3317 306.243 84.9176 307.206C87.9513 308.336 91.7647 308.465 96.2535 307.588C100.238 306.355 102.995 305.017 104.683 303.498C106.281 302.057 107.026 300.392 107.026 298.258C107.026 298.174 107.094 298.106 107.179 298.106C107.264 298.106 107.332 298.174 107.332 298.258C107.332 300.485 106.554 302.222 104.888 303.724C103.142 305.298 100.424 306.62 96.3351 307.883C96.3303 307.885 96.3256 307.887 96.319 307.888C94.3392 308.274 92.4866 308.468 90.7724 308.468Z" fill="black"/>
</g>
<g opacity="0.3">
<path fill-rule="evenodd" clip-rule="evenodd" d="M243.26 416.916C241.108 416.916 238.881 416.582 236.889 415.803C233.39 414.435 231.004 411.879 229.988 408.409C228.583 403.616 230.784 397.622 235.111 394.467C237.141 392.986 239.523 392.218 241.998 392.237C244.823 392.259 247.737 393.276 250.662 395.259C250.732 395.306 250.75 395.401 250.702 395.471C250.655 395.542 250.56 395.56 250.49 395.512C247.616 393.565 244.758 392.565 241.996 392.543H241.901C239.525 392.543 237.241 393.292 235.291 394.714C231.064 397.797 228.911 403.648 230.281 408.323C231.27 411.698 233.593 414.186 237 415.518C241.847 417.414 248.106 416.634 251.124 414.823C251.198 414.78 251.291 414.804 251.335 414.876C251.378 414.948 251.354 415.042 251.283 415.085C249.445 416.187 246.435 416.916 243.26 416.916Z" fill="black"/>
<path fill-rule="evenodd" clip-rule="evenodd" d="M264.371 420.918C262.706 420.918 261.074 420.754 259.533 420.423C255.572 419.575 252.566 417.659 251.073 415.03C249.99 413.14 249.93 411.403 249.927 411.33C249.925 411.245 249.992 411.176 250.076 411.173C250.16 411.174 250.231 411.236 250.234 411.322C250.234 411.338 250.295 413.058 251.339 414.879C252.788 417.431 255.721 419.294 259.596 420.124C263.275 420.911 267.468 420.74 271.401 419.642C274.981 418.642 278.005 416.962 280.149 414.783C282.573 412.321 283.754 409.378 283.66 406.038C283.54 401.717 281.523 398.305 278.127 396.675C274.623 394.995 270.246 395.51 266.974 397.988C266.906 398.039 266.81 398.026 266.759 397.959C266.708 397.891 266.721 397.795 266.788 397.744C270.152 395.197 274.654 394.67 278.26 396.4C281.763 398.081 283.843 401.591 283.967 406.03C284.063 409.456 282.853 412.473 280.368 414.998C278.186 417.214 275.116 418.923 271.484 419.937C269.151 420.589 266.728 420.918 264.371 420.918Z" fill="black"/>
<path fill-rule="evenodd" clip-rule="evenodd" d="M268.781 404.134C268.701 404.134 268.634 404.071 268.629 403.991C268.496 401.919 267.626 399.767 266.181 397.93C264.673 396.012 262.63 394.589 260.431 393.923C257.313 392.98 251.062 392.73 244.244 401.659C244.192 401.726 244.096 401.739 244.029 401.688C243.962 401.637 243.949 401.541 244.001 401.474C250.932 392.397 257.325 392.663 260.519 393.631C262.778 394.314 264.875 395.774 266.422 397.741C267.905 399.627 268.796 401.839 268.934 403.971C268.94 404.055 268.875 404.128 268.791 404.133L268.781 404.134Z" fill="black"/>
</g>
<g opacity="0.3">
<path fill-rule="evenodd" clip-rule="evenodd" d="M1239.53 283.023C1239.45 283.023 1239.38 282.956 1239.38 282.874C1239.25 278.72 1240.6 274.724 1243.29 271.32C1245.81 268.13 1249.27 265.799 1253.03 264.762C1256.38 263.836 1259.75 264.006 1262.76 265.252C1266.16 266.655 1268.96 269.315 1271.09 273.16C1271.13 273.234 1271.11 273.327 1271.03 273.368C1270.96 273.409 1270.87 273.382 1270.83 273.309C1268.72 269.525 1265.97 266.911 1262.65 265.535C1259.7 264.316 1256.4 264.15 1253.11 265.056C1249.41 266.077 1246.01 268.369 1243.53 271.51C1240.89 274.856 1239.56 278.783 1239.68 282.864C1239.69 282.95 1239.62 283.02 1239.54 283.022L1239.53 283.023Z" fill="black"/>
<path fill-rule="evenodd" clip-rule="evenodd" d="M1279.67 301.232C1278.06 301.232 1276.46 300.662 1274.97 299.536C1274.91 299.485 1274.89 299.389 1274.94 299.322C1274.99 299.255 1275.09 299.241 1275.16 299.292C1277.52 301.082 1280.19 301.411 1282.67 300.221C1284.49 299.346 1286.08 297.734 1287.27 295.559C1288.51 293.28 1289.2 290.534 1289.29 287.619C1289.39 284.033 1288.37 280.798 1286.34 278.266C1284.52 275.989 1281.98 274.348 1279.01 273.517C1276.22 272.738 1273.26 272.768 1270.68 273.598C1267.9 274.49 1265.71 276.232 1264.34 278.634C1263.3 280.46 1263.24 282.176 1263.24 282.193C1263.24 282.277 1263.17 282.346 1263.08 282.342C1263 282.34 1262.93 282.269 1262.93 282.184C1262.94 282.111 1262.99 280.373 1264.08 278.483C1265.48 276.013 1267.73 274.224 1270.58 273.306C1273.22 272.458 1276.25 272.428 1279.09 273.221C1282.13 274.07 1284.72 275.747 1286.58 278.074C1288.65 280.666 1289.69 283.969 1289.59 287.627C1289.51 290.591 1288.8 293.385 1287.53 295.706C1286.32 297.937 1284.68 299.593 1282.8 300.496C1281.78 300.988 1280.72 301.232 1279.67 301.232Z" fill="black"/>
<path fill-rule="evenodd" clip-rule="evenodd" d="M1260.47 306.006C1259.78 306.006 1259.09 305.96 1258.43 305.87C1255.48 305.465 1253.01 304.199 1251.1 302.106C1251.05 302.044 1251.05 301.947 1251.11 301.89C1251.18 301.833 1251.27 301.837 1251.33 301.899C1253.19 303.939 1255.59 305.172 1258.47 305.567C1261.01 305.915 1263.84 305.579 1266.64 304.594C1272.6 302.502 1277.12 298.036 1277.39 293.976C1277.39 293.891 1277.46 293.83 1277.55 293.833C1277.63 293.838 1277.7 293.911 1277.69 293.995C1277.42 298.173 1272.82 302.752 1266.74 304.883C1264.62 305.627 1262.49 306.006 1260.47 306.006ZM1239.81 305.274C1235.8 305.274 1232.39 304.543 1229.66 303.095C1226.88 301.622 1224.83 299.379 1223.72 296.606C1222.62 293.865 1222.46 290.637 1223.27 287.516C1224.05 284.48 1225.66 281.814 1227.8 280.009C1229.45 278.622 1231.36 277.804 1233.34 277.641C1235.54 277.459 1237.81 278.067 1240.06 279.448C1240.13 279.491 1240.16 279.586 1240.11 279.657C1240.07 279.729 1239.97 279.752 1239.9 279.709C1237.7 278.362 1235.5 277.77 1233.36 277.946C1231.45 278.104 1229.6 278.898 1228 280.243C1225.91 282.007 1224.33 284.618 1223.56 287.592C1222.77 290.65 1222.93 293.811 1224 296.492C1225.38 299.951 1229.55 305.643 1241.92 304.903C1245.77 304.903 1248.65 303.85 1250.49 301.772C1251.9 300.194 1252.67 297.994 1252.67 295.578C1252.67 295.493 1252.74 295.424 1252.82 295.424C1252.91 295.424 1252.97 295.493 1252.97 295.578C1252.97 298.069 1252.17 300.34 1250.72 301.975C1248.81 304.121 1245.86 305.209 1241.93 305.209C1241.21 305.252 1240.5 305.274 1239.81 305.274" fill="black"/>
</g>
<path d="M0 662.116H1366" stroke="#BBBBBB" stroke-width="0.948611"/>
</svg>
