<?xml version="1.0" encoding="utf-8"?>
<!-- Generator: Adobe Illustrator 21.0.0, SVG Export Plug-In . SVG Version: 6.00 Build 0)  -->
<svg version="1.1" id="Isolation_Mode" xmlns="http://www.w3.org/2000/svg" xmlns:xlink="http://www.w3.org/1999/xlink" x="0px"
	 y="0px" viewBox="0 0 751 489" style="enable-background:new 0 0 751 489;" xml:space="preserve">
<style type="text/css">
	.st0{opacity:0.1;}
	.st1{enable-background:new    ;}
	.st2{fill:#BC1E1E;}
	.st3{fill:url(#SVGID_1_);}
	.st4{fill:url(#SVGID_2_);}
	.st5{opacity:0.8;}
	.st6{fill:url(#SVGID_3_);}
	.st7{opacity:0.75;fill:url(#SVGID_4_);enable-background:new    ;}
	.st8{opacity:0.75;}
	.st9{fill:url(#SVGID_5_);}
	.st10{fill:url(#SVGID_6_);}
	.st11{fill:url(#SVGID_7_);}
	.st12{fill:#CC3232;}
	.st13{fill:#FF605B;}
	.st14{fill:url(#SVGID_8_);}
	.st15{opacity:0.87;}
	.st16{fill:url(#SVGID_9_);}
	.st17{fill:url(#SVGID_10_);}
	.st18{opacity:0.66;}
	.st19{fill:url(#SVGID_11_);}
	.st20{fill:url(#SVGID_12_);}
	.st21{fill:url(#SVGID_13_);}
	.st22{fill:url(#SVGID_14_);}
	.st23{fill:url(#SVGID_15_);}
	.st24{fill:url(#SVGID_16_);}
	.st25{opacity:0.66;fill:url(#SVGID_17_);enable-background:new    ;}
	.st26{opacity:0.82;}
	.st27{fill:url(#SVGID_18_);}
	.st28{fill:url(#SVGID_19_);}
	.st29{opacity:0.55;}
	.st30{fill:url(#SVGID_20_);}
	.st31{opacity:0.88;}
	.st32{fill:url(#SVGID_21_);}
	.st33{fill:url(#SVGID_22_);}
	.st34{fill:url(#SVGID_23_);}
	.st35{fill:url(#SVGID_24_);}
	.st36{fill:url(#SVGID_25_);}
	.st37{fill:url(#SVGID_26_);}
	.st38{fill:#EFEFEF;}
	.st39{fill:#4F4F4F;}
	.st40{fill:#E0E1E0;}
	.st41{opacity:3.000000e-02;fill:#3A3A3A;enable-background:new    ;}
</style>
<g>
	<g>
		<g class="st0">
			<path d="M507.6,63.4v11.8h-4.4V63.4h-9.7v-5.9H518v18.3h-4.5V63.4H507.6z"/>
			<path d="M518.4,85.1h-24.8v-5.5h24.8V85.1z"/>
			<path d="M499,107.4c-2.5-0.7-5.9-3.2-5.9-9.1c0-5.8,3.6-9.4,9.5-9.4c5.9,0,9.6,3.4,9.6,9.4c0,5.9-3.7,9.8-10.7,9.3V94.4
				c-2.8,0-4.7,1.6-4.7,3.8c0,2.4,1.5,3.2,2.5,3.5L499,107.4z M504.8,94.5v7.5c2.2-0.1,3.7-1.5,3.7-3.7
				C508.6,95.9,507,94.6,504.8,94.5z"/>
			<path d="M499,128.8c-2.5-0.7-5.9-3.2-5.9-9.1c0-5.8,3.6-9.4,9.5-9.4c5.9,0,9.6,3.4,9.6,9.4c0,5.9-3.7,9.8-10.7,9.3v-13.1
				c-2.8,0-4.7,1.6-4.7,3.8c0,2.4,1.5,3.2,2.5,3.5L499,128.8z M504.8,115.9v7.5c2.2-0.1,3.7-1.5,3.7-3.7
				C508.6,117.4,507,116.1,504.8,115.9z"/>
			<path d="M497.7,142.9h-4c-0.2-0.7-0.4-2.2-0.4-3.4c0-3.9,1-5.6,4.8-5.6h10.3v-2.8h3.5v2.8h5v5.5h-5.1v3.7h-3.5v-3.7h-9.1
				c-1.5,0-1.7,0.6-1.7,1.9C497.5,141.9,497.6,142.5,497.7,142.9z"/>
		</g>
	</g>
	<g>
		<g class="st0">
			<path d="M70.2,271.1c0,6.3-3.9,9.9-9.4,9.9s-9.4-3.6-9.4-9.9c0-6.3,3.9-9.9,9.4-9.9C66.3,261.3,70.2,264.9,70.2,271.1z
				 M65.6,271.1c0-4.4-2.2-6.3-4.9-6.3c-2.7,0-4.9,1.9-4.9,6.3c0,4.4,2.2,6.3,4.9,6.3C63.6,277.4,65.6,275.6,65.6,271.1z"/>
			<path d="M83.1,261.7c3.8,0,6.1,2.1,6.1,5.1c0,1.8-0.9,3-2.4,3.7v0.1c1.8,0.7,3,2.2,3,4.4c0,3.5-2.3,5.6-6.3,5.6h-9.9v-18.9
				L83.1,261.7L83.1,261.7z M82.2,269.4c1.7,0,2.5-0.8,2.5-2.2s-0.9-2.2-2.5-2.2h-4.1v4.3L82.2,269.4L82.2,269.4z M82.5,277.1
				c1.8,0,2.7-0.9,2.7-2.4c0-1.5-0.9-2.4-2.7-2.4h-4.4v4.7H82.5z"/>
			<path d="M100.6,261.7c5.7,0,9.7,2.9,9.7,9.4c0,6.5-3.9,9.4-9.7,9.4H93v-18.9L100.6,261.7L100.6,261.7z M99.9,277.1
				c3.6,0,5.8-1.6,5.8-6c0-4.4-2.2-6-5.8-6h-2.4V277L99.9,277.1L99.9,277.1z"/>
			<path d="M132.6,278.9c-1.6,1.3-3.5,2-5.6,2c-3.8,0-7.4-1.8-7.4-5.6c0-2.5,1.4-4,3.7-5.2l0.6-0.3c-1.6-1.8-2-2.8-2-4.1
				c0-2.5,2.4-4.5,5.9-4.5c3.4,0,5.9,2,5.9,4.5c0,2-1.5,3-3.2,4l-1.1,0.6l2.8,2.9c0.3-0.9,0.4-1.8,0.4-2.6h3.5
				c0,2.1-0.5,3.9-1.3,5.5l4.3,4.4h-4.9L132.6,278.9z M130.3,276.6l-4.2-4.4l-0.3,0.1c-1.4,0.8-2.2,1.7-2.2,2.9
				c0,1.6,1.2,2.5,3.3,2.5C128.3,277.8,129.5,277.4,130.3,276.6z M125.9,265.9c0,0.7,0.4,1.3,1.4,2.4l0.5-0.3c1.2-0.6,2-1.1,2-2.1
				c0-0.9-0.6-1.9-2-1.9C126.4,264.1,125.9,265.1,125.9,265.9L125.9,265.9z"/>
			<path d="M166.1,273.9c-0.7,3.7-3.8,7.1-8.8,7.1c-5.5,0-9.3-3.6-9.3-9.9c0-6.3,3.8-9.9,9.3-9.9c4.7,0,7.7,2.9,8.6,6l-4.5,0.6
				c-0.6-1.7-2-3-4.1-3c-2.5,0-4.7,1.9-4.7,6.3s2.2,6.3,4.7,6.3c2.4,0,3.8-1.7,4.3-3.9L166.1,273.9z"/>
			<path d="M173.3,276.4l-1.4,4.2h-4.8l6.9-18.9h6l6.9,18.9H182l-1.4-4.2H173.3z M177,265.4L177,265.4l-2.6,7.6h5.2L177,265.4z"/>
			<path d="M201.5,280.6l-7.6-12.9h-0.1v12.9h-4.1v-18.9h5.1l7.5,12.6h0.1v-12.6h4.1v18.9H201.5z"/>
		</g>
	</g>
	<g>
		<g class="st0">
			<path d="M448.4,322.6v4.9h-3.5v-14.7h3.5v5.8l5.1-5.8h4l-5.1,5.6l5.9,9.1h-4.1l-4.2-6.6L448.4,322.6z"/>
			<path d="M469.8,324.2c-0.4,1.6-1.9,3.5-5.5,3.5c-3.5,0-5.6-2.2-5.6-5.7s2.1-5.7,5.6-5.7s5.9,2.3,5.6,6.4h-7.8
				c0,1.8,0.9,2.8,2.3,2.8s2-0.9,2.2-1.6L469.8,324.2z M462.1,320.6h4.5c-0.1-1.3-0.9-2.3-2.3-2.3S462.2,319.5,462.1,320.6z"/>
			<path d="M478.8,327.4c-1.3,3.6-2.7,4-4.7,4c-0.8,0-1.5-0.1-2-0.1v-2.6c0.3,0.1,0.8,0.1,1.4,0.1c1,0,1.4-0.3,1.7-1.2l0.1-0.3
				l-4.4-10.9h3.5l2.4,7.1h0.1l2.2-7.1h3.5L478.8,327.4z"/>
			<path d="M487.8,312.5v14.9h-3.2v-14.9H487.8z"/>
			<path d="M501.2,324.2c-0.4,1.6-1.9,3.5-5.5,3.5c-3.5,0-5.6-2.2-5.6-5.7s2.1-5.7,5.6-5.7c3.5,0,5.9,2.3,5.6,6.4h-7.8
				c0,1.8,0.9,2.8,2.3,2.8c1.4,0,2-0.9,2.2-1.6L501.2,324.2z M493.4,320.6h4.5c-0.1-1.3-0.9-2.3-2.3-2.3
				C494.3,318.4,493.4,319.5,493.4,320.6z"/>
			<path d="M510,319.8c-0.2-1-1-1.5-2-1.5c-1,0-1.6,0.4-1.6,1.2c0,0.7,0.7,0.9,1.8,1.1l1.2,0.2c2,0.3,3.9,0.9,3.9,3.4
				c0,2.4-2.3,3.5-5.2,3.5c-2.8,0-5-1.3-5.3-3.4l3-0.4c0.2,1.2,1.1,1.8,2.3,1.8c1.1,0,1.9-0.5,1.9-1.3c0-0.7-0.8-1-2-1.2l-1.3-0.2
				c-1.8-0.3-3.6-0.9-3.6-3.3c0-2.2,2.3-3.4,4.9-3.4c2.6,0,4.6,1.2,5,3.2L510,319.8z"/>
			<path d="M521.9,319.8c-0.2-1-1-1.5-2-1.5s-1.6,0.4-1.6,1.2c0,0.7,0.7,0.9,1.8,1.1l1.2,0.2c2,0.3,3.9,0.9,3.9,3.4
				c0,2.4-2.3,3.5-5.2,3.5c-2.8,0-5-1.3-5.3-3.4l3-0.4c0.2,1.2,1.1,1.8,2.3,1.8c1.1,0,1.9-0.5,1.9-1.3c0-0.7-0.8-1-2-1.2l-1.3-0.2
				c-1.8-0.3-3.6-0.9-3.6-3.3c0-2.2,2.3-3.4,4.9-3.4s4.6,1.2,5,3.2L521.9,319.8z"/>
		</g>
	</g>
	<g>
		<g class="st0">
			<path d="M271.9,53.9h-2.4v-6.4h-3.1v6.8h-2.5v-10h13.3v9.9h-2.4v-6.7h-2.8V53.9z"/>
			<path d="M263.8,64.4v-3.8l13.3-4.7v3.4l-10,3.2v0.1l10,3.2v3.2L263.8,64.4z"/>
			<path d="M274.5,82.5h-10.7v-3.1h10.7v-4.2h2.6v11.6h-2.6V82.5z"/>
			<path d="M266.8,96.5c-1.4-0.4-3.2-1.8-3.2-5c0-3.1,2-5.1,5.2-5.1s5.2,1.9,5.2,5.1c0,3.2-2,5.3-5.8,5.1v-7.1
				c-1.6,0-2.5,0.8-2.5,2.1c0,1.3,0.8,1.8,1.4,2L266.8,96.5z M270,89.4v4.1c1.2-0.1,2.1-0.8,2.1-2.1C272,90.2,271.1,89.5,270,89.4z"
				/>
			<path d="M277.3,101.6h-13.5v-2.9h13.5V101.6z"/>
			<path d="M266.8,113.7c-1.4-0.4-3.2-1.8-3.2-5c0-3.1,2-5.1,5.2-5.1s5.2,1.9,5.2,5.1c0,3.2-2,5.3-5.8,5.1v-7.1
				c-1.6,0-2.5,0.8-2.5,2.1c0,1.3,0.8,1.8,1.4,2L266.8,113.7z M270,106.7v4.1c1.2-0.1,2.1-0.8,2.1-2.1
				C272,107.5,271.1,106.8,270,106.7z"/>
			<path d="M273.9,128c0,1.9-1.1,3.3-3.6,3.3h-6.5v-2.9h5.8c1.5,0,2-0.6,2-1.6c0-1-0.8-1.8-2.4-1.8h-5.4v-2.9h5.8c1.5,0,2-0.6,2-1.6
				c0-1-0.8-1.8-2.4-1.8h-5.4v-2.9h9.9v2.8h-1.4v0.1c0.9,0.6,1.6,1.6,1.6,3c0,1.3-0.5,2.4-1.7,2.8
				C273.1,125.4,273.9,126.4,273.9,128L273.9,128z"/>
			<path d="M265.9,142.7c0,0.1,0,0.3,0.1,0.4h-2.2c-0.1-0.3-0.1-0.7-0.1-1.3c0-1.3,0.3-2,1.2-2.3v-0.1c-0.8-0.6-1.2-1.8-1.2-2.9
				c0-1.9,1.1-3.4,2.9-3.4c2.2,0,2.9,1.4,3.2,3.9c0.3,1.9,0.5,2.4,1.1,2.4c0.7,0,1.1-0.5,1.1-1.4c0-0.8-0.5-1.5-1.4-1.8l0.3-2.7
				c2,0.4,3,2.2,3,4.5c0,2.9-1.3,4.3-3.3,4.3h-4.2C266,142.3,265.9,142.4,265.9,142.7L265.9,142.7z M268.6,139.4
				c-0.2-0.3-0.4-1-0.5-1.8c-0.2-0.9-0.6-1.5-1.4-1.5c-0.7,0-1.2,0.5-1.2,1.2c0,0.9,0.6,2.1,2.2,2.1H268.6z"/>
			<path d="M266.1,150.4h-2.2c-0.1-0.4-0.2-1.2-0.2-1.9c0-2.2,0.6-3,2.6-3h5.6v-1.6h2v1.6h2.7v2.9h-2.7v2.1h-2v-2.1h-4.9
				c-0.8,0-0.9,0.3-0.9,1C266,149.8,266,150.2,266.1,150.4z"/>
			<path d="M273.7,155.3h-9.9v-2.9h9.9V155.3z M277.3,155.3H275v-2.9h2.4V155.3z"/>
			<path d="M267.5,164.3l-0.3,3c-1.8-0.4-3.6-1.8-3.6-5c0-3.1,2-5.1,5.2-5.1s5.2,1.9,5.2,5.1s-2,4.4-3.2,4.8l-0.6-2.9
				c0.8-0.2,1.7-0.7,1.7-2s-1-2.1-3-2.1s-3,0.8-3,2.1C265.8,163.6,266.7,164.1,267.5,164.3z"/>
			<path d="M270.7,175.1c0.9-0.2,1.4-0.9,1.4-1.8s-0.4-1.5-1.1-1.5c-0.6,0-0.8,0.7-1,1.7l-0.2,1c-0.3,1.8-0.8,3.5-3,3.5
				c-2.3,0-3.2-2.1-3.2-4.7s1.1-4.5,3.1-4.8l0.3,2.7c-1.1,0.2-1.6,1-1.6,2.1c0,1,0.5,1.7,1.2,1.7c0.6,0,0.9-0.7,1.1-1.8l0.2-1.1
				c0.3-1.6,0.8-3.3,2.9-3.3c2,0,3,2.1,3,4.4c0,2.4-1.1,4.2-2.9,4.5L270.7,175.1z"/>
		</g>
	</g>
	<g>
		<g>
			<g class="st1">
				<g>
					<polygon class="st2" points="609.8,164.8 442.6,221.1 419.1,221.1 554.3,164.1 					"/>
				</g>
				<g>
					
						<linearGradient id="SVGID_1_" gradientUnits="userSpaceOnUse" x1="-6001.6616" y1="6062.6216" x2="-5858.3062" y2="6062.6216" gradientTransform="matrix(-0.2925 0.9563 -0.9563 -0.2925 4658.5581 7669.228)">
						<stop  offset="0" style="stop-color:#F2F2F2"/>
						<stop  offset="1" style="stop-color:#E6E6E6"/>
					</linearGradient>
					<polygon class="st3" points="619.6,174.2 569.5,173.7 565.7,290.9 617,290.4 					"/>
				</g>
				<g>
					
						<linearGradient id="SVGID_2_" gradientUnits="userSpaceOnUse" x1="6950.1567" y1="7438.542" x2="7100.7515" y2="7438.542" gradientTransform="matrix(-0.9791 -0.2036 0.2036 -0.9791 5866.4004 8938.1152)">
						<stop  offset="0" style="stop-color:#D6D6D6"/>
						<stop  offset="1" style="stop-color:#000000"/>
					</linearGradient>
					<polygon class="st4" points="565.7,290.9 424.8,273.5 425.6,225 569.5,173.7 					"/>
				</g>
				<g class="st5">
					
						<linearGradient id="SVGID_3_" gradientUnits="userSpaceOnUse" x1="-5760.2725" y1="6162.9702" x2="-5677.2822" y2="6162.9702" gradientTransform="matrix(-0.2925 0.9563 -0.9563 -0.2925 4658.5571 7669.228)">
						<stop  offset="0" style="stop-color:#F2F2F2"/>
						<stop  offset="1" style="stop-color:#E6E6E6"/>
					</linearGradient>
					<polygon class="st6" points="468.6,429 405.9,431.4 406.9,365.9 470,364.2 					"/>
				</g>
				<g>
					
						<linearGradient id="SVGID_4_" gradientUnits="userSpaceOnUse" x1="7077.9795" y1="7273.9521" x2="7150.5591" y2="7273.9521" gradientTransform="matrix(-0.9791 -0.2036 0.2036 -0.9791 5866.4004 8938.1152)">
						<stop  offset="0" style="stop-color:#D6D6D6"/>
						<stop  offset="1" style="stop-color:#000000"/>
					</linearGradient>
					<polygon class="st7" points="405.9,431.4 358,331.4 358.2,304.2 406.9,365.9 					"/>
				</g>
				<g class="st8">
					
						<linearGradient id="SVGID_5_" gradientUnits="userSpaceOnUse" x1="7028.9106" y1="7309.0005" x2="7150.605" y2="7309.0005" gradientTransform="matrix(-0.9791 -0.2036 0.2036 -0.9791 5866.4004 8938.1152)">
						<stop  offset="0" style="stop-color:#D6D6D6"/>
						<stop  offset="1" style="stop-color:#000000"/>
					</linearGradient>
					<polygon class="st9" points="406.9,365.9 358.2,304.2 384.7,303.8 470,364.2 					"/>
				</g>
				<g>
					
						<linearGradient id="SVGID_6_" gradientUnits="userSpaceOnUse" x1="6987.0464" y1="7493.6846" x2="7112.0684" y2="7493.6846" gradientTransform="matrix(-0.9791 -0.2036 0.2036 -0.9791 5866.4004 8938.1152)">
						<stop  offset="0" style="stop-color:#FFA300"/>
						<stop  offset="1" style="stop-color:#000000"/>
					</linearGradient>
					<polygon class="st10" points="554.3,164.1 419.1,221.1 419.4,198.8 556.1,109.4 					"/>
				</g>
				<g>
					
						<linearGradient id="SVGID_7_" gradientUnits="userSpaceOnUse" x1="6996.5005" y1="7504.0547" x2="7117.7808" y2="7504.0547" gradientTransform="matrix(-0.9791 -0.2036 0.2036 -0.9791 5866.4004 8938.1152)">
						<stop  offset="0" style="stop-color:#FFA300"/>
						<stop  offset="1" style="stop-color:#000000"/>
					</linearGradient>
					<polygon class="st11" points="556.1,109.4 419.4,198.8 413.6,198.8 542.2,109.1 					"/>
				</g>
				<polygon class="st12" points="413.7,191.3 413.6,198.8 542.2,109.1 542.7,90.4 542.8,87 413.7,189.9 				"/>
				<g>
					<polygon class="st13" points="609.8,164.8 554.3,164.1 556.1,109.4 542.2,109.1 542.7,90.4 542.8,87 612.6,89.1 					"/>
				</g>
				<g>
					<polygon class="st2" points="552.1,236.7 418.6,251 368.8,251.2 433.2,236.8 					"/>
				</g>
				<g>
					<polygon class="st12" points="292.7,363.3 311.5,302.5 351.9,302 391.4,360.9 					"/>
				</g>
				<g>
					<polygon class="st13" points="390.2,459.6 292.7,463.8 292.7,363.3 391.4,360.9 					"/>
				</g>
				<g>
					<polygon class="st12" points="433.2,236.8 368.8,251.2 369.3,198.5 435.5,106.6 					"/>
				</g>
				<g>
					
						<linearGradient id="SVGID_8_" gradientUnits="userSpaceOnUse" x1="382.892" y1="-1003.2776" x2="335.8916" y2="-948.1992" gradientTransform="matrix(1 0 0 1 0 1237.4)">
						<stop  offset="0" style="stop-color:#D6D6D6"/>
						<stop  offset="1" style="stop-color:#000000"/>
					</linearGradient>
					<polygon class="st14" points="410.3,237.9 359.4,251.7 337.3,251.7 356.1,238 					"/>
				</g>
				<g>
					<polygon class="st13" points="552.1,236.7 433.2,236.8 435.5,106.6 542.2,109.1 556.1,109.4 554.3,164.1 					"/>
				</g>
				<g class="st15">
					
						<linearGradient id="SVGID_9_" gradientUnits="userSpaceOnUse" x1="7129.9985" y1="7489.2949" x2="7167.9761" y2="7375.3638" gradientTransform="matrix(-0.9791 -0.2036 0.2036 -0.9791 5866.4004 8938.1152)">
						<stop  offset="0" style="stop-color:#D6D6D6"/>
						<stop  offset="1" style="stop-color:#000000"/>
					</linearGradient>
					<polygon class="st16" points="423.5,166.8 364.6,222.8 349.1,222.8 385.6,166.3 					"/>
				</g>
				<g class="st8">
					
						<linearGradient id="SVGID_10_" gradientUnits="userSpaceOnUse" x1="7151.8086" y1="7460.3877" x2="7179.2456" y2="7460.3877" gradientTransform="matrix(-0.9791 -0.2036 0.2036 -0.9791 5866.4004 8938.1152)">
						<stop  offset="0" style="stop-color:#D6D6D6"/>
						<stop  offset="1" style="stop-color:#000000"/>
					</linearGradient>
					<polygon class="st17" points="385.6,166.3 349.1,222.8 349.2,206.6 386.1,125.9 					"/>
				</g>
				<g class="st18">
					
						<linearGradient id="SVGID_11_" gradientUnits="userSpaceOnUse" x1="7173.8706" y1="7579.1523" x2="7173.8706" y2="7490.9648" gradientTransform="matrix(-0.9791 -0.2036 0.2036 -0.9791 5866.4004 8938.1152)">
						<stop  offset="0" style="stop-color:#D6D6D6"/>
						<stop  offset="1" style="stop-color:#000000"/>
					</linearGradient>
					<polygon class="st19" points="402.1,62.7 355.6,181.4 342,181.2 368.2,61.6 					"/>
				</g>
				<g class="st18">
					
						<linearGradient id="SVGID_12_" gradientUnits="userSpaceOnUse" x1="7190.1587" y1="7527.52" x2="7197.2539" y2="7527.52" gradientTransform="matrix(-0.9791 -0.2036 0.2036 -0.9791 5866.4004 8938.1152)">
						<stop  offset="0" style="stop-color:#D6D6D6"/>
						<stop  offset="1" style="stop-color:#000000"/>
					</linearGradient>
					<polygon class="st20" points="368.2,61.6 342,181.2 342,166.9 368.6,25.2 					"/>
				</g>
				<g>
					
						<linearGradient id="SVGID_13_" gradientUnits="userSpaceOnUse" x1="7258.604" y1="7487.7939" x2="7215.0273" y2="7427.2217" gradientTransform="matrix(-0.9791 -0.2036 0.2036 -0.9791 5866.4004 8938.1152)">
						<stop  offset="0" style="stop-color:#D6D6D6"/>
						<stop  offset="1" style="stop-color:#000000"/>
					</linearGradient>
					<polygon class="st21" points="286.9,106 309.5,199.3 309.5,215.7 287,147.3 					"/>
				</g>
				<g>
					
						<linearGradient id="SVGID_14_" gradientUnits="userSpaceOnUse" x1="336.6263" y1="-1083.6598" x2="329.7721" y2="-975.9504" gradientTransform="matrix(1 0 0 1 0 1237.4)">
						<stop  offset="0" style="stop-color:#D6D6D6"/>
						<stop  offset="1" style="stop-color:#000000"/>
					</linearGradient>
					<polygon class="st22" points="375.1,171.1 344.8,224.8 313.1,224.7 296,170.2 					"/>
				</g>
				<g>
					
						<linearGradient id="SVGID_15_" gradientUnits="userSpaceOnUse" x1="7166.126" y1="7415.1904" x2="7186.4009" y2="7415.1904" gradientTransform="matrix(-0.9791 -0.2036 0.2036 -0.9791 5866.4004 8938.1152)">
						<stop  offset="0" style="stop-color:#D6D6D6"/>
						<stop  offset="1" style="stop-color:#000000"/>
					</linearGradient>
					<polygon class="st23" points="356.1,238 337.3,251.7 337.4,228.7 356.6,180.7 					"/>
				</g>
				<g>
					
						<linearGradient id="SVGID_16_" gradientUnits="userSpaceOnUse" x1="-5918.0308" y1="6269.9189" x2="-5847.7002" y2="6269.9189" gradientTransform="matrix(-0.2925 0.9563 -0.9563 -0.2925 4658.5571 7669.228)">
						<stop  offset="0" style="stop-color:#F2F2F2"/>
						<stop  offset="1" style="stop-color:#E6E6E6"/>
					</linearGradient>
					<polygon class="st24" points="410.3,237.9 356.1,238 356.6,180.7 411.1,181.2 					"/>
				</g>
				
					<linearGradient id="SVGID_17_" gradientUnits="userSpaceOnUse" x1="7264.7222" y1="7221.0249" x2="7167.353" y2="7290.2529" gradientTransform="matrix(-0.9791 -0.2036 0.2036 -0.9791 5866.4004 8938.1152)">
					<stop  offset="0" style="stop-color:#D6D6D6"/>
					<stop  offset="1" style="stop-color:#000000"/>
				</linearGradient>
				<polygon class="st25" points="236,385.2 236.3,424.1 236.4,441.9 288.7,334.3 288.7,327.2 288.7,311.2 288.7,301.9 235.8,362.4 
									"/>
				<g class="st26">
					
						<linearGradient id="SVGID_18_" gradientUnits="userSpaceOnUse" x1="-5973.9932" y1="6267.8755" x2="-5924.8169" y2="6267.8755" gradientTransform="matrix(-0.2925 0.9563 -0.9563 -0.2925 4658.5571 7669.228)">
						<stop  offset="0" style="stop-color:#F2F2F2"/>
						<stop  offset="1" style="stop-color:#E6E6E6"/>
					</linearGradient>
					<polygon class="st27" points="423.5,166.8 385.6,166.3 386.1,125.9 424.1,126.7 					"/>
				</g>
				<g>
					<polygon class="st2" points="137.2,372 249.7,305.4 249.7,321.4 138,411.9 					"/>
				</g>
				<g>
					
						<linearGradient id="SVGID_19_" gradientUnits="userSpaceOnUse" x1="-5693.4536" y1="6392.9697" x2="-5591.2456" y2="6392.9697" gradientTransform="matrix(-0.2925 0.9563 -0.9563 -0.2925 4658.5571 7669.228)">
						<stop  offset="0" style="stop-color:#F2F2F2"/>
						<stop  offset="1" style="stop-color:#E6E6E6"/>
					</linearGradient>
					<polygon class="st28" points="236.4,441.9 155.9,444.9 154.5,364.3 235.8,362.4 236,385.2 236.3,424.1 					"/>
				</g>
				<g class="st29">
					
						<linearGradient id="SVGID_20_" gradientUnits="userSpaceOnUse" x1="7292.7095" y1="7229.9155" x2="7269.0894" y2="7303.3071" gradientTransform="matrix(-0.9791 -0.2036 0.2036 -0.9791 5866.4004 8938.1152)">
						<stop  offset="0" style="stop-color:#D6D6D6"/>
						<stop  offset="1" style="stop-color:#000000"/>
					</linearGradient>
					<polygon class="st30" points="154.5,364.3 256.5,302.3 288.7,301.9 235.8,362.4 					"/>
				</g>
				<g class="st31">
					
						<linearGradient id="SVGID_21_" gradientUnits="userSpaceOnUse" x1="-6063.3628" y1="6316.4512" x2="-6019.8311" y2="6316.4512" gradientTransform="matrix(-0.2925 0.9563 -0.9563 -0.2925 4658.5581 7669.228)">
						<stop  offset="0" style="stop-color:#F2F2F2"/>
						<stop  offset="1" style="stop-color:#E6E6E6"/>
					</linearGradient>
					<polygon class="st32" points="370.4,25.3 368.6,25.2 368.2,61.6 402.1,62.7 402.5,32 					"/>
				</g>
				<g>
					<polygon class="st12" points="96.1,373 233.7,305.6 249.7,305.4 137.2,372 					"/>
				</g>
				<g>
					<polygon class="st2" points="173,296.5 264,275.2 264.1,298.4 173.7,354.2 					"/>
				</g>
				<g>
					
						<linearGradient id="SVGID_22_" gradientUnits="userSpaceOnUse" x1="296.0393" y1="-1108.6875" x2="375.842" y2="-1108.6875" gradientTransform="matrix(1 0 0 1 0 1237.4)">
						<stop  offset="0" style="stop-color:#F2F2F2"/>
						<stop  offset="1" style="stop-color:#E6E6E6"/>
					</linearGradient>
					<polygon class="st33" points="375.1,171.1 296,170.2 296,86.3 375.8,88.5 					"/>
				</g>
				<g>
					<polygon class="st12" points="238,57.4 290.3,180.7 290.3,224 238.7,167.8 					"/>
				</g>
				<g>
					
						<linearGradient id="SVGID_23_" gradientUnits="userSpaceOnUse" x1="7276.1934" y1="7473.8364" x2="7138.4243" y2="7260.2314" gradientTransform="matrix(-0.9791 -0.2036 0.2036 -0.9791 5866.4004 8938.1152)">
						<stop  offset="0" style="stop-color:#D6D6D6"/>
						<stop  offset="1" style="stop-color:#000000"/>
					</linearGradient>
					<polygon class="st34" points="287,147.3 309.5,215.7 293.6,215.6 247,146.6 					"/>
				</g>
				<g>
					<polygon class="st13" points="138,411.9 97.1,413.2 96.1,373 137.2,372 					"/>
				</g>
				<g>
					
						<linearGradient id="SVGID_24_" gradientUnits="userSpaceOnUse" x1="-5953.6265" y1="6405.6563" x2="-5903.0034" y2="6405.6563" gradientTransform="matrix(-0.2925 0.9563 -0.9563 -0.2925 4658.5571 7669.228)">
						<stop  offset="0" style="stop-color:#F2F2F2"/>
						<stop  offset="1" style="stop-color:#E6E6E6"/>
					</linearGradient>
					<polygon class="st35" points="287,147.3 247,146.6 246.8,105 286.9,106 					"/>
				</g>
				<g>
					<polygon class="st13" points="173.7,354.2 115.4,355.5 114.1,297.2 173,296.5 					"/>
				</g>
				<g>
					<polygon class="st12" points="114.1,297.2 241.1,275.4 264,275.2 173,296.5 					"/>
				</g>
				<g>
					<polygon class="st2" points="238.7,167.8 290.3,224 248.2,223.9 130.5,166.4 					"/>
				</g>
				<g>
					<polygon class="st13" points="238.7,167.8 130.5,166.4 128.2,53.9 238,57.4 					"/>
				</g>
			</g>
			<g class="st1">
				<g>
					
						<linearGradient id="SVGID_25_" gradientUnits="userSpaceOnUse" x1="506.819" y1="-965.2387" x2="386.3805" y2="-973.0721" gradientTransform="matrix(1 0 0 1 0 1237.4)">
						<stop  offset="0" style="stop-color:#D6D6D6"/>
						<stop  offset="1" style="stop-color:#000000"/>
					</linearGradient>
					<polygon class="st36" points="493.5,290.6 394.3,273.2 394.4,257.4 494.5,252.1 					"/>
				</g>
				<g>
					
						<linearGradient id="SVGID_26_" gradientUnits="userSpaceOnUse" x1="-5885.2456" y1="6128.9409" x2="-5837.6074" y2="6128.9409" gradientTransform="matrix(-0.2925 0.9563 -0.9563 -0.2925 4658.5571 7669.228)">
						<stop  offset="0" style="stop-color:#F2F2F2"/>
						<stop  offset="1" style="stop-color:#E6E6E6"/>
					</linearGradient>
					<polygon class="st37" points="529.4,290.2 493.5,290.6 494.5,252.1 530.5,252 					"/>
				</g>
			</g>
			<g class="st1">
				<g>
					<polygon class="st2" points="367.1,352.8 341.9,298.6 342.2,255.4 368.1,247.1 					"/>
				</g>
				<g>
					<polygon class="st13" points="466.9,350.6 367.1,352.8 368.1,247.1 469.1,246.8 					"/>
				</g>
			</g>
			<g>
				<polygon class="st13" points="351,352.6 178.7,356.6 176.2,176.4 352.1,178.2 				"/>
			</g>
		</g>
		<g>
			<g>
				<path class="st38" d="M206.4,116.1c-4.8,0-8.8,3.9-8.8,8.8c0,1.7,0.5,3.2,1.3,4.6l4.2,6.8l-28.8-17.7l28.7-17.1l-23.5-11.3
					l1.9-3.1c0.4-0.6,0.6-1.3,0.6-2.1c0-2.2-1.8-4-4-4s-4,1.8-4,4c0,0.8,0.2,1.5,0.6,2.1l2.7,4.5c0.1,0.2,0.4,0.4,0.7,0.4l0,0
					c0.2,0,0.4-0.1,0.6-0.3l17.7,9.9l-36,23.1l0.8-1.4c0.5-0.8,0.7-1.7,0.7-2.5c0-1.4-0.5-2.6-1.5-3.5c-1-1-2.3-1.5-3.5-1.5
					c-2.7,0-5,2.3-5,5c0,1,0.3,1.9,0.8,2.6l3.6,5.8c0.2,0.3,0.4,0.4,0.8,0.4l0,0c0.3,0,0.6-0.2,0.8-0.4l0.5-0.8l0,0l12.5-7.4
					l34.7,18.7l0.4,0.6c0.2,0.4,0.6,0.6,1,0.6l0,0c0.4,0,0.8-0.2,1-0.6l6.5-10.8c0.8-1.4,1.3-2.9,1.3-4.5
					C215.3,120,211.2,116.1,206.4,116.1z M178,89.6l-2.1-3.4c-0.2-0.4-0.4-0.8-0.4-1.3c0-1.4,1.1-2.4,2.4-2.4s2.4,1.1,2.4,2.4
					c0,0.4-0.1,0.9-0.3,1.3L178,89.6z M159.5,122.3l-2.7,4.6l-2.8-4.6c-0.3-0.5-0.5-1.2-0.5-1.8c0-1.8,1.5-3.3,3.3-3.3
					c1.9,0,3.3,1.5,3.3,3.3C159.9,121.3,159.8,121.9,159.5,122.3z M211.9,128.1l-5.4,9.1l-5.6-9c-0.6-1-1-2.2-1-3.3
					c0-3.5,2.9-6.5,6.5-6.5c3.5,0,6.5,2.9,6.5,6.5C212.9,126,212.5,127.1,211.9,128.1z"/>
			</g>
		</g>
		<g>
			<g>
				<g>
					<path class="st38" d="M210.6,124.9c0,2.3-1.8,4.1-4.1,4.1c-2.4,0-4.1-1.9-4.1-4.1s1.9-4.1,4.1-4.1
						C208.7,120.7,210.6,122.5,210.6,124.9z"/>
				</g>
			</g>
		</g>
		<g>
			<g>
				<g>
					<path class="st38" d="M179,85c0,0.5-0.4,1-1,1s-1-0.5-1-1c0-0.6,0.5-1,1-1C178.5,84,179,84.5,179,85z"/>
				</g>
			</g>
		</g>
		<g>
			<g>
				<g>
					<path class="st38" d="M158.2,120.7c0,0.8-0.6,1.5-1.5,1.5c-0.8,0-1.5-0.7-1.5-1.5c0-0.8,0.7-1.5,1.5-1.5
						S158.2,119.8,158.2,120.7z"/>
				</g>
			</g>
		</g>
		<g>
			<path class="st38" d="M273.8,287.1h-21.4l-2.2-2.4h-19c-2.6,0-4.8-2.1-4.9-4.6l-6-30.9v-0.2c0-2.7,2.2-4.9,4.9-4.9h77.5
				c2.7,0,4.9,2.2,4.9,4.9v0.2l-6,30.9c-0.1,2.5-2.3,4.6-4.9,4.6H276L273.8,287.1z M254.5,282.1h17.1l2.2-2.4h22.9v-0.2l5.9-30.6
				h-77.3l5.9,30.6v0.2h21.1L254.5,282.1z"/>
		</g>
		<g>
			<rect x="233.4" y="254" class="st38" width="5.4" height="2.7"/>
		</g>
		<g>
			<rect x="241.3" y="254" class="st38" width="5.4" height="2.7"/>
		</g>
		<g>
			<rect x="249.3" y="254" class="st38" width="5.4" height="2.7"/>
		</g>
		<g>
			<rect x="257.3" y="254" class="st38" width="5.4" height="2.7"/>
		</g>
		<g>
			<rect x="265.2" y="254" class="st38" width="5.4" height="2.7"/>
		</g>
		<g>
			<rect x="273.1" y="254" class="st38" width="5.4" height="2.7"/>
		</g>
		<g>
			<rect x="281.2" y="254" class="st38" width="5.4" height="2.7"/>
		</g>
		<g>
			<rect x="289.1" y="254" class="st38" width="5.4" height="2.7"/>
		</g>
		<g>
			<rect x="233.5" y="270.9" class="st38" width="5.4" height="2.7"/>
		</g>
		<g>
			<rect x="241.4" y="270.9" class="st38" width="5.4" height="2.7"/>
		</g>
		<g>
			<rect x="249.4" y="270.9" class="st38" width="5.4" height="2.7"/>
		</g>
		<g>
			<rect x="257.4" y="270.9" class="st38" width="5.4" height="2.7"/>
		</g>
		<g>
			<rect x="265.3" y="270.9" class="st38" width="5.4" height="2.7"/>
		</g>
		<g>
			<rect x="273.2" y="270.9" class="st38" width="5.4" height="2.7"/>
		</g>
		<g>
			<rect x="281.3" y="270.9" class="st38" width="5.4" height="2.7"/>
		</g>
		<g>
			<rect x="289.2" y="270.9" class="st38" width="5.4" height="2.7"/>
		</g>
		<g>
			<rect x="233.5" y="262.7" class="st38" width="61.1" height="2.8"/>
		</g>
		<g>
			<g>
				<rect x="409.2" y="301" class="st38" width="3.9" height="2"/>
			</g>
		</g>
		<g>
			<g>
				<rect x="409.2" y="297.1" class="st38" width="3.9" height="2"/>
			</g>
		</g>
		<g>
			<g>
				<g>
					<path class="st38" d="M444.9,287.9h-0.7v-4.1c0-0.5-0.4-1-1-1c-0.5,0-1,0.4-1,1v4.1h-3.5v-4.1c0-0.5-0.4-1-1-1
						c-0.5,0-1,0.4-1,1v4.1h-0.7c-0.8,0-1.5,0.7-1.5,1.5v6c0,2.8,2.2,5.3,4.9,5.7v4c0,4.5-3.7,8.2-8.2,8.2h-6.6v-15.1
						c0-4.1-3.3-7.4-7.4-7.4h-1.1c0.4-0.6,0.8-1.1,1-1.7l5.7-1.1c0.6-0.1,1-0.6,1-1.3v-0.5h5.4v-2.5h-5.4v-0.5
						c0-0.8-0.5-1.3-1.3-1.3h-0.5v-2.4l2-0.8c0,0.7,0.6,1.2,1.3,1.2h5.4c0.8,0,1.3-0.5,1.3-1.3v-3.5c0-0.8-0.5-1.3-1.3-1.3h-5.4
						c-0.8,0-1.3,0.5-1.3,1.3v0.9l-3.7,1.5l0,0c-0.5,0.2-0.8,0.7-0.8,1.3v3.2h-4c-1.2-1.2-2.8-1.8-4.5-1.8s-3.3,0.7-4.5,1.8h-4v-3.2
						c0-0.6-0.3-1-0.8-1.2l-3.6-1.5v-0.9c0-0.8-0.5-1.3-1.3-1.3h-5.4c-0.8,0-1.3,0.5-1.3,1.3v3.5c0,0.8,0.5,1.3,1.3,1.3h5.4
						c0.7,0,1.2-0.5,1.3-1.2l2,0.8v2.4h-0.5c-0.8,0-1.3,0.5-1.3,1.3v0.5h-5.4v2.5h5.4v0.5c0,0.6,0.4,1.2,1,1.3l5.7,1.1
						c0.3,0.7,0.6,1.2,1,1.7h-1.2c-4.1,0-7.4,3.3-7.4,7.4V317c0,2.3,1.8,4,4,4h4v1.4c0,3.1,2.5,5.7,5.7,5.7c3.1,0,5.7-2.5,5.7-5.7
						V321h4c2.3,0,4-1.8,4-4V315h6.6c5.5,0,9.9-4.4,9.9-9.9v-4c2.7-0.4,4.9-2.8,4.9-5.7v-6C446.2,288.5,445.7,287.9,444.9,287.9z
						 M426.7,276.5h2.8v1.1h-2.8V276.5z M421.5,284.4v1.3l-3.7,0.8c0-0.7-0.2-1.4-0.4-2.1L421.5,284.4L421.5,284.4z M395.6,277.4
						h-2.8v-1.1h2.8V277.4z M404.5,286.5l-3.7-0.8v-1.3h4.1C404.7,285.1,404.6,285.9,404.5,286.5z M411.2,282.6
						c2.3,0,4.1,1.8,4.1,4.1c0,2.3-1.8,4.1-4.1,4.1c-2.4,0-4.1-1.8-4.1-4.1C407.1,284.4,408.8,282.6,411.2,282.6z M414.3,322.4
						c0,1.8-1.5,3.2-3.2,3.2s-3.2-1.5-3.2-3.2v-5.9h6.4L414.3,322.4L414.3,322.4z M405.3,314v-2.3c0-3.3,2.5-5.9,5.9-5.9
						s5.9,2.5,5.9,5.9v2.3H405.3z M422.4,316.9c0,0.8-0.7,1.5-1.5,1.5h-4v-2h1.4c0.8,0,1.3-0.5,1.3-1.3v-3.5c0-4.6-3.7-8.4-8.4-8.4
						s-8.4,3.7-8.4,8.4v3.5c0,0.8,0.5,1.3,1.3,1.3h1.4v2h-4c-0.8,0-1.5-0.7-1.5-1.5v-18.7c0-2.6,2.2-4.9,4.9-4.9h12.6
						c2.6,0,4.9,2.2,4.9,4.9L422.4,316.9L422.4,316.9z M444.4,295.4c0,2.2-1.8,3.8-3.8,3.8c-2.2,0-3.8-1.8-3.8-3.8v-5.6h7.7
						L444.4,295.4L444.4,295.4z"/>
				</g>
			</g>
		</g>
		<g>
			<g>
				<path class="st39" d="M195.5,402.4c-6.4,0-11.5-5.2-11.5-11.5c0-6.4,5.2-11.5,11.5-11.5c6.4,0,11.5,5.2,11.5,11.5
					S201.8,402.4,195.5,402.4z M195.5,382.5c-4.6,0-8.3,3.7-8.3,8.3c0,4.6,3.7,8.3,8.3,8.3c4.6,0,8.3-3.7,8.3-8.3
					C203.8,386.3,200.1,382.5,195.5,382.5z"/>
			</g>
			<g>
				<path class="st39" d="M213.4,411v12h-7c0.6-0.4,1.1-1.1,1.1-1.9c0-0.5-0.2-1-0.5-1.4h3.3V411c0-2.1-1.6-3.8-3.5-3.8h-22.7
					c-2,0-3.5,1.7-3.5,3.8v8.8h3.8c-0.4,0.4-0.6,0.9-0.6,1.5c0,0.7,0.4,1.4,0.9,1.8h-7.2v-12c0-4,2.9-7.2,6.7-7.2h22.7
					C210.5,403.8,213.4,407.1,213.4,411z"/>
			</g>
			<g>
				<path class="st39" d="M186.1,418c0.2,0,0.4,0.1,0.6,0.2v0.1c-0.1,0.3-0.2,0.7-0.2,1c-0.1-0.1-0.3-0.1-0.5-0.2
					c-0.5-0.1-1.1,0-1.6,0.3c-0.1,0.1-0.2,0.1-0.3,0.2c0-0.4,0.1-0.8,0.2-1.3c0.4-0.2,0.8-0.4,1.3-0.4
					C185.9,417.9,186,417.9,186.1,418L186.1,418z"/>
				<path class="st39" d="M185.7,424.5c-0.3,0-0.6-0.1-0.9-0.2c-0.1-0.3-0.2-0.6-0.3-1c0.5,0.3,1.1,0.3,1.7,0.1
					c0.2-0.1,0.4-0.2,0.5-0.3c0.1,0.3,0.2,0.6,0.3,0.9C186.8,424.4,186.3,424.5,185.7,424.5z"/>
			</g>
			<path class="st39" d="M187.6,418.7l-0.9-0.5l-0.6-0.3c0.2,0,0.4,0.1,0.6,0.2C187.1,418.3,187.4,418.5,187.6,418.7z"/>
			<path class="st39" d="M206.4,418.2c-0.3-0.1-0.7-0.2-1.1-0.2c-0.8,0-1.5,0.3-1.9,0.9l0.7-0.4c0.1,0.3,0.1,0.6,0.2,0.9
				c0.1-0.1,0.3-0.2,0.4-0.2c0.2-0.1,0.4-0.1,0.6,0c0.4-0.1,0.9,0,1.2,0.3l0.1,0.1C206.6,418.9,206.5,418.5,206.4,418.2z
				 M203.7,424.3c-1.3,2.8-3.9,4.9-7.1,5.3v-6.1c0.6-0.3,1.1-0.9,1.3-1.6l5.1-2.9c0.5-0.9,1.4-1.5,2.4-1.5c0.3,0,0.7,0.1,1,0.2
				c-1.3-4.9-5.7-8.4-10.9-8.4c-5.3,0-9.7,3.6-10.9,8.5c0.4-0.2,0.8-0.3,1.2-0.3h0.1c0.4,0,0.7,0.1,1,0.2c0.6,0.3,1.1,0.8,1.4,1.4
				l0,0l4.7,2.6c0.1,0.8,0.7,1.5,1.4,1.9v6c-3.1-0.4-5.8-2.4-7.1-5.1c-0.4,0.3-1,0.5-1.6,0.5c-0.2,0-0.5,0-0.7-0.1
				c1.7,4.1,5.7,7,10.4,7s8.7-2.9,10.4-7c-0.2,0-0.3,0-0.5,0C204.8,424.9,204.2,424.6,203.7,424.3z M193.7,419.5l-6.2-3.3
				c1.6-2.7,4.5-4.7,7.9-4.7s6.5,2,7.9,4.8l-6.2,3.3c-0.5-0.5-1.1-0.8-1.9-0.8C194.8,418.8,194.1,419,193.7,419.5z M205.7,424
				c-0.6,0.1-1.1-0.1-1.4-0.6c-0.1-0.1-0.1-0.2-0.2-0.4c-0.1,0.3-0.2,0.6-0.3,0.9c0.4,0.4,1,0.6,1.6,0.6c0.2,0,0.4,0,0.6-0.1
				c0.1-0.2,0.2-0.4,0.2-0.6C206.1,423.9,205.9,424,205.7,424z"/>
			<g>
				<path class="st39" d="M187.6,418.7L187.6,418.7c-0.2-0.3-0.5-0.5-0.9-0.7c-0.2-0.1-0.4-0.1-0.6-0.2l0,0c-0.1,0-0.3,0-0.4,0
					c-0.5,0-1,0.1-1.3,0.4c-0.7,0.4-1.2,1.2-1.2,2.1v1.8c0,1.1,0.7,2,1.6,2.4c0.3,0.1,0.6,0.2,0.9,0.2c0.5,0,1-0.2,1.4-0.4
					c0.7-0.5,1.1-1.2,1.1-2.1v-1.8C188.2,419.7,187.9,419.2,187.6,418.7z M186.8,422.1c0,0.6-0.5,1.1-1.1,1.1
					c-0.6,0-1.1-0.5-1.1-1.1v-1.8c0-0.6,0.5-1.1,1.1-1.1c0.6,0,1.1,0.5,1.1,1.1V422.1z"/>
			</g>
			<g>
				<path class="st39" d="M207.8,419.8c-0.2-0.8-0.7-1.4-1.4-1.7c-0.3-0.1-0.7-0.2-1.1-0.2c-0.8,0-1.5,0.3-1.9,0.9
					c-0.4,0.4-0.6,1-0.6,1.6v1.8c0,0.8,0.4,1.5,0.9,1.9c0.4,0.4,1,0.6,1.6,0.6c0.2,0,0.4,0,0.6-0.1c0.8-0.2,1.4-0.7,1.7-1.4
					c0.1-0.3,0.2-0.7,0.2-1v-1.8C207.8,420.2,207.8,420,207.8,419.8z M206.4,420.3v1.8c0,0.6-0.5,1.1-1.1,1.1
					c-0.6,0-1.1-0.5-1.1-1.1v-1.8c0-0.6,0.5-1.1,1.1-1.1C206,419.3,206.4,419.8,206.4,420.3z"/>
			</g>
		</g>
		<g>
			<g>
				<path class="st38" d="M510.8,142.2h-27.7c-2.6,0-4.9,2.2-4.9,4.9v56.4c0,2.6,2.2,4.9,4.9,4.9h27.7c2.6,0,4.9-2.2,4.9-4.9v-56.4
					C515.7,144.4,513.5,142.2,510.8,142.2z M480.4,151h33.1v41.9h-33.1V151z M483.1,144.5h27.7c1.5,0,2.6,1.2,2.6,2.6v1.8h-33v-1.8
					C480.4,145.7,481.6,144.5,483.1,144.5z M510.8,206.2h-27.7c-1.5,0-2.6-1.2-2.6-2.6v-8.3h33.1v8.3
					C513.4,205,512.2,206.2,510.8,206.2z"/>
				<path class="st38" d="M497,197.4c-1.9,0-3.3,1.5-3.3,3.3c0,1.9,1.5,3.3,3.3,3.3c1.9,0,3.3-1.5,3.3-3.3
					C500.2,198.8,498.7,197.4,497,197.4z M497,202.3c-0.9,0-1.7-0.8-1.7-1.7c0-0.9,0.8-1.7,1.7-1.7c0.9,0,1.7,0.8,1.7,1.7
					C498.5,201.6,497.8,202.3,497,202.3z"/>
				<path class="st38" d="M494.6,147.2h2.3c0.3,0,0.6-0.3,0.6-0.6c0-0.3-0.3-0.6-0.6-0.6h-2.3c-0.3,0-0.6,0.3-0.6,0.6
					C494,146.9,494.3,147.2,494.6,147.2z"/>
				<path class="st38" d="M498.6,147.2h0.6c0.3,0,0.6-0.3,0.6-0.6c0-0.3-0.3-0.6-0.6-0.6h-0.6c-0.3,0-0.6,0.3-0.6,0.6
					C498,146.9,498.3,147.2,498.6,147.2z"/>
				<path class="st38" d="M527.7,147.3c-0.4-0.4-1.2-0.4-1.6,0c-0.4,0.4-0.4,1.2,0,1.6c4.1,4.1,4.1,10.8,0,15
					c-0.4,0.4-0.4,1.2,0,1.6c0.2,0.2,0.5,0.3,0.8,0.3c0.3,0,0.6-0.1,0.8-0.3C532.6,160.3,532.6,152.2,527.7,147.3z"/>
				<path class="st38" d="M523,149.8c-0.4-0.4-1.2-0.4-1.6,0s-0.4,1.2,0,1.6c1.4,1.4,2.2,3.1,2.2,5.1c0,2-0.8,3.7-2.2,5.1
					c-0.4,0.4-0.4,1.2,0,1.6c0.2,0.2,0.5,0.3,0.8,0.3c0.3,0,0.6-0.1,0.8-0.3c1.8-1.8,2.7-4.1,2.7-6.7
					C525.8,154,524.8,151.5,523,149.8z"/>
				<path class="st38" d="M466.3,148.9c0.4-0.4,0.4-1.2,0-1.6c-0.4-0.4-1.2-0.4-1.6,0c-5,5-5,13.1,0,18c0.2,0.2,0.5,0.3,0.8,0.3
					s0.6-0.1,0.8-0.3c0.4-0.4,0.4-1.2,0-1.6C462.2,159.7,462.2,153,466.3,148.9z"/>
				<path class="st38" d="M471,149.5c-0.4-0.4-1.2-0.4-1.6,0c-1.8,1.8-2.7,4.1-2.7,6.7c0,2.5,1,4.9,2.7,6.7c0.2,0.2,0.5,0.3,0.8,0.3
					c0.3,0,0.6-0.1,0.8-0.3c0.4-0.4,0.4-1.2,0-1.6c-1.4-1.4-2.2-3.1-2.2-5.1c0-2,0.8-3.7,2.2-5.1C471.4,150.6,471.4,150,471,149.5z"
					/>
			</g>
			<g>
				<path class="st38" d="M497.7,168.8c-0.1,0.1-0.3,0.2-0.5,0.1c-0.2-0.1-0.3-0.2-0.3-0.4v-11.4l-1.8,2.1v0.1l0.4,0.9
					c0.4,0.9,0.4,1.9,0,2.8v0.1c-0.3,0.7-0.3,1.5,0,2.1c0.4,0.9,0.4,2,0,2.8c-0.3,0.7-0.3,1.5,0,2.1l0,0c0.3,0.8,0.4,1.7,0.1,2.4
					c1.1-0.1,2.2-0.1,3.2,0c-0.3-0.8-0.2-1.7,0.1-2.4l0,0c0.3-0.7,0.3-1.5,0-2.2l0,0c-0.4-0.9-0.4-1.9,0-2.7c0.3-0.7,0.3-1.5,0-2.1
					l0,0c-0.4-0.9-0.4-1.9,0-2.7l0.4-0.9v-0.1l-1.8-2.1L497.7,168.8C497.7,168.7,497.7,168.8,497.7,168.8z"/>
				<path class="st38" d="M503.3,175.3c-0.2-0.6-0.7-1.1-1.3-1.3c-3.1-0.9-6.4-0.9-9.4,0c-0.6,0.2-1.1,0.7-1.3,1.3
					c-0.9,3-0.9,6.4,0,9.4c0.2,0.6,0.7,1.1,1.3,1.3c3.1,0.9,6.4,0.9,9.4,0c0.6-0.2,1.1-0.7,1.3-1.3
					C504.2,181.6,504.2,178.4,503.3,175.3z M501.1,183.4c0,0.5-0.4,0.9-0.9,0.9h-5.7c-0.5,0-0.9-0.4-0.9-0.9v-1.9
					c0-0.2,0.1-0.5,0.3-0.6c0.2-0.2,0.4-0.3,0.6-0.3h5.7c0.2,0,0.5,0.1,0.6,0.3c0.2,0.2,0.3,0.4,0.3,0.6V183.4z"/>
			</g>
		</g>
		<path class="st39" d="M360.5,138.5c0,0-0.2-0.6-1.3-0.9c0,0-3.1-6-9.6-15.4l2.1-3.9c0,0,0.6-0.5-2.7-3.2l-6-5.3l-1.3-1.3
			c0,0-0.7-0.9-2.4,0l-7.7,2.6l-2.2-0.7l-2.6,6l6,12.5c0,0,2.4-0.1,3.2,4.3c0,0,1.5,5.5,2.8,7.9c0,0,1.7,5.2,8.1,1.4l6.2-3.2
			c0,0,1.1-0.7,1.7,0.4c0,0-1.1,1,0,2c0,0,0.6,1.3,2.4-0.1l2.8-1.7C360.1,140.1,361.1,139.6,360.5,138.5z M349.4,138.4l-3.3,1.7
			c-4.3,1.9-5.3-1.7-5.3-1.7L339,134l-1.4-4.1c-0.9-2.6,0.2-3.8,0.2-3.8c2.1-2.6,5.3-2.5,5.3-2.5c2.9,0.3,4.2,2.4,4.2,2.4l1.1,2
			l3,5.7C352.8,136.9,349.4,138.4,349.4,138.4z"/>
		<path class="st39" d="M339.9,127c0,0,2-1.1,3.8-0.7c0,0,1.1,0.2,1.9,1.6l3.4,5l1.1,1.6c0,0,0.7,0.8,0.1,1.4c0,0-0.6,0.5-2-1.8
			l-3.1-4.1c0,0-1-1.3-1.7-1.7c0,0-0.6-0.5-2.6-0.1c0,0-0.6,0.2-1.1-0.3C339.7,127.7,339.3,127.4,339.9,127z"/>
		<path class="st39" d="M327.9,111.8l-1.4,3.2l-8.8-3.5l-7,1.3c0,0-1.6,0.8-2.3-0.4L308,111c0,0-0.6-1,1.7-1.4l7.9-1.5L327.9,111.8z
			"/>
		<path class="st39" d="M357.2,142.8l2.8-1.8c0,0,1.8,2.2,2.4,5.2l-2.9,1C359.5,147.3,358.6,143.9,357.2,142.8z"/>
		<path class="st39" d="M309.6,132.1c0,0-0.6,0.7-1.8,0.7l0,0l0,0c-1.3-0.1-1.8-0.8-1.8-0.8c-1.9-2,0.5-4.7,0.5-4.7
			c0.9-0.8,1.5-3,1.7-3.7v-0.1v0.1c0.1,0.7,0.5,2.9,1.4,3.8C309.6,127.4,311.7,130.3,309.6,132.1z"/>
		<path class="st39" d="M309.4,121.5c0,0-0.5,0.6-1.5,0.5l0,0l0,0c-1-0.1-1.4-0.7-1.4-0.7c-1.5-1.7,0.4-3.8,0.4-3.8
			c0.7-0.7,1.2-2.4,1.4-3v-0.1c0,0,0,0,0,0.1c0.1,0.6,0.4,2.4,1.1,3.1C309.3,117.6,311,120,309.4,121.5z"/>
		<g>
			<g>
				<path class="st39" d="M439.9,377.9c-11.4,0-20.6,9.2-20.6,20.6c0,11.4,9.2,20.6,20.6,20.6c11.4,0,20.6-9.2,20.6-20.6
					C460.4,387.1,451.2,377.9,439.9,377.9z M421.3,399.9c-0.8,0-1.5-0.7-1.5-1.5s0.7-1.5,1.5-1.5s1.5,0.7,1.5,1.5
					C422.7,399.4,422.1,399.9,421.3,399.9z M440.2,418.5c-0.8,0-1.5-0.7-1.5-1.5s0.7-1.5,1.5-1.5s1.5,0.7,1.5,1.5
					C441.6,417.9,441,418.5,440.2,418.5z M439.9,414.9c-9.1,0-16.5-7.3-16.5-16.5c0-6.9,4.1-12.6,10.1-15.2v-0.7
					c0-1,0.8-1.9,1.8-1.9h9.8c1,0,1.8,0.8,1.8,1.9v1c5.6,2.6,9.4,8.3,9.4,14.9C456.3,407.6,449,414.9,439.9,414.9z M458.5,399.9
					c-0.8,0-1.5-0.7-1.5-1.5s0.7-1.5,1.5-1.5s1.5,0.7,1.5,1.5C460,399.4,459.4,399.9,458.5,399.9z"/>
			</g>
			<g>
				<path class="st39" d="M439.9,388.5c-5.5,0-10,4.5-10,10c0,5.5,4.5,10,10,10c5.5,0,10-4.5,10-10
					C449.9,392.9,445.4,388.5,439.9,388.5z M444.7,392.2c0.9,0,1.7,0.8,1.7,1.7c0,0.9-0.8,1.7-1.7,1.7c-0.9,0-1.7-0.8-1.7-1.7
					S443.8,392.2,444.7,392.2z M439.9,389.9c0.9,0,1.7,0.8,1.7,1.7s-0.8,1.7-1.7,1.7c-0.9,0-1.7-0.8-1.7-1.7S439,389.9,439.9,389.9z
					 M435.3,392.2c0.9,0,1.7,0.8,1.7,1.7c0,0.9-0.8,1.7-1.7,1.7c-0.9,0-1.7-0.8-1.7-1.7C433.6,393,434.4,392.2,435.3,392.2z
					 M431.5,398.8c0-0.9,0.8-1.7,1.7-1.7c0.9,0,1.7,0.8,1.7,1.7c0,0.9-0.8,1.7-1.7,1.7S431.5,399.7,431.5,398.8z M435.3,405
					c-0.9,0-1.7-0.8-1.7-1.7c0-0.9,0.8-1.7,1.7-1.7c0.9,0,1.7,0.8,1.7,1.7C436.9,404.4,436.2,405,435.3,405z M439.9,407.2
					c-0.9,0-1.7-0.8-1.7-1.7s0.8-1.7,1.7-1.7c0.9,0,1.7,0.8,1.7,1.7C441.5,406.4,440.8,407.2,439.9,407.2z M439.9,401.9
					c-1.9,0-3.4-1.6-3.4-3.4c0-1.9,1.6-3.4,3.4-3.4c1.9,0,3.4,1.6,3.4,3.4C443.3,400.3,441.7,401.9,439.9,401.9z M444.7,405
					c-0.9,0-1.7-0.8-1.7-1.7c0-0.9,0.8-1.7,1.7-1.7c0.9,0,1.7,0.8,1.7,1.7C446.3,404.4,445.6,405,444.7,405z M446.8,400.1
					c-0.9,0-1.7-0.8-1.7-1.7c0-0.9,0.8-1.7,1.7-1.7c0.9,0,1.7,0.8,1.7,1.7C448.4,399.4,447.7,400.1,446.8,400.1z"/>
			</g>
			<path class="st39" d="M444.7,381.4h-9c-0.9,0-1.7,0.7-1.7,1.7v1.8c0,0.7,0.5,1.3,1.1,1.6c0.2,0.1,0.4,0.1,0.6,0.1h9
				c0.2,0,0.4,0,0.6-0.1c0.6-0.2,1.1-0.9,1.1-1.6v-1.8C446.3,382.2,445.6,381.4,444.7,381.4z M444.8,385.1c-0.3,0.2-0.6,0.3-0.9,0.3
				c-0.8,0-1.4-0.6-1.4-1.4c0-0.3,0.1-0.6,0.3-0.9c0.3-0.3,0.7-0.6,1.1-0.6c0.8,0,1.4,0.6,1.4,1.4
				C445.3,384.4,445.1,384.8,444.8,385.1z M435,384c0-0.8,0.6-1.4,1.4-1.4c0.4,0,0.8,0.2,1.1,0.5c0.2,0.3,0.3,0.6,0.3,0.9
				c0,0.8-0.6,1.4-1.4,1.4c-0.3,0-0.6-0.1-0.9-0.3C435.3,384.8,435,384.4,435,384z M438.8,384c0-0.8,0.6-1.4,1.4-1.4
				s1.4,0.6,1.4,1.4c0,0.1,0,0.2,0,0.3c-0.1,0.6-0.7,1.1-1.4,1.1c-0.7,0-1.2-0.4-1.4-1C438.8,384.3,438.8,384.1,438.8,384z"/>
		</g>
	</g>
	<g>
		<path class="st40" d="M535.7,323.9l-1.2,3.3h-3.7l5.3-14.7h4.6l5.3,14.7h-3.8l-1.2-3.3H535.7z M538.7,315.4L538.7,315.4l-2.1,6
			h4.1L538.7,315.4z"/>
		<path class="st40" d="M553.6,324.5c0.4-0.4,0.6-0.9,0.7-1.5l3.3,0.4c-0.3,1.2-0.9,2.1-1.7,2.8c-0.9,0.8-2.2,1.2-3.8,1.2
			S549,327,548,326c-1.1-1.1-1.5-2.4-1.5-4.2c0-1.2,0.2-2.2,0.7-3s1.2-1.5,2-2c0.9-0.5,1.8-0.7,3-0.7c1.6,0,2.8,0.4,3.7,1.2
			c0.9,0.8,1.5,1.6,1.7,2.5l-3.2,0.6c-0.4-1.3-1.1-1.8-2.1-1.8c-0.8,0-1.3,0.3-1.7,0.9c-0.4,0.6-0.6,1.5-0.6,2.4
			c0,1.2,0.2,2,0.6,2.4c0.4,0.5,1,0.9,1.7,0.9C552.7,325.1,553.2,324.9,553.6,324.5z"/>
		<path class="st40" d="M565.6,324.5c0.4-0.4,0.6-0.9,0.7-1.5l3.3,0.4c-0.3,1.2-0.9,2.1-1.7,2.8c-0.9,0.8-2.2,1.2-3.8,1.2
			S561,327,560,326c-1.1-1.1-1.5-2.4-1.5-4.2c0-1.2,0.2-2.2,0.7-3c0.5-0.9,1.2-1.5,2-2c0.9-0.5,1.8-0.7,3-0.7c1.6,0,2.8,0.4,3.7,1.2
			c0.9,0.8,1.5,1.6,1.7,2.5l-3.2,0.6c-0.4-1.3-1.1-1.8-2.1-1.8c-0.8,0-1.3,0.3-1.7,0.9c-0.4,0.6-0.6,1.5-0.6,2.4
			c0,1.2,0.2,2,0.6,2.4c0.4,0.5,1,0.9,1.7,0.9C564.7,325.1,565.2,324.9,565.6,324.5z"/>
		<path class="st40" d="M580.9,325.6c-0.4,0.6-1.1,1-1.8,1.4c-0.8,0.4-1.7,0.6-2.8,0.6c-1.2,0-2.2-0.2-3-0.7c-0.9-0.5-1.5-1.2-2-2
			c-0.5-0.9-0.7-1.9-0.7-3c0-1.8,0.5-3.2,1.5-4.2c1.1-1,2.4-1.5,4.2-1.5c1.7,0,3.1,0.5,4.1,1.5c1.1,1.1,1.5,2.4,1.5,4.3v0.7H574
			c0,0.9,0.2,1.5,0.7,2.1c0.4,0.5,1,0.8,1.6,0.8c0.6,0,1.2-0.2,1.5-0.5c0.4-0.3,0.6-0.7,0.7-1.2l3.3,0.2
			C581.6,324.5,581.3,325,580.9,325.6z M574.6,318.8c-0.4,0.4-0.7,1-0.7,1.6h4.5c0-0.7-0.3-1.3-0.7-1.6c-0.4-0.4-1-0.7-1.6-0.7
			C575.6,318.1,575,318.4,574.6,318.8z"/>
		<path class="st40" d="M589.2,318.5c-0.4-0.3-0.8-0.4-1.3-0.4c-0.5,0-0.9,0.1-1.2,0.3c-0.3,0.2-0.5,0.5-0.5,0.9
			c0,0.3,0.2,0.6,0.5,0.8c0.3,0.2,0.8,0.3,1.5,0.4l1.2,0.2c0.8,0.1,1.5,0.3,2.1,0.6c0.6,0.2,1.1,0.6,1.5,1.1
			c0.4,0.5,0.6,1.1,0.6,1.9c0,1.2-0.5,2.1-1.5,2.6c-1,0.6-2.2,0.9-3.8,0.9c-1.5,0-2.6-0.3-3.6-1c-1-0.6-1.5-1.5-1.7-2.5l3-0.4
			c0.1,0.6,0.4,1.1,0.8,1.4c0.4,0.3,1,0.5,1.5,0.5s1.1-0.1,1.4-0.4c0.4-0.2,0.5-0.6,0.5-1c0-0.3-0.2-0.6-0.5-0.8
			c-0.3-0.2-0.9-0.3-1.5-0.5l-1.3-0.2c-1.2-0.2-2-0.5-2.6-1s-1.1-1.3-1.1-2.3c0-0.8,0.2-1.4,0.7-1.8c0.5-0.5,1.1-0.9,1.8-1.2
			c0.8-0.3,1.5-0.4,2.4-0.4c1.4,0,2.4,0.3,3.3,0.9c1,0.6,1.5,1.4,1.6,2.4l-3,0.4C589.8,319.2,589.5,318.8,589.2,318.5z"/>
		<path class="st40" d="M600.5,318.5c-0.4-0.3-0.8-0.4-1.3-0.4c-0.5,0-0.9,0.1-1.2,0.3c-0.3,0.2-0.5,0.5-0.5,0.9
			c0,0.3,0.2,0.6,0.5,0.8c0.3,0.2,0.8,0.3,1.5,0.4l1.2,0.2c0.8,0.1,1.5,0.3,2.1,0.6c0.6,0.2,1.1,0.6,1.5,1.1
			c0.4,0.5,0.6,1.1,0.6,1.9c0,1.2-0.5,2.1-1.5,2.6c-1,0.6-2.2,0.9-3.8,0.9c-1.5,0-2.6-0.3-3.6-1c-1-0.6-1.5-1.5-1.7-2.5l3-0.4
			c0.1,0.6,0.4,1.1,0.8,1.4c0.4,0.3,1,0.5,1.5,0.5c0.5,0,1.1-0.1,1.4-0.4c0.4-0.2,0.5-0.6,0.5-1c0-0.3-0.2-0.6-0.5-0.8
			c-0.3-0.2-0.9-0.3-1.5-0.5l-1.3-0.2c-1.2-0.2-2-0.5-2.6-1s-1.1-1.3-1.1-2.3c0-0.8,0.2-1.4,0.7-1.8c0.5-0.4,1.1-0.9,1.8-1.2
			c0.8-0.3,1.5-0.4,2.4-0.4c1.4,0,2.4,0.3,3.3,0.9c1,0.6,1.5,1.4,1.6,2.4l-3,0.4C601,319.2,600.8,318.8,600.5,318.5z"/>
	</g>
</g>
<g>
	<path class="st41" d="M752.1,261.4l0.8-184.7c-39-23.6-181.1-28.7-234.3-10.3C373.8,116.7,372.3,65.9,329.2,30
		C219.5-61.7,67.4,117.1,220.6,186.2c81.3,36.6,28.6,90.8,32.5,148c2.4,36.6,17.7,66.4,42.2,87h1.1l-0.7,0.5
		c0,0,162.4,101.8,456.3,46.5L752.1,261.4L752.1,261.4z"/>
	<circle class="st41" cx="191.8" cy="260.8" r="61.6"/>
</g>
</svg>
